<svg xmlns="http://www.w3.org/2000/svg" width="54" height="54" viewBox="0 0 54 54">
  <g id="delete_icon" transform="translate(-3049 24220)">
    <rect id="delete_icon-2" data-name="delete_icon" width="54" height="54" transform="translate(3049 -24220)" fill="none"/>
    <path id="Path_14595" data-name="Path 14595" d="M8.975,48.938A5.085,5.085,0,0,0,14.46,54H39.308c3.639,0,5.558-1.867,5.78-5.484.591-9.745,2.025-33.507,2.13-35.448H6.845c0,.422,1.413,24.458,2.13,35.87Z" transform="translate(3048.998 -24220)" fill="#1b2d51"/>
    <path id="Path_14596" data-name="Path 14596" d="M47.176,3.47c-2.858-.021-5.706-.042-8.554.011A3.808,3.808,0,0,0,34.836,0H19.164a3.791,3.791,0,0,0-3.776,3.48c-2.932-.053-5.875-.032-8.807-.011A3,3,0,0,0,3.554,5.7,3.212,3.212,0,0,0,6.771,10c6.761.021,13.511.011,20.261.011H47.155c2.183,0,3.438-1.223,3.449-3.259S49.349,3.48,47.176,3.47Z" transform="translate(3048.998 -24220)" fill="#1b2d51"/>
  </g>
</svg>
