<svg xmlns="http://www.w3.org/2000/svg" width="1240" height="391" viewBox="0 0 1240 391">
  <g id="news" transform="translate(-2250 23412)">
    <rect id="news-2" data-name="news" width="1240" height="391" transform="translate(2250 -23412)" fill="none"/>
    <path id="Path_14599" data-name="Path 14599" d="M118.682,55.824c-.07,95.341-.472,190.8.652,286.253a1.34,1.34,0,0,0,1.114,1.294l30.777,5.379a.606.606,0,0,1,.552.662V388.6a.5.5,0,0,1-.5.5H43.36a.863.863,0,0,1-.853-.723l-6.573-38.935a.521.521,0,0,1,.462-.682l34.419-7.074a.537.537,0,0,0,.432-.522V47.374a.552.552,0,0,0-.552-.612L38.042,43.521a.452.452,0,0,1-.411-.452V1a.5.5,0,0,1,.5-.5H154.727a.8.8,0,0,1,.733.482L296.117,333.105a.211.211,0,0,0,.411-.08V47.154a.381.381,0,0,0-.331-.381L262.239,42.4a.607.607,0,0,1-.582-.672V1a.5.5,0,0,1,.5-.5H372.241a.489.489,0,0,1,.532.452L379.867,41.9a.907.907,0,0,1-.823,1.194l-34.63,6.462a.531.531,0,0,0-.472.582V388.6a.5.5,0,0,1-.5.5H260.885a.341.341,0,0,1-.311-.2L119.163,55.723a.251.251,0,0,0-.482.1Z" transform="translate(2229.958 -23412.502)" fill="#fff"/>
    <path id="Path_14600" data-name="Path 14600" d="M840.454,191.233,789.2,390.153a.607.607,0,0,1-.582.452H722.6a.848.848,0,0,1-.823-.662l-50.284-234.1a.7.7,0,0,0-.682-.552H647.214a.548.548,0,0,1-.612-.542l-3.873-34.038a.435.435,0,0,1,.462-.542l73.575-5.549a.946.946,0,0,1,1.114.833L761.23,328.4a.194.194,0,0,0,.193.161.219.219,0,0,0,.208-.161l52.3-205.944a.707.707,0,0,1,.682-.532h60.309a.791.791,0,0,1,.843.642l56.777,206.516a.211.211,0,0,0,.411,0l42.718-173.12q.171-.672-.522-.672H951.088a.461.461,0,0,1-.512-.462l-3.813-33.707a.8.8,0,0,1,.823-1l61.172-4.957a.847.847,0,0,1,.833.421l11.8,18.775a1.394,1.394,0,0,1,.181,1.1L960.581,390.053a.653.653,0,0,1-.7.552H894.09a.321.321,0,0,1-.311-.241L840.8,191.233a.181.181,0,0,0-.341,0Z" transform="translate(2229.958 -23412.502)" fill="#fff"/>
    <path id="Path_14601" data-name="Path 14601" d="M466.889,286.152c6.1,35.794,32.5,60.821,69.21,62.647,25.288,1.264,49.522-5.68,69.551-21.484a.241.241,0,0,1,.381.11L618.083,365.8a1.37,1.37,0,0,1-.462,1.5c-13.818,10.938-32.663,17.079-49.672,20.712q-45.919,9.794-87.624-7.847c-60.911-25.779-76.315-93.023-68.367-152.559,6.864-51.388,41.574-98.783,94.548-109.49,65.768-13.3,132.1,26.211,108.717,102.235-17.1,55.613-100.248,65.437-147.712,65.076a.622.622,0,0,0-.622.733Zm69.22-127.311c-49.251-3.241-69.451,43.39-72.2,84.112a.677.677,0,0,0,.753.823,283.349,283.349,0,0,0,39.186-2.228c27.084-3.462,65.086-16.347,62.376-50.264C564.778,173.281,555.436,160.115,536.109,158.841Z" transform="translate(2229.958 -23412.502)" fill="#fff"/>
    <path id="Path_14602" data-name="Path 14602" d="M1121.107,342.969q19.317,8.409,41.153,3.412c32.141-7.355,32.934-46.11,4.054-58.824q-16.035-7.064-43.069-19.518c-15.253-7.024-32.342-16.577-43.37-28.71-16.066-17.661-20.933-42.106-16.367-65.417,5.83-29.854,34.51-49.582,62.848-55.583,47.926-10.145,94.076,9.081,117.748,52.643a.512.512,0,0,1-.271.722l-56.717,21.7a.479.479,0,0,1-.682-.281l-12.4-27.535a2.084,2.084,0,0,0-1-1.024c-15.855-7.626-35.995-7.727-49.682,4.486-9.543,8.52-10.015,24.886-3.01,34.921q3.242,4.646,10.938,9.643c17.5,11.369,42.568,20.541,56.536,27.024,38.885,18.023,60.931,49.462,50.4,93.5-7.165,29.984-35.594,48.348-63.861,54.348q-42.487,9-81.111-10.105c-19.578-9.684-36.727-24.8-44.163-45.849a.47.47,0,0,1,.311-.672l57.329-21.7a.366.366,0,0,1,.472.2l13.166,31.84A1.377,1.377,0,0,0,1121.107,342.969Z" transform="translate(2229.958 -23412.502)" fill="#fff"/>
  </g>
</svg>
