<svg xmlns="http://www.w3.org/2000/svg" width="356" height="200" viewBox="0 0 356 200">
  <g id="Placeholder_video" transform="translate(-1856 22926)">
    <rect id="Placeholder_video" data-name="Placeholder_video" width="356" height="200" transform="translate(1856 -22926)" fill="#f1f5f7"/>
    <g id="video" transform="translate(9.071 6.074)">
      <path id="Path_14603" data-name="Path 14603" d="M39.128,35.5l.065,20.878-.52,3.187c-.065.2-.13.39-.39.455a4.014,4.014,0,0,1-3.9-.65.876.876,0,0,1-.325-.585c-.325-7.8-.065-15.545-.13-23.285-.065-2.992,1.366-4.423,4.423-3.447a.433.433,0,0,1,.325.455Z" transform="translate(1922.113 -22909.988)" fill="#d1dbea"/>
      <path id="Path_14604" data-name="Path 14604" d="M39.817,35.99q30.634.1,61.4.065c7.675,0,13.138,1.821,13.984,10.407q-23.415,0-46.764.2c-9.821.065-13.854,1.3-18.6,10.211H39.947Z" transform="translate(1921.423 -22910.482)" fill="#c4cede"/>
      <path id="Path_14605" data-name="Path 14605" d="M116.4,47.837q9.951-.1,19.9.2c15.675.455,18.407,9.691,17.821,23.415,0,.325.065,1.171.2,2.407-.26,8.715-.325,17.366,0,26.081-.2,4.813.2,10.732-1.106,14.894-2.211,7.35-7.61,11.057-16.2,11.057q-48.781.1-67.9.065c-11.252-.065-18.8-4.813-18.927-17.171-.13-14.634-.13-29.268.13-43.968a36.2,36.2,0,0,1,.715-6.5c4.748-8.976,8.78-10.211,18.6-10.276Q92.948,47.837,116.4,47.837ZM93.7,71.967a3.971,3.971,0,0,0-5.919,3.447V98.373a3.942,3.942,0,0,0,3.967,3.967,4.169,4.169,0,0,0,1.951-.52l20.293-11.447a4.021,4.021,0,0,0,1.5-5.4,3.33,3.33,0,0,0-1.5-1.5Z" transform="translate(1920.228 -22911.857)" fill="#d1dbea"/>
      <path id="Path_14606" data-name="Path 14606" d="M175.3,102.567Q175,89.4,175.3,76.225c1.691-1.561,4.683-5.333,6.634-6.049,1.041-.39,2.992-.39,5.854.065.2.065.325.13.325.39l.065,37.984a.307.307,0,0,1-.325.325l-6.049-.065a.835.835,0,0,1-.65-.26Z" transform="translate(1905.686 -22914.424)" fill="#d1dbea"/>
      <path id="Path_14607" data-name="Path 14607" d="M98.654,75.068l20.293,11.447a4.021,4.021,0,0,1,1.5,5.4,3.33,3.33,0,0,1-1.5,1.5L98.654,104.857a3.971,3.971,0,0,1-5.919-3.447V78.45A3.942,3.942,0,0,1,96.7,74.483,4.251,4.251,0,0,1,98.654,75.068Z" transform="translate(1915.27 -22914.959)" fill="#fff"/>
      <path id="Path_14608" data-name="Path 14608" d="M174.433,77.132q-.293,13.171,0,26.342l-6.5-.13c-.26-8.715-.26-17.366,0-26.081Z" transform="translate(1906.548 -22915.266)" fill="#c4cede"/>
    </g>
  </g>
</svg>
