<svg xmlns="http://www.w3.org/2000/svg" width="592.921" height="346.993" viewBox="0 0 592.921 346.993">
  <g id="Design_Top" data-name="Design Top" transform="translate(0.169 0.132)" opacity="0.2">
    <g id="Group_4" data-name="Group 4" transform="translate(0 0)">
      <path id="Path_5" data-name="Path 5" d="M583.45.5c8.414,30.7,14.541,64.143,2.788,93.714-15.409,38.743-58.151,60.45-99.547,65.415s-83.086-3.241-124.666-6.408-86.107-.428-120.386,23.334C194.115,209.5,178.51,273.7,135.622,312.508,99.863,344.855,45.883,355.531.5,339.205" transform="translate(-0.499 -0.5)" fill="none" stroke="#0f1f40" stroke-miterlimit="10" stroke-width="1"/>
      <path id="Path_6" data-name="Path 6" d="M578.106,15.8c7.961,29.033,13.758,60.682,2.642,88.651-14.577,36.651-55.008,57.185-94.166,61.881s-78.6-3.07-117.928-6.066-81.46-.4-113.88,22.074c-44.967,31.173-59.716,91.9-100.293,128.6-33.826,30.6-84.9,40.7-127.822,25.254" transform="translate(-26.646 -15.803)" fill="none" stroke="#0f1f40" stroke-miterlimit="10" stroke-width="1"/>
      <path id="Path_7" data-name="Path 7" d="M572.792,31.085c7.5,27.382,12.975,57.209,2.483,83.588-13.746,34.56-51.865,53.919-88.8,58.346s-74.11-2.9-111.2-5.711-76.813-.379-107.374,20.814c-42.4,29.387-56.3,86.657-94.558,121.267C141.449,338.25,93.3,347.765,52.822,333.2" transform="translate(-52.822 -31.085)" fill="none" stroke="#0f1f40" stroke-miterlimit="10" stroke-width="1"/>
      <path id="Path_8" data-name="Path 8" d="M567.448,46.388c7.044,25.718,12.193,53.748,2.336,78.525-12.914,32.469-48.722,50.654-83.417,54.812s-69.622-2.715-104.463-5.369S309.75,174,281.035,193.911c-39.831,27.6-52.892,81.411-88.834,113.917C162.239,334.94,117,343.88,78.981,330.2" transform="translate(-78.969 -46.388)" fill="none" stroke="#0f1f40" stroke-miterlimit="10" stroke-width="1"/>
      <path id="Path_9" data-name="Path 9" d="M562.12,61.682c6.592,24.067,11.4,50.287,2.189,73.462-12.07,30.378-45.579,47.389-78.036,51.278s-65.134-2.544-97.725-5.026-67.506-.33-94.374,18.3c-37.263,25.828-49.492,76.165-83.111,106.579-28.03,25.364-70.356,33.729-105.919,20.924" transform="translate(-105.132 -61.682)" fill="none" stroke="#0f1f40" stroke-miterlimit="10" stroke-width="1"/>
    </g>
  </g>
</svg>
