<svg xmlns="http://www.w3.org/2000/svg" width="592.921" height="346.992" viewBox="0 0 592.921 346.992">
  <g id="Design_Bottom" data-name="Design Bottom" transform="translate(-0.006 0.097)" opacity="0.2">
    <g id="Group_4" data-name="Group 4" transform="translate(0.499 0.5)">
      <path id="Path_5" data-name="Path 5" d="M9.807,346.763c-8.414-30.7-14.541-64.143-2.788-93.714,15.409-38.743,58.151-60.45,99.547-65.415s83.086,3.241,124.666,6.408,86.107.428,120.386-23.334c47.523-32.946,63.128-97.15,106.017-135.954,35.759-32.347,89.739-43.023,135.122-26.7" transform="translate(-0.499 -0.5)" fill="none" stroke="#0f1f40" stroke-miterlimit="10" stroke-width="1"/>
      <path id="Path_6" data-name="Path 6" d="M35.466,343.351C27.5,314.319,21.707,282.669,32.824,254.7,47.4,218.049,87.832,197.516,126.99,192.82s78.6,3.07,117.928,6.066,81.46.4,113.88-22.074c44.967-31.173,59.716-91.9,100.293-128.6,33.826-30.6,84.9-40.7,127.822-25.254" transform="translate(5.332 2.912)" fill="none" stroke="#0f1f40" stroke-miterlimit="10" stroke-width="1"/>
      <path id="Path_7" data-name="Path 7" d="M61.123,339.944c-7.5-27.382-12.975-57.209-2.483-83.588,13.746-34.56,51.865-53.919,88.8-58.346s74.11,2.9,111.2,5.711,76.813.379,107.374-20.814c42.4-29.387,56.3-86.657,94.558-121.267,31.894-28.861,80.041-38.376,120.521-23.811" transform="translate(11.165 6.318)" fill="none" stroke="#0f1f40" stroke-miterlimit="10" stroke-width="1"/>
      <path id="Path_8" data-name="Path 8" d="M86.782,336.533c-7.044-25.718-12.193-53.748-2.336-78.525,12.914-32.469,48.722-50.654,83.417-54.812s69.622,2.715,104.463,5.369,72.153.355,100.868-19.555c39.831-27.6,52.892-81.411,88.834-113.917,29.962-27.113,75.2-36.052,113.22-22.368" transform="translate(16.997 9.73)" fill="none" stroke="#0f1f40" stroke-miterlimit="10" stroke-width="1"/>
      <path id="Path_9" data-name="Path 9" d="M112.44,333.123c-6.592-24.067-11.4-50.287-2.189-73.462,12.07-30.378,45.579-47.389,78.036-51.278s65.134,2.544,97.725,5.026,67.506.33,94.374-18.3c37.263-25.828,49.492-76.165,83.111-106.579,28.03-25.364,70.356-33.729,105.919-20.924" transform="translate(22.83 13.14)" fill="none" stroke="#0f1f40" stroke-miterlimit="10" stroke-width="1"/>
    </g>
  </g>
</svg>
