<svg id="User" xmlns="http://www.w3.org/2000/svg" xmlns:xlink="http://www.w3.org/1999/xlink" width="2790.098" height="2790.098" viewBox="0 0 2790.098 2790.098">
  <defs>
    <linearGradient id="linear-gradient" x1="-0.411" y1="1.434" x2="1.202" y2="1.428" gradientUnits="objectBoundingBox">
      <stop offset="0" stop-color="#e13975"/>
      <stop offset="1" stop-color="#6d1d50"/>
    </linearGradient>
  </defs>
  <path id="Path_2862" data-name="Path 2862" d="M2790.1,1395.049c0,770.466-624.583,1395.049-1395.049,1395.049S0,2165.515,0,1395.049,624.583,0,1395.049,0,2790.1,624.583,2790.1,1395.049" fill="#f7ccdd"/>
  <path id="Path_2863" data-name="Path 2863" d="M830.376,139.917v.154q-151.134,0-302.258-.01c-240.539-.349-435.324,177.661-453.987,417.5-6.583,84.667-5.4,169.93-12.1,254.577-5.342,67.625,23.256,112,77.428,148.981,422.958,288.732,959.192,286.538,1379.709-5.384,49.609-34.443,75.951-76.844,72.957-136.46-4.758-94.963-5.691-190.448-16.7-284.734C1548.67,305.55,1358.694,140.45,1127.517,139.958q-55.725-.123-111.43-.113-92.855,0-185.711.072" transform="translate(568.17 1294.128)" fill="url(#linear-gradient)"/>
  <path id="Path_2864" data-name="Path 2864" d="M590.718,31.217C320.115,34,87.2,263.8,86.713,533.407c-.513,285.01,218.985,509,501.524,511.778,288.835,2.861,506.907-215.263,506.784-506.907C1109.51,257.42,855.159,31.166,595.312,31.186c-1.517,0-3.076.01-4.594.031" transform="translate(802.434 288.596)" fill="url(#linear-gradient)"/>
</svg>
