<?xml version="1.0" encoding="UTF-8"?>
<svg id="Layer_2" data-name="Layer 2" xmlns="http://www.w3.org/2000/svg" viewBox="0 0 443.45 388.75">
  <defs>
    <style>
      .cls-1 {
        fill: #739dad;
      }

      .cls-2 {
        fill: #fc461a;
      }

      .cls-3, .cls-4 {
        fill: #fff;
      }

      .cls-5 {
        fill: #375bc9;
      }

      .cls-6 {
        fill: #f4b3b3;
      }

      .cls-7 {
        fill: #dce3f7;
      }

      .cls-8 {
        fill: #a80e0e;
      }

      .cls-4 {
        isolation: isolate;
        opacity: .3;
      }

      .cls-9 {
        fill: #fab18d;
      }

      .cls-10 {
        fill: #ede4dd;
      }

      .cls-11 {
        fill: #f99900;
      }

      .cls-12 {
        fill: #f9cbc5;
      }

      .cls-13 {
        fill: #071f59;
      }

      .cls-14 {
        fill: #425c89;
      }

      .cls-15 {
        fill: #e60b27;
      }

      .cls-16 {
        fill: #ea4242;
      }

      .cls-17 {
        fill: #90c3dd;
      }

      .cls-18 {
        fill: #b50808;
      }

      .cls-19 {
        fill: #ff8864;
      }

      .cls-20 {
        fill: #ed667d;
      }

      .cls-21 {
        fill: #3a5791;
      }

      .cls-22 {
        fill: #c41414;
      }

      .cls-23 {
        fill: #373543;
      }

      .cls-24 {
        fill: #ff664d;
      }

      .cls-25 {
        fill: #dbd0ca;
      }

      .cls-26 {
        fill: #1a100e;
      }

      .cls-27 {
        fill: #b50825;
      }

      .cls-28 {
        fill: #e3e3e3;
      }

      .cls-29 {
        fill: #dc2c0f;
      }
    </style>
  </defs>
  <g id="Layer_2-2" data-name="Layer 2">
    <g id="OBJECTS">
      <g>
        <path class="cls-10" d="m188.93,77.63C172.38,17.58,97.77-1.77,55.02,43.12c-.61.64-1.23,1.3-1.84,1.97C-8.12,111.71,20.84,275.91,148.76,317.52c127.92,41.62,260.97-34.38,268.45-102.31,7.47-67.93-51.54-89.28-143.13-70.28-51.74,10.73-74.84-29.9-85.15-67.29h0Z"/>
        <path class="cls-10" d="m362.65,53.67h-89.76s3.94-25.32,15.05-24.33c3.07.27,5.16,3.39,6.53,6.73.84,2.06,3.79,1.92,4.4-.22,2.94-10.29,8.94-25.99,18.25-25.99s9.95,17.97,9.25,28.91c-.1,1.65,2.03,2.38,2.96,1.02,2.54-3.74,6.25-7.33,10.76-6.29,3.85.89,5.56,4.88,6.26,9.08.21,1.26,1.96,1.43,2.41.23,2.34-6.23,6.5-15.3,10.92-15.49,6.75-.29,2.97,26.36,2.97,26.36h0Z"/>
        <path class="cls-10" d="m426.24,320.71h-71.88s3.16-20.27,12.05-19.49c2.46.22,4.13,2.71,5.23,5.39.68,1.65,3.04,1.53,3.53-.18,2.35-8.24,7.16-20.82,14.62-20.82s7.96,14.39,7.41,23.15c-.08,1.32,1.63,1.91,2.37.81,2.03-2.99,5-5.87,8.61-5.03,3.08.71,4.45,3.91,5.01,7.27.17,1.01,1.57,1.14,1.93.18,1.88-4.99,5.21-12.25,8.75-12.4,5.4-.23,2.38,21.11,2.38,21.11h0Z"/>
        <path class="cls-10" d="m31.7,237.01c2.35-8.6.85-17.76-3.81-25.36-4.54-7.4-11.47-15.14-19.12-11.09-13.43,7.1,2.12,41.61,13.51,44.92,5.16,1.5,7.93-3.05,9.41-8.47h.01Z"/>
        <path class="cls-10" d="m169.72,15.69c-2.16-6.02-6.81-10.8-12.67-13.35-5.72-2.49-12.98-4.19-15.82,1.34-4.98,9.7,18.37,23.62,26.43,20.87,3.65-1.24,3.41-5.06,2.05-8.86h0Z"/>
      </g>
      <ellipse class="cls-10" cx="214.9" cy="361.95" rx="193.35" ry="9.38"/>
      <g>
        <g>
          <path class="cls-6" d="m357.65,269.27l2.26.75,1.2.4,3.4,1.12s50.65-40.98,37.67-65.38c-4-7.51-16.08-7.05-22.85,18.07-6.28,23.29-21.69,45.05-21.69,45.05h.01Z"/>
          <path class="cls-20" d="m359.91,270.02l1.2.4c10.18-10.71,18.03-23.37,22.98-32.47,5.88-10.8,9.05-19.05,9.09-19.14.11-.29-.03-.63-.33-.74-.29-.11-.63.03-.74.33-.03.08-3.18,8.28-9.03,19.02-4.98,9.14-12.9,21.9-23.17,32.61h0Z"/>
        </g>
        <g>
          <path class="cls-6" d="m99.07,89.1l-2.79.05-1.48.03-4.19.08S48.2,26,71.13,3.23c7.06-7.01,20.39-2.32,19.28,28.08-1.03,28.18,8.66,57.8,8.66,57.8h0Z"/>
          <path class="cls-20" d="m96.29,89.16l-1.48.03c-7.67-15.48-12.06-32.33-14.45-44.2-2.84-14.09-3.53-24.41-3.54-24.51-.03-.37.25-.69.62-.71.37-.03.69.25.71.62,0,.1.7,10.35,3.52,24.36,2.4,11.93,6.84,28.92,14.61,44.42h.01Z"/>
        </g>
        <g>
          <path class="cls-17" d="m112.62,98.97l-3.35,2.24-1.78,1.19-5.04,3.36S1.33,61.77,11.49,16.1C14.62,2.04,34.53-2.65,56.92,35.27c20.75,35.15,55.7,63.7,55.7,63.7Z"/>
          <path class="cls-1" d="m109.27,101.21l-1.78,1.19c-21.43-12.88-39.96-30-52.14-42.6-14.46-14.97-23.37-27-23.45-27.12-.32-.43-.23-1.04.2-1.35.43-.32,1.04-.23,1.35.2.09.12,8.93,12.07,23.31,26.95,12.24,12.67,30.93,29.91,52.5,42.74h.01Z"/>
        </g>
        <g>
          <path class="cls-17" d="m345.9,277.16l2.49,2.39,1.32,1.26,3.75,3.58s91.72-22.01,89.96-61.99c-.54-12.31-16.62-19.22-41.12,9.39-22.71,26.52-56.4,45.37-56.4,45.37Z"/>
          <path class="cls-1" d="m348.39,279.54l1.32,1.26c19.97-7.66,38.12-19.32,50.26-28.13,14.41-10.46,23.7-19.26,23.79-19.35.33-.31.34-.84.03-1.17s-.84-.34-1.17-.03c-.09.09-9.32,8.84-23.65,19.23-12.2,8.85-30.5,20.59-50.59,28.19h0Z"/>
        </g>
        <g>
          <path class="cls-6" d="m417.17,83.57c-3.98,11.3-15.41,10.38-15.63,19.7-.21,9.32-6.41,16.1-14.37,14s-13.7-4.1-17.82,4.98c-4.12,9.08-16.05,13.13-20.32,5.59-1.06-1.88-2.21-3.91-3.34-5.9-.31-.54-.61-1.09-.91-1.62-.07-.12-.14-.25-.21-.37-4.52-8.02-2.39-18.26,5.11-23.59,3.04-2.16,6.6-3.28,10.51-1.92,12.25,4.27,8.38-8.45,16.05-13.38,8.83-5.67,15.8,1.58,21.9-3.32,8.48-6.82,22.99-5.48,19.01,5.82h.02Z"/>
          <path class="cls-20" d="m402.1,87.8l-56.39,34.14c-.31-.54-.61-1.09-.91-1.62l56.34-34.11c.44-.27,1.01-.13,1.28.31.27.44.13,1.01-.31,1.28h-.01Z"/>
        </g>
        <g>
          <path class="cls-17" d="m409.08,20.2c1.59,14.74-11.68,19.81-6.95,30.34,4.73,10.52,1.42,21.4-8.58,23.3-10.01,1.89-17.48,2.73-17.25,15.07.24,12.34-10.92,23.23-19.71,17.08-2.19-1.53-4.56-3.19-6.87-4.81-.63-.45-1.26-.89-1.89-1.32-.14-.1-.29-.2-.43-.3-9.33-6.55-12.41-19.12-6.87-29.07,2.24-4.03,5.62-7.18,10.72-7.75,15.95-1.77,4.86-13.91,10.79-23.5,6.83-11.04,18.49-6.66,22.69-15.39,5.84-12.14,22.75-18.38,24.34-3.63v-.02Z"/>
          <path class="cls-1" d="m394.5,32.96l-44.78,68.21c-.63-.45-1.26-.89-1.89-1.32l44.74-68.15c.35-.53,1.06-.68,1.59-.33s.68,1.06.33,1.59h.01Z"/>
        </g>
        <g>
          <path class="cls-6" d="m30.46,311.31c10.51,3.58,16.39-5.27,23.31-.09,6.91,5.19,15.4,4.56,18.43-2.44s4.87-12.32,13.85-10.12c8.98,2.2,18.76-4.16,15.72-11.59-.76-1.85-1.58-3.85-2.39-5.81-.22-.54-.44-1.07-.66-1.6-.05-.12-.1-.24-.15-.36-3.25-7.89-11.93-12.21-20.11-9.8-3.31.98-6.17,2.93-7.42,6.56-3.91,11.37-10.96,1.26-18.94,4.02-9.19,3.18-7.91,12.42-14.97,14.05-9.83,2.27-17.17,13.6-6.66,17.18h0Z"/>
          <path class="cls-20" d="m42.17,302.75l57.2-21.5c-.22-.54-.44-1.07-.66-1.6l-57.15,21.48c-.45.17-.67.66-.5,1.11.17.45.66.67,1.11.5h0Z"/>
        </g>
        <g>
          <path class="cls-17" d="m3.28,269.26c9.83,9.61,21.12,2.85,26.08,12.33,4.95,9.48,14.77,13.31,21.89,7.11s12.01-11.17,20.86-3.92,23.18,5.36,23.74-4.56c.14-2.47.29-5.14.43-7.77.04-.72.08-1.43.12-2.13,0-.16.02-.33.03-.49.57-10.55-6.81-20-17.24-21.67-4.22-.68-8.46-.02-11.79,3.37-10.43,10.61-12.92-4.44-23.3-5.61-11.96-1.35-15.45,9.65-24.22,7.71-12.19-2.71-26.43,6.04-16.6,15.64h0Z"/>
          <path class="cls-1" d="m20.93,265.96l75.35,6.49c.04-.72.08-1.43.12-2.13l-75.29-6.49c-.59-.05-1.11.38-1.16.97s.38,1.11.97,1.16h.01Z"/>
        </g>
        <g>
          <path class="cls-8" d="m297.95,90.47c7.46-20.64,15.09-37.79,22.7-51.07,9.95-17.35,19.93-28.09,29.66-31.91.64-.25,1.37.06,1.63.71.25.65-.06,1.37-.71,1.63-17.01,6.69-35.25,36.69-52.82,86.82l-.47-6.17h0Z"/>
          <path class="cls-16" d="m330.82,24.66s-9.6-4.24-1.49-20.82c0,0,12.85,10.65,1.49,20.82Z"/>
          <path class="cls-16" d="m326.2,32.99s3.69-9.82,20.7-2.65c0,0-9.92,13.42-20.7,2.65Z"/>
          <path class="cls-16" d="m343.95,12.54s.21-10.49,18.63-9.4c0,0-4.87,15.96-18.63,9.4Z"/>
          <path class="cls-16" d="m316.38,49.47s-10.46-.74-8.44-19.09c0,0,15.7,5.67,8.44,19.09Z"/>
          <path class="cls-16" d="m312.96,58.67s1.94-10.31,19.93-6.19c0,0-7.45,14.94-19.93,6.19Z"/>
          <path class="cls-16" d="m307.02,70.81s-10.48-.54-8.8-18.92c0,0,15.8,5.38,8.8,18.92Z"/>
        </g>
      </g>
      <g>
        <g>
          <rect class="cls-23" x="52.74" y="65.82" width="324.43" height="217.97" rx="6.23" ry="6.23"/>
          <path class="cls-3" d="m368.56,80.85v187.9c0,3.49-2.83,6.32-6.32,6.32H67.66c-.77,0-1.51-.14-2.19-.4-2.41-.88-4.12-3.2-4.12-5.92V80.85c0-3.49,2.83-6.32,6.31-6.32h294.58c.84,0,1.65.17,2.39.47,2.31.94,3.93,3.21,3.93,5.85Z"/>
          <g>
            <path class="cls-25" d="m368.56,80.85v9.35H61.34v-9.35c0-3.49,2.83-6.32,6.32-6.32h294.58c3.49,0,6.32,2.83,6.32,6.32Z"/>
            <g>
              <circle class="cls-11" cx="341.39" cy="82.36" r="3.07"/>
              <circle class="cls-5" cx="330.04" cy="82.36" r="3.07"/>
              <path class="cls-2" d="m355.82,82.36c0,1.69-1.37,3.07-3.07,3.07s-3.07-1.37-3.07-3.07,1.37-3.07,3.07-3.07,3.07,1.37,3.07,3.07Z"/>
            </g>
          </g>
          <g>
            <g>
              <path class="cls-25" d="m75.53,169.24h0c0,1.67,1.35,3.02,3.02,3.02h132.71c1.67,0,3.02-1.35,3.02-3.02h0c0-1.67-1.35-3.02-3.02-3.02H78.55c-1.67,0-3.02,1.35-3.02,3.02Z"/>
              <path class="cls-25" d="m75.53,182.31h0c0,1.67,1.35,3.02,3.02,3.02h132.71c1.67,0,3.02-1.35,3.02-3.02h0c0-1.67-1.35-3.02-3.02-3.02H78.55c-1.67,0-3.02,1.35-3.02,3.02Z"/>
              <path class="cls-25" d="m75.53,195.39h0c0,1.67,1.35,3.02,3.02,3.02h132.71c1.67,0,3.02-1.35,3.02-3.02h0c0-1.67-1.35-3.02-3.02-3.02H78.55c-1.67,0-3.02,1.35-3.02,3.02Z"/>
            </g>
            <g>
              <path class="cls-25" d="m75.53,222.23h0c0,1.67,1.35,3.02,3.02,3.02h132.71c1.67,0,3.02-1.35,3.02-3.02h0c0-1.67-1.35-3.02-3.02-3.02H78.55c-1.67,0-3.02,1.35-3.02,3.02Z"/>
              <path class="cls-25" d="m75.53,235.3h0c0,1.67,1.35,3.02,3.02,3.02h132.71c1.67,0,3.02-1.35,3.02-3.02h0c0-1.67-1.35-3.02-3.02-3.02H78.55c-1.67,0-3.02,1.35-3.02,3.02Z"/>
              <path class="cls-25" d="m75.53,248.38h0c0,1.67,1.35,3.02,3.02,3.02h132.71c1.67,0,3.02-1.35,3.02-3.02h0c0-1.67-1.35-3.02-3.02-3.02H78.55c-1.67,0-3.02,1.35-3.02,3.02Z"/>
            </g>
            <rect class="cls-25" x="231.01" y="166.14" width="58.17" height="85.25" rx="6.35" ry="6.35"/>
            <rect class="cls-25" x="300.25" y="166.14" width="58.17" height="85.25" rx="6.35" ry="6.35"/>
          </g>
        </g>
        <rect class="cls-26" x="192.73" y="283.78" width="48.37" height="68.9"/>
        <path class="cls-23" d="m178.05,350.3h77.74c7.51,0,13.61,6.1,13.61,13.61v1.18h-104.96v-1.18c0-7.51,6.1-13.61,13.61-13.61Z"/>
        <path class="cls-4" d="m368.56,80.85v187.9c0,3.49-2.83,6.32-6.32,6.32H67.66c-.77,0-1.51-.14-2.19-.4L364.63,75c2.31.94,3.93,3.21,3.93,5.85Z"/>
      </g>
      <g>
        <ellipse class="cls-10" cx="71.08" cy="381.51" rx="42.23" ry="6.05"/>
        <g>
          <g>
            <polygon class="cls-9" points="54.5 365.45 54.5 371.75 60.27 371.66 60.65 364.98 54.5 365.45"/>
            <g>
              <path class="cls-15" d="m55.51,371.17s-1.45-1.9-2.58-1.8-9.79,7.14-12.77,7.75c-2.99.61-2.38,2.8-1.82,3.92.56,1.12,23.87-.7,23.87-.7,0,0,.56-6.95-.23-9.07-.79-2.11-4.13.37-6.47-.11h0Z"/>
              <g>
                <path class="cls-3" d="m50.73,376.07c.11.03.22.02.33-.04.2-.12.27-.37.15-.57-.04-.07-.97-1.64-2.21-2.25-1.65-.81-2.91.13-2.97.17-.18.14-.22.4-.08.59.14.18.4.22.59.08.03-.03.92-.66,2.09-.09,1.01.49,1.85,1.91,1.85,1.92.06.1.15.16.25.19Z"/>
                <path class="cls-3" d="m51.97,374.88c.11.03.22.02.33-.04.2-.12.27-.37.15-.57-.04-.07-.97-1.64-2.21-2.25-1.65-.81-2.91.13-2.97.17-.18.14-.22.4-.08.59.14.18.4.22.59.08.03-.03.92-.66,2.09-.09,1.01.5,1.85,1.91,1.85,1.92.06.1.15.16.25.19Z"/>
                <path class="cls-3" d="m49.05,377.05c.11.03.22.02.33-.04.2-.12.27-.37.15-.57-.04-.07-.97-1.64-2.21-2.25-1.65-.81-2.91.13-2.97.17-.18.14-.22.4-.08.59.14.18.4.22.59.08.03-.03.92-.66,2.09-.09,1.01.5,1.85,1.91,1.85,1.92.06.1.15.16.25.19Z"/>
              </g>
            </g>
            <path class="cls-13" d="m69.61,272.34s-.22,3.92-.55,9.65c-.82,13.89-2.35,38.44-3.24,43.97-.92,5.68-.5,24.3-.21,34.06.05,1.65-.58,3.16-1.64,4.26-.39.41-.85.77-1.35,1.05-.86.49-1.85.77-2.91.77h-4.43c-3.33,0-6-2.75-5.9-6.08.25-8.25.55-23.28-.03-34.9-.55-11.05.25-30.61.87-42.8.33-6.43.61-10.81.61-10.81l15.27.68,1.27.06,2.25.1h-.01Z"/>
            <path class="cls-21" d="m67.36,272.24l2.25.1s-.22,3.92-.55,9.65c-5.87.49-12.28.69-18.84.32.33-6.43.61-10.81.61-10.81l15.27.68,1.27.06h0Z"/>
            <path class="cls-21" d="m63.89,342.62c.16,6.24.34,12.68.22,17.88-.03,1.46-.08,2.71-.15,3.78-.39.41-.85.77-1.35,1.05.11-1.24.19-2.83.24-4.86.11-5.17-.06-11.6-.23-17.82-.2-7.6-.39-14.78.02-17.84.9-6.69,2.92-42.95,3.45-52.64l1.27.06c-.53,9.67-2.56,46.01-3.47,52.75-.4,2.96-.21,10.09,0,17.64Z"/>
          </g>
          <g>
            <polygon class="cls-9" points="82.55 365.29 82.78 371.6 88.54 371.29 88.67 364.59 82.55 365.29"/>
            <g>
              <path class="cls-15" d="m85.38,369.89s3.07-.68,3.91-.62c.84.05,6.19,6.6,8.06,7.05,3.41.83,3.17,6.19,1.07,6.36-6.08.5-16.31-2.52-16.31-2.52,0,0-.65-6.93-.14-9.07s1.69-.65,3.4-1.21h0Z"/>
              <g>
                <path class="cls-3" d="m90.12,375.99c-.11.02-.23,0-.32-.08-.19-.14-.23-.4-.09-.59.05-.06,1.14-1.53,2.44-2,1.72-.63,2.88.44,2.93.49.17.16.18.42.02.59-.16.17-.42.18-.59.02-.03-.03-.84-.75-2.07-.31-1.06.38-2.04,1.7-2.05,1.71-.07.09-.16.15-.27.16h0Z"/>
                <path class="cls-3" d="m89.02,374.67c-.11.02-.22,0-.32-.08-.19-.14-.23-.4-.09-.59.05-.06,1.14-1.53,2.44-2,1.72-.63,2.88.44,2.93.49.17.16.18.42.02.59-.16.17-.42.18-.59.02-.03-.03-.84-.75-2.07-.31-1.06.39-2.04,1.7-2.05,1.71-.07.09-.16.15-.27.16h0Z"/>
                <path class="cls-3" d="m91.69,377.14c-.11.02-.22,0-.32-.08-.19-.14-.23-.4-.09-.59.05-.06,1.14-1.53,2.44-2,1.72-.63,2.88.44,2.93.49.17.16.18.42.02.59-.16.17-.42.18-.59.02-.03-.03-.84-.75-2.07-.31-1.06.39-2.04,1.7-2.05,1.71-.07.09-.16.15-.27.16h0Z"/>
              </g>
            </g>
            <path class="cls-13" d="m93.79,325.11c-.58,11.62-.28,26.66-.03,34.9.1,3.33-2.57,6.08-5.9,6.08h-4.43c-.98,0-1.9-.24-2.71-.66-.49-.25-.94-.57-1.34-.95-1.18-1.11-1.9-2.71-1.85-4.47.3-9.75.72-28.38-.2-34.06-.91-5.59-2.47-30.68-3.27-44.46-.32-5.46-.53-9.15-.53-9.15l2.44-.11,1.26-.06,15.09-.67s.17,2.61.39,6.76c.62,11.41,1.7,34.47,1.08,46.85h0Z"/>
            <path class="cls-21" d="m92.71,278.26c-4.1.96-10.7,2.31-18.65,3.23-.32-5.46-.53-9.15-.53-9.15l2.44-.11,1.26-.06,15.09-.67s.17,2.61.39,6.76h0Z"/>
            <path class="cls-21" d="m80.48,360.48c.04,2.09.13,3.71.24,4.96-.49-.25-.94-.57-1.34-.95-.08-1.11-.13-2.43-.17-3.98-.11-5.2.06-11.64.23-17.88.2-7.55.39-14.68-.01-17.64-.91-6.74-2.94-43.09-3.46-52.76l1.26-.06c.53,9.67,2.55,45.95,3.46,52.64.41,3.06.22,10.24.02,17.84-.16,6.22-.34,12.65-.23,17.82h0Z"/>
          </g>
          <g>
            <path class="cls-23" d="m83.5,160.33c0,6.88-4.24,11.63-11.12,11.63s-11.68-5.1-11.68-11.98c0-1.9.31-3.67.91-5.24.03-.09.07-.19.11-.28.07-.18.15-.36.23-.53.12-.27.25-.53.39-.78,1.79-3.22,5.01-5.27,9.32-5.27,8.25,0,11.84,5.57,11.84,12.45Z"/>
            <circle class="cls-23" cx="72.1" cy="149.71" r="7.22"/>
            <g>
              <path class="cls-19" d="m81.96,163.29s1.91-2.55,3.33-.44-.59,8.34-4.07,6.82l.74-6.37h0Z"/>
              <path class="cls-24" d="m81.98,167.74c.13,0,.25-.09.28-.21.54-1.92,2.53-2.7,2.55-2.71.15-.06.23-.23.17-.38-.06-.15-.23-.23-.38-.17-.09.04-2.29.89-2.91,3.1-.04.16.05.32.2.36.03,0,.05,0,.08,0h.01Z"/>
              <path class="cls-24" d="m83.99,166.77c.05,0,.11-.02.16-.05.14-.09.18-.27.09-.41-.01-.02-.37-.56-1.1-.89-.15-.07-.32,0-.39.15s0,.32.15.39c.57.26.85.67.85.67.06.09.15.13.25.13h-.01Z"/>
            </g>
            <g>
              <path class="cls-19" d="m62.25,163.29s-1.91-2.55-3.33-.44c-1.42,2.11.59,8.34,4.07,6.82l-.74-6.37h0Z"/>
              <path class="cls-24" d="m62.23,167.74c-.13,0-.25-.09-.28-.21-.54-1.92-2.53-2.7-2.55-2.71-.15-.06-.23-.23-.17-.38.06-.15.23-.23.38-.17.09.04,2.29.89,2.91,3.1.04.16-.05.32-.2.36-.03,0-.05,0-.08,0h-.01Z"/>
              <path class="cls-24" d="m60.21,166.77s-.11-.02-.16-.05c-.14-.09-.18-.27-.09-.41,0-.02.37-.56,1.1-.89.15-.07.32,0,.39.15s0,.32-.15.39c-.57.26-.85.67-.85.67-.06.09-.15.13-.25.13h.01Z"/>
            </g>
            <path class="cls-9" d="m67.4,174.95v6.19s1.85,3.15,4.34,3.37c2.5.22,4.71-2.72,4.71-2.72v-6.41l-9.06-.44h0Z"/>
            <path class="cls-19" d="m67.4,174.95v2.75c1.68,1.86,4.65,2.32,9.06,1.67v-3.99l-9.06-.44h0Z"/>
            <path class="cls-9" d="m83.09,160.62v.35c0,.3-.02.61-.03.92,0,.16-.01.32-.02.48,0,.16-.02.32-.03.49v.05c0,.14-.02.29-.03.44-.09,1.21-.24,2.48-.47,3.75,0,.03,0,.06-.01.08-.04.21-.08.41-.12.62-.89,4.35-2.76,8.51-6.61,9.88-9.13,3.26-12.39-4.57-13.69-9.13-.12-.41-.23-.87-.32-1.35-.02-.11-.04-.21-.06-.32,0-.03,0-.05,0-.08-.45-2.37-.67-5.31-.79-7.67v-.07c-.13-2.77,1.53-5.33,4.13-6.32,3.74-1.44,9.43-2.58,14.81.47,1.99,1.13,3.24,3.22,3.28,5.5,0,.58.01,1.23,0,1.92h-.03Z"/>
            <path class="cls-23" d="m81.38,166.86c-.25,1.22-.79,2.38-1.46,3.4-1.09-2.62-6.64-.88-6.64-.88h-.03c-.34.11-.69.17-1.03.17s-.72-.06-1.06-.17c0,0-5.48-1.82-6.62.68-1.14-1.76-1.91-3.35-1.91-3.35l-.98.07s0,.06,0,.08c.11.6.24,1.16.39,1.67,1.3,4.56,4.56,12.39,13.69,9.13,4.03-1.44,5.9-5.93,6.73-10.49,0-.03,0-.06.01-.08l-1.11-.23h0Zm-3.89,6.24c-.7.64-1.33,1.1-1.76,1.34-1.37.76-2.72,1.05-3.69,1.01-.96-.04-1.23.16-3.66-1.16-.43-.23-.86-.57-1.29-.98h0c-.11-.66-1.17-3.82,5.12-2.74,6.27-.85,5.29,2.53,5.29,2.53h0Z"/>
            <path class="cls-23" d="m76.02,164.1c0,.66.34,1.2.76,1.2s.76-.54.76-1.2-.34-1.2-.76-1.2-.76.54-.76,1.2Z"/>
            <path class="cls-23" d="m67.05,164.07c0,.66.34,1.2.76,1.2s.76-.54.76-1.2-.34-1.2-.76-1.2-.76.54-.76,1.2Z"/>
            <path class="cls-23" d="m65.33,159.96s2.4-.95,4.25-.15l-.18,1.03s-2.71-.23-4.08.32c-.12-.4-.14-.8.02-1.2h0Z"/>
            <path class="cls-23" d="m79.32,159.96s-2.4-.95-4.25-.15l.18,1.03s2.71-.23,4.08.32c.12-.4.14-.8-.02-1.2h0Z"/>
            <path class="cls-19" d="m72,169.11c-.5,0-.99-.19-1.06-.22-.15-.06-.22-.23-.16-.38.06-.15.23-.22.38-.16.27.11.9.28,1.18.11.05-.03.13-.1.14-.27.11-1.03-.17-4.47-.18-4.51-.01-.16.11-.3.27-.32.16,0,.3.11.32.27.01.14.29,3.53.18,4.61-.04.41-.26.62-.43.72-.19.11-.41.15-.64.15h0Z"/>
            <path class="cls-3" d="m75.95,171.36c-.49,1.7-1.88,3.39-3.79,3.41-1.91-.02-3.3-1.72-3.79-3.41h7.59,0Z"/>
            <path class="cls-23" d="m83.09,160.62v.35c0,.3-.02.61-.03.92,0,.16-.01.32-.02.48,0,.16-.02.32-.03.49v.05c0,.14-.02.29-.03.44-.09,1.21-.24,2.48-.47,3.75,0,.03,0,.06-.01.08-.04.21-.08.41-.12.62l-1.01-.76c.06-.66.58-4.95.5-5.36-.29-1.42-1.99-2.94-1.6-4.31.39-1.38.98-3.15-.09-3.39-1.06-.25-5.45-.29-8.19-.2-2.71.09-6.62-.44-8.19.79-1.57,1.22,2.93,3.68-.54,4.74-1.1.34-.72,6.07-.57,7.41l-.94.47c-.02-.11-.04-.21-.06-.32,0-.03,0-.05,0-.08-.45-2.37-.67-5.31-.79-7.67v-.07c-.13-2.77,1.53-5.33,4.13-6.32,3.74-1.44,9.43-2.58,14.81.47,1.99,1.13,3.24,3.22,3.28,5.5,0,.58.01,1.23,0,1.92h-.02Z"/>
          </g>
          <g>
            <path class="cls-15" d="m97.21,274.43c-4.02,1.01-8.04,1.78-12.06,2.32-2.21.3-4.43.52-6.65.67-3.23.22-6.45.28-9.67.19-1.95-.06-3.9-.17-5.85-.34-.36-.03-.72-.06-1.08-.1-1.08-.11-2.17-.23-3.25-.37h0c-4.16-.54-8.32-1.33-12.48-2.38-.08-5.68-.16-26.55.18-45.8.02-1.1.04-2.2.06-3.29.03-1.59.07-3.17.11-4.72,0-.2,0-.4,0-.6,0-.27,0-.54.02-.8.03-1.26.07-2.5.11-3.72,0-.4.02-.81.04-1.2v-.14c0-.39.03-.77.04-1.15.38-10.8.98-19,1.89-20.27.64-.88,1.92-1.89,3.54-2.95,1.62-1.05,3.57-2.16,5.56-3.23h0c1.34-.73,2.69-1.44,3.96-2.1.82-.44,1.61-.85,2.34-1.25,1.43-.77,2.62-1.45,3.39-1.99h.01c.3.48,2.03,3.1,4.3,3.3,2.5.22,4.72-2.72,4.72-2.72v-.56c1.15.8,3.13,1.89,5.37,3.1,1.36.73,2.81,1.52,4.23,2.32,3.49,1.96,6.8,4.03,8.02,5.69,1.01,1.39,1.72,11.22,2.2,23.69.01.34.02.69.04,1.03.81,21.65.97,50.59.9,57.36h0Z"/>
            <path class="cls-3" d="m81.83,184.34c-.68,3.63-1.14,8.75-1.51,14.5-.02.26-.04.53-.05.79-.55,8.67-.91,18.63-1.51,26.88-.31,4.27-.45,10.69-.5,17.82h0v1.8c-.01,2.59,0,5.26,0,7.93v1.01c.03,8.01.15,16.04.25,22.35-3.23.22-6.45.28-9.67.19-1.95-.05-3.9-.16-5.85-.33-.09-4.31.02-9.99.23-16.25,0-.26.02-.53.03-.8.61-17.23,1.98-38.5,2.17-47.49.22-10.39-2.41-22.8-3.72-28.28.82-.43,1.61-.85,2.34-1.24,1.44-.78,2.64-1.46,3.41-2,.29.47,2.03,3.1,4.3,3.3,2.5.22,4.71-2.72,4.71-2.72v-.56c1.15.8,3.13,1.89,5.37,3.1h0Z"/>
            <path class="cls-28" d="m78.26,255.07c-3.62,2.8-8.53,5.22-15.03,5.96,0-.26.02-.53.03-.8,6.57-.77,11.45-3.3,15-6.17v1.01Z"/>
            <path class="cls-28" d="m78.26,244.33v1.8c-.23.41-.51.85-.82,1.29-1.59,2.26-4.59,5.26-9.88,6.69-.03,0-.07,0-.1,0-.17,0-.33-.12-.38-.29-.06-.21.07-.43.28-.48,6.88-1.86,9.8-6.49,10.92-9.02h-.02Z"/>
            <path class="cls-28" d="m80.32,198.83c-.02.26-.04.53-.05.79-4.99-.88-8.91-3.09-11.5-4.97-3.45-2.52-5.28-4.95-5.36-5.06-.13-.17-.09-.42.08-.55.17-.13.42-.09.55.08.06.09,5.97,7.84,16.28,9.71Z"/>
            <path class="cls-22" d="m65.42,212.74c-.19,8.99-1.55,30.26-2.17,47.49,0,.27-.02.54-.03.8-.22,6.26-.33,11.94-.23,16.25h0c-.36-.03-.72-.06-1.08-.1-1.08-.11-2.17-.23-3.25-.37.55-13.89,2.1-52.27,2.83-60.11.69-7.42-2.34-23.29-3.75-30.14h0c1.34-.73,2.69-1.44,3.96-2.1.82-.44,1.61-.85,2.34-1.25,1.43-.77,2.62-1.45,3.39-1.99h.01c-3.79,5.83-1.8,21.14-2.02,31.52h0Z"/>
            <path class="cls-22" d="m85.16,276.75v.06c-1.45.19-2.89.34-4.34.46l-2.31.14-.22-17.38c-.61-17.23.3-38.31.11-47.3-.22-10.38,1.84-25.66-1.94-31.5h0c1.15.8,3.13,1.88,5.37,3.09,1.36.73,2.81,1.52,4.23,2.32-1.42,6.89-4.43,22.66-3.74,30.05.73,7.83,2.28,46.1,2.83,60.04v.02Z"/>
          </g>
          <g>
            <g>
              <path class="cls-9" d="m112.06,283.6c.21,2.26-2.55,1.03-1.77-3.55.78-4.58-1.43-8.73-2.38-8.6s.79,5-.06,6.76c-.85,1.75-1.94-1.65-3.03-3.72-1.13-2.15-1.06-6.83-.55-10.18.51-3.35-5.55-23.66-5.58-29.54l-.74-2.5-2.7-9.14-4.23-14.31s2.54-10.83,6.81-9.9c0,0,2.26,7.54,4.68,16.05.41,1.44.82,2.92,1.23,4.38,1.72,6.17,3.34,12.26,4.1,15.87,1.99,9.54,2.14,29.37,2.14,29.37,0,0,3.51,7.28,3.59,10.53.09,3.46-1.73,6.21-1.52,8.47h0Z"/>
              <path class="cls-19" d="m103.75,219.37l-5.79,12.91-2.7-9.14,7.26-8.16c.41,1.44.82,2.92,1.23,4.38h0Z"/>
            </g>
            <path class="cls-15" d="m104.03,215.52c-2.54,4.36-5.12,8.69-7.7,13.03-.85-2.84-1.73-5.56-2.55-8.07v-.02c-.33-1-.65-1.97-.96-2.89,0-.02,0-.03-.02-.05-.11-.32-.21-.64-.32-.96h0c-1.23-3.72-2.18-6.67-2.45-8.39-.73-4.63.98-12.85,3.53-15.19l.29-.22c.16-.1.23-.25.41-.06.87.89,2.97,3.9,4.06,6.65.14.35.28.71.43,1.09,1.57,4.05,3.5,9.31,5.28,15.07h0Z"/>
          </g>
          <path class="cls-22" d="m96.72,231.11c-.84-3.46-1.89-7.31-2.94-10.63v-.02c-.32-1.03-.64-2-.96-2.89,0-.02,0-.03-.02-.05-.1-.28-.2-.55-.29-.82-.01-.05-.02-.09-.02-.14h0c0-.16.1-.31.26-.37.21-.07.43.03.51.24,1.07,2.92,2.33,7.12,3.42,11.24.02,1.14.04,2.29.05,3.44h-.01Z"/>
          <path class="cls-29" d="m49.96,216.57h0s0,.09-.02.14c-.1.26-.2.54-.29.82,0,0,0,.03-.02.05-.32.89-.64,1.86-.96,2.89v.02c-.8,2.54-1.61,5.4-2.31,8.15.02-1.1.04-2.2.06-3.29.92-3.33,1.92-6.54,2.79-8.9.07-.21.3-.31.51-.23.16.06.26.21.26.37l-.02-.02Z"/>
          <g>
            <path class="cls-9" d="m30.87,225.61h0c2.24-4.78,17.51-32.49,17.51-32.49,2.9,1.73-1.9,28.98-1.9,28.98l-6.1,15.57c-1.4,3.68-5.75,5.22-9.16,3.26-.06-.03-.12-.07-.18-.1-5.88-3.49-.17-15.22-.17-15.22h0Z"/>
            <path class="cls-15" d="m48.38,193.12l-14.1,20.21s5.65,12.31,12.13,11.85c0,0,7.4-25.12,1.97-32.05h0Z"/>
            <g>
              <polygon class="cls-13" points="30.51 212.84 30.69 214.9 30.99 218.36 31.05 219.02 31.31 221.97 31.59 225.17 31.6 225.32 31.92 229 32.2 232.27 32.56 236.33 43.84 236.33 43.92 235.4 44.26 231.45 44.47 229.07 44.81 225.17 44.82 225.11 45.03 222.74 45.35 219.02 45.37 218.76 45.58 216.4 45.89 212.84 30.51 212.84"/>
              <polygon class="cls-3" points="31.05 219.02 31.31 221.97 31.59 225.17 44.81 225.17 44.82 225.11 45.03 222.74 45.35 219.02 31.05 219.02"/>
              <g>
                <rect class="cls-21" x="29.73" y="209.85" width="16.95" height="3"/>
                <path class="cls-13" d="m45.4,209.84h-14.4v-1.07c0-.82.66-1.48,1.48-1.48h11.44c.82,0,1.48.66,1.48,1.48v1.07h0Z"/>
              </g>
            </g>
            <path class="cls-9" d="m30.13,214.99s2.14.14,5.2.86c1.56.36,4.94,2.4,3.49,3.15-1.14.59-6.26-.84-7.27-.37,0,0,2.42.5,4.48.81,1.86.29,4.74,1.37,3.62,1.97-1.06.56-3.71.33-4.66.36-1.26.03-2.85,0-2.85,0,0,0,2,.33,4.37,1.05,1.08.33,4.2.64,3.21,2.05-.5.71-4.71.2-6.82.39,0,0,3.89.66,5.02,1.72.89.84-.32.95-1.9,1.06-2.03.15-2.65,0-3.88,0s-3.3-.87-3.35-2.14c-.04-1.26.66-1.79.44-2.59-.22-.79-.73-2.01-.44-2.7.29-.7.2-1.28-.09-2.19-.28-.89.22-3.07,1.41-3.44h.02Z"/>
          </g>
        </g>
      </g>
      <g>
        <ellipse class="cls-10" cx="368.54" cy="381.51" rx="42.23" ry="6.05"/>
        <g>
          <g>
            <path class="cls-9" d="m383.34,197.87l7.36,24.87.14.46v.36c.25,6.17,5.93,25.3,5.44,28.5-.5,3.27-.57,7.84.54,9.94,1.06,2.02,2.13,5.35,2.96,3.64.83-1.72-.87-6.47.06-6.6s3.09,3.92,2.33,8.4c-.76,4.47,1.93,5.67,1.73,3.47-.2-2.21,1.57-4.9,1.48-8.27-.08-3.17-3.51-10.28-3.51-10.28,0,0-.15-19.37-2.09-28.69s-8.63-35.64-8.63-35.64c-4.18-.91-7.8,9.84-7.8,9.84h-.01Z"/>
            <path class="cls-19" d="m390.82,221.6l.13.45v.35c1.35-.47,2.66-.86,3.61-1.04.21-.04.36-.25.32-.47-.04-.22-.25-.36-.47-.32-.97.18-2.27.57-3.61,1.02h.02Z"/>
          </g>
          <g>
            <path class="cls-9" d="m366.94,288.71c-.02,5.79-.1,11.03-.24,15.79-1.04,36.37-5.08,48.24-6.94,68.06-2.1.92-4.09,1.09-5.87,0l-1.02-65.26-.29-18.59h14.36Z"/>
            <path class="cls-19" d="m366.94,288.71c-.02,5.79-.1,11.03-.24,15.79-1.51-.56-3.22-.87-5.54-.04-3.88,1.4-4.9,2.83-8.3,2.84l-.29-18.59h14.37Z"/>
            <g>
              <path class="cls-13" d="m355.04,372.44s-1.23-1.73-2.24-1.68c-1.01.05-8.93,6.07-11.61,6.52s-2.2,2.43-1.74,3.44c.47,1.01,21.28.09,21.28.09,0,0,.71-6.17.07-8.08-.64-1.91-3.69.21-5.76-.29h0Z"/>
              <g>
                <path class="cls-3" d="m350.65,376.67c.09.03.2.02.29-.03.18-.1.25-.32.15-.51-.03-.06-.82-1.49-1.9-2.07-1.44-.77-2.6.03-2.65.07-.17.12-.21.35-.09.52.12.17.35.21.52.09.03-.02.84-.56,1.86-.01.88.47,1.59,1.75,1.59,1.77.05.09.13.15.21.18h.02Z"/>
                <path class="cls-3" d="m351.78,375.64c.09.03.2.02.29-.03.18-.1.25-.32.15-.51-.03-.06-.82-1.49-1.9-2.07-1.44-.77-2.6.03-2.65.07-.17.12-.21.35-.09.52.12.17.35.21.52.09.03-.02.84-.56,1.86-.01.89.47,1.59,1.75,1.59,1.77.05.09.13.15.21.18h.02Z"/>
                <path class="cls-3" d="m349.12,377.49c.09.03.2.02.29-.03.18-.1.25-.33.15-.51-.03-.06-.82-1.49-1.9-2.07-1.44-.77-2.6.03-2.65.07-.17.12-.21.35-.09.52.12.17.35.21.52.09.03-.02.84-.56,1.86-.01.89.47,1.59,1.75,1.59,1.77.05.09.13.15.21.18h.02Z"/>
              </g>
            </g>
          </g>
          <g>
            <path class="cls-9" d="m387.39,288.71l-.24,15.2-1.07,68.53-5.21.27c-1.85-19.71-6.55-30.6-7.61-66.48-.16-5.23-.25-11.03-.26-17.52h14.39,0Z"/>
            <path class="cls-19" d="m387.39,288.71l-.24,15.2c-1.63-.09-3.74.04-5.94.84-3.08,1.12-5.75,1.52-7.95,1.48-.16-5.23-.25-11.03-.26-17.52h14.39Z"/>
            <g>
              <path class="cls-13" d="m382.86,371.92s2.7-.77,3.45-.77,5.87,5.52,7.57,5.82c3.08.54,3.17,5.33,1.31,5.6-5.38.79-14.65-1.32-14.65-1.32,0,0-.97-6.12-.63-8.06.33-1.93,1.46-.67,2.96-1.27h-.01Z"/>
              <g>
                <path class="cls-3" d="m387.43,377.08c-.1.02-.2,0-.29-.05-.17-.11-.22-.34-.11-.52.04-.06.93-1.43,2.05-1.92,1.5-.66,2.59.23,2.63.27.16.13.18.37.05.53s-.37.18-.53.05c-.03-.02-.79-.62-1.86-.16-.92.4-1.72,1.63-1.72,1.64-.05.08-.14.14-.23.16h.01Z"/>
                <path class="cls-3" d="m386.37,375.97c-.1.02-.2,0-.29-.05-.17-.11-.22-.34-.11-.52.04-.06.93-1.43,2.05-1.92,1.5-.66,2.59.23,2.63.27.16.13.18.37.05.53s-.37.18-.53.05c-.03-.02-.79-.62-1.86-.16-.92.4-1.72,1.63-1.72,1.64-.05.08-.14.14-.23.16h.01Z"/>
                <path class="cls-3" d="m388.89,378.02c-.1.02-.2,0-.29-.05-.17-.11-.22-.34-.11-.52.04-.06.93-1.43,2.05-1.92,1.5-.66,2.59.23,2.63.27.16.13.18.37.05.53s-.37.18-.53.05c-.03-.02-.79-.62-1.86-.16-.92.4-1.72,1.63-1.72,1.64-.05.08-.14.14-.23.16h.01Z"/>
              </g>
            </g>
          </g>
          <g>
            <path class="cls-15" d="m397.75,298.09s-.07.25-.28.62c-.73,1.32-3.17,4.1-10.07,2.23-.22-.06-.44-.11-.65-.16-1.44-.33-2.62-.36-3.68-.25-4.01.44-6.34,3.07-14.53.7-7.38-2.14-9.3-.25-12.73.78-.68.2-1.41.37-2.26.47-.41.05-.81.06-1.22.05-3.22-.07-6.31-1.81-8.17-3.09-1.1-.76-1.76-1.36-1.76-1.36.16-.61.32-1.27.48-1.96.62-2.67,1.25-5.91,1.87-9.45.19-1.06.37-2.15.56-3.26.45-2.69.89-5.48,1.31-8.28h0v-.05c.18-1.16.35-2.31.51-3.46,0-.05.02-.11.02-.16.54-3.69,1.04-7.29,1.47-10.55.17-1.25.32-2.44.47-3.57.81-6.21,1.32-10.5,1.32-10.5l19.65.74,19.59-.74s.26,2.17.7,5.65c.14,1.09.3,2.32.47,3.65.46,3.49,1.03,7.7,1.66,12.16.17,1.16.34,2.34.51,3.53,1.23,8.33,2.65,17.04,4.01,23.21.24,1.1.48,2.12.72,3.04h.03Z"/>
            <g>
              <path class="cls-18" d="m354.95,252.73c0,1.02-.83,1.85-1.85,1.85s-1.85-.83-1.85-1.85.83-1.85,1.85-1.85,1.85.83,1.85,1.85Z"/>
              <path class="cls-18" d="m359.53,259.89c0,1.02-.83,1.85-1.85,1.85s-1.85-.83-1.85-1.85.83-1.85,1.85-1.85,1.85.83,1.85,1.85Z"/>
              <path class="cls-18" d="m368.54,256.19c0,1.02-.83,1.85-1.85,1.85s-1.85-.83-1.85-1.85.83-1.85,1.85-1.85,1.85.83,1.85,1.85Z"/>
              <path class="cls-18" d="m354.31,267.48c0,1.02-.83,1.85-1.85,1.85s-1.85-.83-1.85-1.85.83-1.85,1.85-1.85,1.85.83,1.85,1.85Z"/>
              <path class="cls-18" d="m365.58,266.69c0,1.02-.83,1.85-1.85,1.85s-1.85-.83-1.85-1.85.83-1.85,1.85-1.85,1.85.83,1.85,1.85Z"/>
              <path class="cls-18" d="m350.31,259.08c0,.96-.73,1.75-1.67,1.84.17-1.25.32-2.44.47-3.57.7.26,1.2.94,1.2,1.73Z"/>
              <path class="cls-18" d="m383.94,277.54c0,1.02-.83,1.85-1.85,1.85s-1.85-.83-1.85-1.85.83-1.85,1.85-1.85,1.85.83,1.85,1.85Z"/>
              <circle class="cls-18" cx="381.22" cy="267.48" r="1.85"/>
              <path class="cls-18" d="m393.02,271.84c-.22.09-.47.15-.72.15-1.02,0-1.85-.83-1.85-1.85s.83-1.85,1.85-1.85c.07,0,.14,0,.21.01.17,1.16.34,2.34.51,3.53h0Z"/>
              <path class="cls-18" d="m384.91,284.91c0,1.02-.83,1.85-1.85,1.85s-1.85-.83-1.85-1.85.83-1.85,1.85-1.85,1.85.83,1.85,1.85Z"/>
              <path class="cls-18" d="m392.81,281.97c0,1.02-.83,1.85-1.85,1.85s-1.85-.83-1.85-1.85.83-1.85,1.85-1.85,1.85.83,1.85,1.85Z"/>
              <path class="cls-18" d="m376.7,288.71c0,1.02-.83,1.85-1.85,1.85s-1.85-.83-1.85-1.85.83-1.85,1.85-1.85,1.85.83,1.85,1.85Z"/>
              <path class="cls-18" d="m374.51,296.88c0,1.02-.83,1.85-1.85,1.85s-1.85-.83-1.85-1.85.83-1.85,1.85-1.85,1.85.83,1.85,1.85Z"/>
              <path class="cls-18" d="m355.84,301.72c0,.1,0,.2-.02.29-.68.2-1.41.37-2.26.47-.41.05-.81.06-1.22.05-.12-.25-.19-.52-.19-.82,0-1.02.83-1.85,1.85-1.85s1.85.82,1.85,1.85h-.01Z"/>
              <path class="cls-18" d="m386.76,300.69v.09c-1.44-.33-2.62-.36-3.68-.25.08-.95.87-1.69,1.84-1.69,1.02,0,1.85.82,1.85,1.85h-.01Z"/>
              <circle class="cls-18" cx="391.32" cy="291.46" r="1.85"/>
              <path class="cls-18" d="m397.75,298.09s-.07.25-.28.62c-.09.01-.18.02-.27.02-1.02,0-1.85-.83-1.85-1.85,0-.96.74-1.75,1.68-1.84.24,1.1.48,2.12.72,3.04h0Z"/>
              <path class="cls-18" d="m353.1,279.15c0,1.02-.83,1.85-1.85,1.85s-1.85-.83-1.85-1.85.83-1.85,1.85-1.85,1.85.83,1.85,1.85Z"/>
              <path class="cls-18" d="m348.23,273.32c0,.94-.7,1.71-1.61,1.83v-.05c.18-1.16.35-2.31.51-3.46.64.29,1.08.93,1.08,1.68h.02Z"/>
              <path class="cls-18" d="m346.07,284.91c0,.83-.55,1.54-1.32,1.77.19-1.06.37-2.15.56-3.26.46.34.76.88.76,1.49h0Z"/>
              <path class="cls-18" d="m357.68,285.69c0,1.02-.83,1.85-1.85,1.85s-1.85-.83-1.85-1.85.83-1.85,1.85-1.85,1.85.83,1.85,1.85Z"/>
              <path class="cls-18" d="m367.43,284.25c0,1.02-.83,1.85-1.85,1.85s-1.85-.83-1.85-1.85.83-1.85,1.85-1.85,1.85.83,1.85,1.85Z"/>
              <path class="cls-18" d="m360.47,275.17c0,1.02-.83,1.85-1.85,1.85s-1.85-.83-1.85-1.85.83-1.85,1.85-1.85,1.85.83,1.85,1.85Z"/>
              <path class="cls-18" d="m370.39,273.32c0,1.02-.83,1.85-1.85,1.85s-1.85-.83-1.85-1.85.83-1.85,1.85-1.85,1.85.83,1.85,1.85Z"/>
              <path class="cls-18" d="m374.85,263.58c0,1.02-.83,1.85-1.85,1.85s-1.85-.83-1.85-1.85.83-1.85,1.85-1.85,1.85.83,1.85,1.85Z"/>
              <path class="cls-18" d="m390.85,256.15c-.13.03-.26.04-.4.04-1.02,0-1.85-.83-1.85-1.85s.78-1.81,1.77-1.84c.14,1.09.3,2.32.47,3.65h.01Z"/>
              <path class="cls-18" d="m381.22,256.19c0,1.02-.83,1.85-1.85,1.85s-1.85-.83-1.85-1.85.83-1.85,1.85-1.85,1.85.83,1.85,1.85Z"/>
              <path class="cls-18" d="m387.98,262.77c0,1.02-.83,1.85-1.85,1.85s-1.85-.83-1.85-1.85.83-1.85,1.85-1.85,1.85.83,1.85,1.85Z"/>
              <path class="cls-18" d="m376.7,279.15c0,1.02-.83,1.85-1.85,1.85s-1.85-.83-1.85-1.85.83-1.85,1.85-1.85,1.85.83,1.85,1.85Z"/>
              <path class="cls-18" d="m351.25,291.86c0,1.02-.83,1.85-1.85,1.85s-1.85-.83-1.85-1.85.83-1.85,1.85-1.85,1.85.83,1.85,1.85Z"/>
              <path class="cls-18" d="m363.73,293.31c0,1.02-.83,1.85-1.85,1.85s-1.85-.83-1.85-1.85.83-1.85,1.85-1.85,1.85.83,1.85,1.85Z"/>
              <path class="cls-18" d="m344.9,297.97c0,.6-.29,1.14-.73,1.48-1.1-.76-1.76-1.36-1.76-1.36.16-.61.32-1.27.48-1.96h.17c1.02,0,1.85.83,1.85,1.85h-.01Z"/>
            </g>
            <path class="cls-13" d="m390.86,247.33c-10.33,6.75-29.31,6.22-41.24,0,1.14-7.1,2.64-14.2,2.32-23.64-.04-1.04-.08-2.06-.13-3.08-.05-.89-.1-1.77-.15-2.64-1.03-15.71-3.71-28.56-2.39-30.22.57-.73,1.53-1.51,2.72-2.31.46-.32.96-.64,1.49-.96,1.24-.75,2.61-1.52,3.99-2.26,3.28-1.75,6.61-3.37,8.27-4.48,1.65.72,2.97,1.12,4.39,1.11h.24c1.42,0,2.74-.39,4.39-1.11,1.55,1.03,4.46,2.46,7.43,4.03,2.18,1.15,4.4,2.37,6.13,3.56,1.13.77,2.05,1.54,2.62,2.25.65.82.38,4.43-.18,9.78-.55,5.26-1.38,12.2-1.88,19.84-.14,2.12-.25,4.29-.33,6.5-.32,9.44,1.18,16.55,2.32,23.64h-.01Z"/>
            <path class="cls-14" d="m383.61,239.94h0c-8.32-.04-15.43-3.82-19.92-6.99-4.86-3.43-7.81-6.9-7.83-6.94-.14-.17-.12-.42.05-.56.17-.14.42-.12.56.05.03.03,2.92,3.44,7.7,6.81,4.4,3.1,11.34,6.8,19.44,6.83.22,0,.4.18.4.4s-.18.4-.4.4h0Z"/>
            <path class="cls-14" d="m374.94,242.77c-7.22,0-14.42-4.12-14.75-4.3-.19-.11-.26-.36-.15-.55.11-.19.36-.26.55-.15.08.05,8.56,4.89,16.07,4.11.22-.03.42.14.44.36s-.14.42-.36.44c-.6.06-1.2.09-1.8.09h0Z"/>
            <path class="cls-14" d="m368.54,197.98c-.19,0-.36-.13-.39-.33-.04-.22.1-.43.32-.47,10.15-1.93,13.2-8.45,13.23-8.52.09-.2.33-.29.53-.2s.29.33.2.53c-.13.28-3.26,6.97-13.81,8.98h-.08Z"/>
            <path class="cls-9" d="m382.19,181.77c-2.01,4.59-6.75,10.82-13.18,9.71-6.23-1.08-9.41-5.85-11.55-9.26,3.28-1.75,6.61-3.37,8.27-4.48,1.65.72,2.97,1.11,4.39,1.11h.24c1.42,0,2.74-.39,4.39-1.11,1.55,1.03,4.46,2.46,7.43,4.03h0Z"/>
          </g>
          <g>
            <path class="cls-23" d="m380.66,145.8s4.87,7.55,4.34,15.41.72,16.93-6.31,16.53c-7.03-.4-19.58,2.82-23.56-3.3-3.99-6.12,25.54-28.64,25.54-28.64h-.01Z"/>
            <g>
              <g>
                <path class="cls-19" d="m360.01,159.62s-1.94-2.59-3.38-.45.6,8.46,4.13,6.92l-.75-6.47Z"/>
                <path class="cls-24" d="m359.99,164.14c-.13,0-.25-.09-.29-.22-.55-1.95-2.57-2.74-2.59-2.75-.15-.06-.23-.23-.17-.39.06-.15.23-.23.38-.17.09.04,2.32.9,2.95,3.15.04.16-.05.32-.21.37-.03,0-.05,0-.08,0h0Z"/>
                <path class="cls-24" d="m357.95,163.16c-.06,0-.11-.02-.16-.05-.14-.09-.18-.27-.09-.41.01-.02.37-.57,1.12-.9.15-.07.33,0,.39.15.07.15,0,.33-.15.39-.58.26-.86.68-.86.68-.06.09-.15.14-.25.14h0Z"/>
              </g>
              <g>
                <path class="cls-19" d="m380.02,159.62s1.94-2.59,3.38-.45-.6,8.46-4.13,6.92l.75-6.47Z"/>
                <path class="cls-24" d="m380.04,164.14c.13,0,.25-.09.29-.22.55-1.95,2.57-2.74,2.59-2.75.15-.06.23-.23.17-.39-.06-.15-.23-.23-.38-.17-.09.04-2.32.9-2.95,3.15-.04.16.05.32.21.37.03,0,.05,0,.08,0h0Z"/>
                <path class="cls-24" d="m382.08,163.16c.06,0,.11-.02.16-.05.14-.09.18-.27.09-.41-.01-.02-.37-.57-1.12-.9-.15-.07-.33,0-.39.15-.07.15,0,.33.15.39.58.26.86.68.86.68.06.09.15.14.25.14h0Z"/>
              </g>
              <path class="cls-9" d="m374.79,171.46v6.29s-1.87,3.2-4.41,3.42c-2.53.22-4.78-2.76-4.78-2.76v-6.51l9.19-.44Z"/>
              <path class="cls-19" d="m374.79,171.46v2.79c-1.7,1.89-4.72,2.56-9.19,1.9v-4.24l9.19-.44h0Z"/>
              <path class="cls-9" d="m381.42,155.31c-.12,2.44-.35,5.5-.82,7.94-.12.61-.25,1.18-.39,1.7-1.32,4.63-4.63,12.58-13.9,9.27-4.09-1.46-5.99-6.02-6.83-10.65-.57-3.15-.66-6.33-.62-8.6.04-2.32,1.31-4.44,3.33-5.58,5.47-3.1,11.24-1.94,15.04-.48,2.64,1.01,4.32,3.6,4.19,6.42v-.02Z"/>
              <path class="cls-23" d="m365.93,159.99c0,.67-.35,1.21-.77,1.21s-.77-.54-.77-1.21.35-1.22.77-1.22.77.54.77,1.22Z"/>
              <path class="cls-23" d="m375.47,159.99c0,.67-.35,1.21-.77,1.21s-.77-.54-.77-1.21.35-1.22.77-1.22.77.54.77,1.22Z"/>
              <path class="cls-23" d="m363.63,156.38c.64-.18,1.94-.49,3.3-.49.36,0,.64.32.57.67h0c-.05.29-.3.49-.59.48-.93-.04-3.37.09-4.52.55-.02-.2.09-.42.26-.61.25-.3.6-.49.98-.6h0Z"/>
              <path class="cls-23" d="m376.11,156.4c-.64-.18-1.94-.49-3.3-.49-.36,0-.64.32-.57.67h0c.05.29.3.49.59.48.93-.04,3.37.09,4.52.55.02-.2-.1-.42-.26-.61-.25-.3-.6-.49-.98-.6h0Z"/>
              <path class="cls-19" d="m370.12,165.54c-.23,0-.46-.04-.65-.15-.17-.1-.39-.32-.43-.73-.11-1.1.17-4.54.18-4.68.01-.16.16-.29.32-.27.16,0,.29.16.27.32,0,.04-.29,3.53-.18,4.57.02.18.09.25.15.28.28.17.93,0,1.2-.11.15-.06.33,0,.39.16.06.15-.01.33-.16.39-.08.03-.58.23-1.08.23h-.01Z"/>
              <path class="cls-3" d="m366.33,167.42c.23,1.14.98,3.23,3.5,3.23s3.24-1.91,3.49-3.23h-6.99Z"/>
              <path class="cls-19" d="m369.79,172.39c-.73,0-1.37-.39-1.4-.41-.14-.09-.18-.27-.1-.41.09-.14.27-.18.41-.1h0s.53.32,1.09.32c.6,0,1.14-.32,1.15-.32.14-.08.32-.04.41.1.08.14.04.32-.1.41-.03.02-.68.41-1.46.41Z"/>
            </g>
            <path class="cls-23" d="m382.62,154.83c-.1.27-.36.45-.72.55.03.66-.04,1.45-.11,2.21-.37,4.32-1.46,5.07-1.7,4.01-.16-.71-.15-4.77-.07-6.1-.85-.06-1.58-.2-1.58-.2l-1-4.19-.35,4.14c-1.5.52-5.01-.31-5.01-.31l-1.18-4.13-.73,3.97c-2.25,1.1-5.07.37-5.07.37l-.65-4.29-1.49,4.29s-4.81,1.72-4.86,0c-.03-1,.7-3.83,1.32-6.02.68-2.39,2.24-4.4,4.36-5.54,5.96-3.2,12.26-1.5,14.43-.21,4.58,2.74,4.4,11.45,4.4,11.45h.01Z"/>
            <path class="cls-23" d="m360.9,146.12s-4.09,4.7-5.4,13.11-3.1,14.61,1.96,17.39c5.48,3,6.54-2.11,6.46-3.78-.08-1.67-6.27-7.29-3.16-20.18,1-4.16.14-6.53.14-6.53h0Z"/>
            <path class="cls-3" d="m381.49,166.24c0,.39-.31.7-.7.7s-.7-.31-.7-.7.31-.7.7-.7.7.31.7.7Z"/>
          </g>
          <path class="cls-9" d="m351.66,217.97c-1.03-15.71-3.71-28.56-2.39-30.22.57-.73,1.53-1.51,2.72-2.31,1.21,5.65,4.25,22.66-.32,32.53h0Z"/>
          <path class="cls-9" d="m390.76,197.35c-.55,5.26-1.38,12.2-1.88,19.84-4.05-9.84-1.76-26.15-.56-31.86,1.13.77,2.05,1.54,2.62,2.25.65.82.38,4.43-.18,9.78h0Z"/>
          <g>
            <g>
              <path class="cls-9" d="m353.9,204.49l-4.56,14.64-4.99,13.92c-.8,2.91-4.02,4.41-6.77,3.16-.05-.02-.1-.04-.14-.06-4.75-2.25-2.13-11.56-2.13-11.56l.9-.07c.37-1.02,1.35-3.62,2.61-6.89.15-.4.31-.82.47-1.23.27-.69.54-1.41.82-2.15.4-1.04.81-2.11,1.23-3.19,3.08-7.98,5.63-16.64,5.63-16.64l2.12-6.31,4.81,16.38h0Z"/>
              <path class="cls-19" d="m341.1,227.57h-.06c-.18,0-.34-.13-.37-.31-.69-4.41-1.39-7.67-1.86-9.63.15-.4.31-.81.47-1.23.43,1.72,1.28,5.39,2.13,10.74.03.2-.11.4-.31.43h0Z"/>
              <path class="cls-9" d="m340.42,227.78s-.65-10.61-2.92-12.86c-2.26-2.26-4.33-3.12-6.45-3.04-2.12.08-4.12.34-3.99,1.21,0,0-4.88-.74-7.05.53-2.18,1.26,6.45,2.37,9.01,2.44s3.91,1.5,4.02,3.02c.1,1.53,1.58,11.63,1.58,11.63l5.8-2.93h0Z"/>
            </g>
            <g>
              <path class="cls-26" d="m343,213.78l-32.32.22c-1.22,0-2.21-.97-2.22-2.19v-.02c0-1.22.97-2.21,2.19-2.22l32.32-.22c1.22,0,2.21.97,2.22,2.19v.02c0,1.22-.97,2.21-2.19,2.22Z"/>
              <path class="cls-23" d="m308.49,214.01l-7.08-25.8c-.4-1.45.69-2.88,2.19-2.89l15.19-.1c1.02,0,1.93.67,2.21,1.65l7.78,27.01-20.3.14h0Z"/>
              <path class="cls-26" d="m321,186.87l7.72,26.78h1.74l-7.72-26.79c-.29-.99-1.19-1.66-2.21-1.65h-1.74c1.03,0,1.93.68,2.21,1.67h0Z"/>
              <path class="cls-26" d="m317.19,200.75c.41,1.7-.65,3.09-2.35,3.1-1.7,0-3.42-1.36-3.82-3.06-.41-1.7.65-3.09,2.35-3.1s3.42,1.36,3.82,3.06Z"/>
            </g>
          </g>
        </g>
      </g>
      <g>
        <path class="cls-10" d="m320.06,381.26c0,2.63-10.29,4.77-22.99,4.77s-22.99-2.14-22.99-4.77,10.29-4.77,22.99-4.77,22.99,2.14,22.99,4.77Z"/>
        <g>
          <path class="cls-16" d="m307.7,382.36h-19.5c-2.65,0-5-2.03-5.82-5.03l-8.27-30.24c-.34-1.24.39-2.52,1.48-2.62,15.06-1.39,29.96-1.39,44.72,0,1.09.1,1.81,1.39,1.48,2.62l-8.27,30.24c-.82,3-3.17,5.03-5.82,5.03h0Z"/>
          <path class="cls-23" d="m320.06,346.67c0,.8-9.84,1.46-21.97,1.46s-21.97-.65-21.97-1.46,9.84-1.46,21.97-1.46,21.97.65,21.97,1.46Z"/>
          <path class="cls-13" d="m322.97,305.8c-7.91-2.08-19.99,14.33-23.66,30.33v-23.32c1.84-3.27,5.36-8.19,11.75-13.39,9.93-8.09,19.07-18.47,11.15-20.55-7.42-1.96-18.53,12.39-22.89,27.4v-29.94c1.28-1.99,3.38-4.59,6.73-7.32,6.26-5.1,12.02-11.64,7.03-12.95-4.33-1.14-10.65,6.53-13.75,15.18v-9.7c.51-3,1.24-7.29,3.22-11.67,4.6-10.16,7.09-20.62,1.02-19.84s-10.01,18.87-6.69,32.75v4.99c-2.24-10.16-9.94-20.69-14.97-19.36-4.99,1.32.77,7.86,7.03,12.95,4.76,3.88,6.99,7.51,7.94,9.46v23.59c-3.6-16.08-15.77-32.68-23.72-30.59-7.92,2.09,1.22,12.47,11.15,20.55,7.5,6.11,11.05,11.84,12.57,14.95v28.28c-3.85-15.79-15.7-31.72-23.5-29.67-7.92,2.09-1.13,9.67,10.03,18.84,7.58,6.23,11.65,12.81,13.47,16.39v13.32c.89.25,1.71.25,2.45,0v-5.3c1.55-3.14,5.1-8.8,12.51-14.84,9.93-8.09,19.07-18.47,11.15-20.55h-.02Z"/>
        </g>
      </g>
      <g>
        <g>
          <path class="cls-15" d="m192.45,56.23c-2.73,0-4.94-2.22-4.94-4.94s2.22-4.94,4.94-4.94,4.94,2.22,4.94,4.94-2.22,4.94-4.94,4.94Zm0-8.33c-1.87,0-3.39,1.52-3.39,3.39s1.52,3.39,3.39,3.39,3.39-1.52,3.39-3.39-1.52-3.39-3.39-3.39Z"/>
          <path class="cls-13" d="m179.57,36.7c-2.73,0-4.94-2.22-4.94-4.94s2.22-4.94,4.94-4.94,4.94,2.22,4.94,4.94-2.22,4.94-4.94,4.94Zm0-8.33c-1.87,0-3.39,1.52-3.39,3.39s1.52,3.39,3.39,3.39,3.39-1.52,3.39-3.39-1.52-3.39-3.39-3.39Z"/>
          <g>
            <g>
              <path class="cls-13" d="m205.19,29.98c-.43,0-.78-.35-.78-.78v-3.42c0-.43.35-.78.78-.78s.78.35.78.78v3.42c0,.43-.35.78-.78.78Z"/>
              <path class="cls-13" d="m205.19,35.96c-.43,0-.78-.35-.78-.78v-3.42c0-.43.35-.78.78-.78s.78.35.78.78v3.42c0,.43-.35.78-.78.78Z"/>
            </g>
            <g>
              <path class="cls-13" d="m209.99,31.26h-3.07c-.43,0-.78-.35-.78-.78s.35-.78.78-.78h3.07c.43,0,.78.35.78.78s-.35.78-.78.78Z"/>
              <path class="cls-13" d="m203.46,31.26h-3.07c-.43,0-.78-.35-.78-.78s.35-.78.78-.78h3.07c.43,0,.78.35.78.78s-.35.78-.78.78Z"/>
            </g>
          </g>
          <g>
            <g>
              <path class="cls-15" d="m191.67,11.94c-.43,0-.78-.35-.78-.78v-3.42c0-.43.35-.78.78-.78s.78.35.78.78v3.42c0,.43-.35.78-.78.78Z"/>
              <path class="cls-15" d="m191.67,17.93c-.43,0-.78-.35-.78-.78v-3.42c0-.43.35-.78.78-.78s.78.35.78.78v3.42c0,.43-.35.78-.78.78Z"/>
            </g>
            <g>
              <path class="cls-15" d="m196.47,13.23h-3.07c-.43,0-.78-.35-.78-.78s.35-.78.78-.78h3.07c.43,0,.78.35.78.78s-.35.78-.78.78Z"/>
              <path class="cls-15" d="m189.94,13.23h-3.07c-.43,0-.78-.35-.78-.78s.35-.78.78-.78h3.07c.43,0,.78.35.78.78s-.35.78-.78.78Z"/>
            </g>
          </g>
        </g>
        <g>
          <path class="cls-13" d="m413.62,127.39c-2.73,0-4.94-2.22-4.94-4.94s2.22-4.94,4.94-4.94,4.94,2.22,4.94,4.94-2.22,4.94-4.94,4.94Zm0-8.33c-1.87,0-3.39,1.52-3.39,3.39s1.52,3.39,3.39,3.39,3.39-1.52,3.39-3.39-1.52-3.39-3.39-3.39Z"/>
          <path class="cls-13" d="m422.12,151.12c-2.73,0-4.94-2.22-4.94-4.94s2.22-4.94,4.94-4.94,4.94,2.22,4.94,4.94-2.22,4.94-4.94,4.94Zm0-8.33c-1.87,0-3.39,1.52-3.39,3.39s1.52,3.39,3.39,3.39,3.39-1.52,3.39-3.39-1.52-3.39-3.39-3.39Z"/>
          <g>
            <g>
              <path class="cls-15" d="m425.51,169.68c-.43,0-.78-.35-.78-.78v-3.42c0-.43.35-.78.78-.78s.78.35.78.78v3.42c0,.43-.35.78-.78.78Z"/>
              <path class="cls-15" d="m425.51,175.66c-.43,0-.78-.35-.78-.78v-3.42c0-.43.35-.78.78-.78s.78.35.78.78v3.42c0,.43-.35.78-.78.78Z"/>
            </g>
            <g>
              <path class="cls-15" d="m430.31,170.96h-3.07c-.43,0-.78-.35-.78-.78s.35-.78.78-.78h3.07c.43,0,.78.35.78.78s-.35.78-.78.78Z"/>
              <path class="cls-15" d="m423.79,170.96h-3.07c-.43,0-.78-.35-.78-.78s.35-.78.78-.78h3.07c.43,0,.78.35.78.78s-.35.78-.78.78Z"/>
            </g>
          </g>
          <g>
            <g>
              <path class="cls-15" d="m396.03,142.23c-.43,0-.78-.35-.78-.78v-3.42c0-.43.35-.78.78-.78s.78.35.78.78v3.42c0,.43-.35.78-.78.78Z"/>
              <path class="cls-15" d="m396.03,148.22c-.43,0-.78-.35-.78-.78v-3.42c0-.43.35-.78.78-.78s.78.35.78.78v3.42c0,.43-.35.78-.78.78Z"/>
            </g>
            <g>
              <path class="cls-15" d="m400.83,143.51h-3.07c-.43,0-.78-.35-.78-.78s.35-.78.78-.78h3.07c.43,0,.78.35.78.78s-.35.78-.78.78Z"/>
              <path class="cls-15" d="m394.31,143.51h-3.07c-.43,0-.78-.35-.78-.78s.35-.78.78-.78h3.07c.43,0,.78.35.78.78s-.35.78-.78.78Z"/>
            </g>
          </g>
        </g>
        <g>
          <path class="cls-13" d="m3.04,127.35v16.52c0,2.18,1.77,3.96,3.96,3.96h30l9.06,3.25c.93.33,1.82-.58,1.46-1.5l-3.43-8.85v-13.38c0-2.18-1.77-3.96-3.96-3.96H7c-2.18,0-3.96,1.77-3.96,3.96Z"/>
          <g>
            <path class="cls-7" d="m9.37,132.03h27.52c.6,0,1.09-.49,1.09-1.09h0c0-.6-.49-1.09-1.09-1.09H9.37c-.6,0-1.09.49-1.09,1.09h0c0,.6.49,1.09,1.09,1.09Z"/>
            <path class="cls-7" d="m9.36,134.24h27.53c.6,0,1.09.49,1.09,1.09h0c0,.6-.49,1.09-1.09,1.09H9.36c-.6,0-1.09-.49-1.09-1.09h0c0-.6.49-1.09,1.09-1.09Z"/>
            <path class="cls-7" d="m9.37,140.82h27.52c.6,0,1.09-.49,1.09-1.09h0c0-.6-.49-1.09-1.09-1.09H9.37c-.6,0-1.09.49-1.09,1.09h0c0,.6.49,1.09,1.09,1.09Z"/>
          </g>
        </g>
        <g>
          <path class="cls-15" d="m263.38,32.45v16.52c0,2.18-1.77,3.96-3.96,3.96h-30l-9.06,3.25c-.93.33-1.82-.58-1.46-1.5l3.43-8.85v-13.38c0-2.18,1.77-3.96,3.96-3.96h33.14c2.18,0,3.96,1.77,3.96,3.96h0Z"/>
          <g>
            <path class="cls-12" d="m257.06,37.13h-27.52c-.6,0-1.09-.49-1.09-1.09h0c0-.6.49-1.09,1.09-1.09h27.52c.6,0,1.09.49,1.09,1.09h0c0,.6-.49,1.09-1.09,1.09Z"/>
            <path class="cls-12" d="m257.06,41.52h-27.52c-.6,0-1.09-.49-1.09-1.09h0c0-.6.49-1.09,1.09-1.09h27.52c.6,0,1.09.49,1.09,1.09h0c0,.6-.49,1.09-1.09,1.09Z"/>
            <path class="cls-12" d="m257.06,45.92h-27.52c-.6,0-1.09-.49-1.09-1.09h0c0-.6.49-1.09,1.09-1.09h27.52c.6,0,1.09.49,1.09,1.09h0c0,.6-.49,1.09-1.09,1.09Z"/>
          </g>
        </g>
      </g>
      <g>
        <ellipse class="cls-10" cx="175.42" cy="382.5" rx="56.54" ry="6.25"/>
        <g>
          <path class="cls-27" d="m208.03,363.24v-8.79c21.63,0,29.68-13.74,32.63-25.26.32-1.25.05-2.56-.74-3.58-.79-1.02-1.99-1.61-3.28-1.61h-28.6v-8.79h28.6c4.03,0,7.76,1.82,10.23,5.01,2.47,3.18,3.32,7.25,2.32,11.15-3.04,11.9-12.43,31.88-41.15,31.88h-.01Z"/>
          <path class="cls-15" d="m127.24,299.46h90.45v65.25c0,9.82-7.97,17.8-17.8,17.8h-54.85c-9.82,0-17.8-7.97-17.8-17.8v-65.25h0Z"/>
          <rect class="cls-27" x="121.87" y="296.88" width="101.14" height="13.14" rx="6.54" ry="6.54"/>
        </g>
      </g>
    </g>
    <g>
      <path d="m145.69,133.57c-.98.49-3.19,1.02-6.06,1.02-8.16,0-12.36-5.08-12.36-11.8,0-8.05,5.74-12.53,12.88-12.53,2.77,0,4.87.56,5.81,1.05l-1.08,4.24c-1.08-.46-2.59-.88-4.48-.88-4.24,0-7.53,2.56-7.53,7.81,0,4.73,2.8,7.7,7.56,7.7,1.61,0,3.4-.35,4.45-.77l.81,4.17Z"/>
      <path d="m148.87,122.76c0-2.52-.07-4.17-.14-5.64h4.59l.18,3.15h.14c.88-2.49,2.98-3.54,4.62-3.54.49,0,.74,0,1.12.07v5.01c-.38-.07-.84-.14-1.44-.14-1.96,0-3.29,1.05-3.64,2.7-.07.35-.1.77-.1,1.19v8.68h-5.32v-11.48Z"/>
      <path d="m165.99,127.38c.18,2.21,2.35,3.26,4.83,3.26,1.82,0,3.29-.25,4.73-.7l.7,3.61c-1.75.7-3.89,1.05-6.2,1.05-5.81,0-9.14-3.36-9.14-8.72,0-4.34,2.7-9.14,8.65-9.14,5.53,0,7.63,4.31,7.63,8.54,0,.91-.1,1.72-.17,2.1h-11.03Zm6.27-3.64c0-1.3-.56-3.47-3.01-3.47-2.24,0-3.15,2.03-3.29,3.47h6.3Z"/>
      <path d="m190.11,134.24l-.31-1.72h-.1c-1.12,1.37-2.87,2.1-4.9,2.1-3.47,0-5.53-2.52-5.53-5.25,0-4.45,3.99-6.58,10.05-6.55v-.25c0-.91-.49-2.21-3.12-2.21-1.75,0-3.61.59-4.73,1.29l-.98-3.43c1.19-.67,3.54-1.51,6.65-1.51,5.71,0,7.53,3.36,7.53,7.39v5.95c0,1.65.07,3.22.25,4.17h-4.8Zm-.63-8.09c-2.8-.04-4.97.63-4.97,2.7,0,1.37.91,2.03,2.1,2.03,1.33,0,2.42-.88,2.77-1.96.07-.28.1-.6.1-.91v-1.86Z"/>
      <path d="m204.53,112.22v4.9h3.82v3.92h-3.82v6.2c0,2.07.49,3.01,2.1,3.01.67,0,1.19-.07,1.58-.14l.04,4.03c-.7.28-1.96.46-3.47.46-1.72,0-3.15-.6-3.99-1.47-.98-1.02-1.47-2.66-1.47-5.08v-7h-2.27v-3.92h2.27v-3.71l5.22-1.19Z"/>
      <path d="m215.34,127.38c.18,2.21,2.35,3.26,4.83,3.26,1.82,0,3.29-.25,4.73-.7l.7,3.61c-1.75.7-3.88,1.05-6.2,1.05-5.81,0-9.14-3.36-9.14-8.72,0-4.34,2.7-9.14,8.65-9.14,5.53,0,7.63,4.31,7.63,8.54,0,.91-.11,1.72-.17,2.1h-11.03Zm6.27-3.64c0-1.3-.56-3.47-3.01-3.47-2.24,0-3.15,2.03-3.29,3.47h6.3Z"/>
      <path d="m236.97,134.24v-23.59h6.23l4.9,8.65c1.4,2.49,2.8,5.43,3.85,8.09h.1c-.35-3.12-.46-6.3-.46-9.84v-6.9h4.9v23.59h-5.6l-5.04-9.1c-1.4-2.52-2.94-5.57-4.1-8.33l-.1.03c.14,3.12.21,6.44.21,10.29v7.11h-4.9Z"/>
      <path d="m264.93,127.38c.17,2.21,2.35,3.26,4.83,3.26,1.82,0,3.29-.25,4.73-.7l.7,3.61c-1.75.7-3.88,1.05-6.2,1.05-5.81,0-9.14-3.36-9.14-8.72,0-4.34,2.7-9.14,8.65-9.14,5.53,0,7.63,4.31,7.63,8.54,0,.91-.1,1.72-.17,2.1h-11.03Zm6.27-3.64c0-1.3-.56-3.47-3.01-3.47-2.24,0-3.15,2.03-3.29,3.47h6.3Z"/>
      <path d="m282.78,117.12l1.37,7c.35,1.79.7,3.68.98,5.64h.07c.35-1.96.84-3.92,1.26-5.6l1.82-7.04h4.2l1.71,6.83c.46,1.93.91,3.85,1.26,5.81h.07c.25-1.96.6-3.89.98-5.85l1.47-6.79h5.22l-5.25,17.12h-5l-1.61-6.02c-.42-1.68-.74-3.22-1.08-5.32h-.07c-.31,2.14-.67,3.71-1.12,5.32l-1.71,6.02h-5.01l-4.97-17.12h5.43Z"/>
      <path d="m305.08,129.58c.98.59,3.01,1.29,4.58,1.29s2.28-.56,2.28-1.44-.53-1.3-2.52-1.96c-3.54-1.19-4.9-3.12-4.87-5.15,0-3.19,2.73-5.6,6.97-5.6,2,0,3.78.46,4.83.98l-.94,3.68c-.77-.42-2.24-.98-3.71-.98-1.29,0-2.03.53-2.03,1.4,0,.81.67,1.23,2.77,1.96,3.25,1.12,4.62,2.77,4.66,5.29,0,3.19-2.52,5.53-7.42,5.53-2.24,0-4.24-.49-5.53-1.19l.95-3.82Z"/>
    </g>
  </g>
</svg>