<?xml version="1.0" encoding="UTF-8"?>
<svg id="Layer_2" data-name="Layer 2" xmlns="http://www.w3.org/2000/svg" viewBox="0 0 462.2 410.66">
  <defs>
    <style>
      .cls-1 {
        fill: #739dad;
      }

      .cls-2 {
        fill: #fc461a;
      }

      .cls-3, .cls-4, .cls-5 {
        fill: #fff;
      }

      .cls-6 {
        fill: #fbb285;
      }

      .cls-7 {
        fill: #375bc9;
      }

      .cls-8 {
        fill: #dce3f7;
      }

      .cls-4 {
        opacity: .3;
      }

      .cls-5 {
        opacity: .1;
      }

      .cls-9 {
        fill: #fab18d;
      }

      .cls-10 {
        fill: #e6e6e6;
      }

      .cls-11 {
        fill: #ede4dd;
      }

      .cls-12 {
        fill: #f99900;
      }

      .cls-13 {
        fill: #f9cbc5;
      }

      .cls-14 {
        fill: #071f59;
      }

      .cls-15 {
        fill: #ed7c00;
      }

      .cls-16 {
        fill: #e60b27;
      }

      .cls-17 {
        fill: #ea4242;
      }

      .cls-18 {
        fill: #90c3dd;
      }

      .cls-19 {
        fill: #ff8864;
      }

      .cls-20 {
        fill: #1f2232;
      }

      .cls-21 {
        fill: #e89e9e;
      }

      .cls-22 {
        fill: #707aa0;
      }

      .cls-23 {
        fill: #c41414;
      }

      .cls-24 {
        fill: #373543;
      }

      .cls-25 {
        fill: #36427a;
      }

      .cls-26 {
        fill: #616077;
      }

      .cls-27 {
        fill: #ff664d;
      }

      .cls-28 {
        fill: #dbd0ca;
      }

      .cls-29 {
        fill: #1a100e;
      }

      .cls-30 {
        fill: #b50825;
      }

      .cls-31 {
        fill: #dc2c0f;
      }
    </style>
  </defs>
  <g id="manage_news" data-name="manage news">
    <g>
      <path class="cls-11" d="m199.4,103.95c-16.32-59.19-89.85-78.26-131.99-34.02-.61.64-1.21,1.28-1.81,1.94-60.42,65.67-31.87,227.51,94.21,268.53,126.09,41.02,257.23-33.89,264.6-100.85,7.37-66.96-50.8-88-141.07-69.28-51,10.58-73.77-29.47-83.93-66.32Z"/>
      <path class="cls-11" d="m40.41,250.64c2.31-8.47.84-17.51-3.75-24.99-4.48-7.3-11.3-14.92-18.84-10.93-13.24,7,2.09,41.02,13.32,44.27,5.09,1.47,7.82-3.01,9.28-8.35Z"/>
      <path class="cls-11" d="m423.24,151.6c.08-8.78-6.04-15.57-12.32-23.22-5.43-6.62-12.27-11.64-18.57-5.89-11.06,10.09,8.91,38.1,20.6,38.44,5.3.15,10.2-1.21,10.28-9.32Z"/>
      <path class="cls-11" d="m254.72,103.44c.13-11.18-4.59-21.83-12.65-29.58-7.86-7.55-18.72-14.75-26.72-7.42-14.06,12.87,15.74,49.85,30.63,50.26,6.74.18,8.66-6.21,8.74-13.26Z"/>
      <path class="cls-11" d="m192.17,50.98c-2.12-5.94-6.71-10.65-12.49-13.16-5.64-2.45-12.79-4.13-15.59,1.32-4.91,9.56,18.11,23.28,26.06,20.57,3.6-1.23,3.36-4.99,2.02-8.73Z"/>
    </g>
    <ellipse class="cls-11" cx="222.05" cy="360.99" rx="205.53" ry="9.25"/>
    <g>
      <g>
        <path class="cls-18" d="m68.44,138.84c-.11.13-.21.26-.33.37-3.22,3.19-8.79-9.01-3.64-21.22,5.15-12.21.91-28.33-6-28.96-6.91-.63-.9,10.1-9.8,8.45-8.9-1.65-10.27-25.36-21.76-24.05-10.06,1.14-3.61,18.71,1.38,26.11,4.71,6.99,3.31,14.09-1.98,12.54-5.29-1.55-10.58,5.79-2.7,17.2,7.88,11.41,18.54,22.76,13.41,24.07-5.13,1.31-15.81-9.9-20.36,3.37-2.03,5.93,10.89,26.45,39.57,28.08l12.22-13.23v-32.72Z"/>
        <path class="cls-1" d="m65.08,171.55c-12.11-32.13-32.46-81.36-32.7-81.96-.16-.38.02-.81.4-.97.38-.16.81.02.97.4.25.6,20.82,50.37,32.92,82.53h-1.58Z"/>
        <path class="cls-1" d="m47.04,124.49c-.12-.01-.24-.05-.35-.13-.34-.23-.43-.69-.2-1.03.06-.09,6.4-9.43,8.28-16.17.11-.39.52-.63.91-.51.39.11.62.52.51.91-1.95,6.97-8.21,16.22-8.48,16.61-.16.23-.42.34-.68.32Z"/>
        <path class="cls-1" d="m49.76,132.4s-.03,0-.04,0c-.45-.07-11.19-1.73-18.47-5.71-.36-.2-.49-.65-.29-1.01.2-.36.65-.49,1.01-.29,7.05,3.86,17.87,5.53,17.98,5.55.4.06.68.44.62.84-.06.39-.41.66-.8.63Z"/>
        <path class="cls-15" d="m68.44,155.19c-3.12,3.75-6.47,6.64-6.52,6.69-.31.27-.35.73-.08,1.05.13.15.31.24.5.26.19.02.39-.04.55-.18.21-.18,2.8-2.42,5.56-5.53v-2.29Z"/>
        <path class="cls-1" d="m53.09,169.56c-4.22-.38-8.87-1.19-12.69-2.82-.38-.16-.55-.6-.39-.97.16-.38.6-.55.97-.39,9.12,3.88,23.73,2.9,23.88,2.89.41-.03.76.28.79.69.03.41-.28.76-.69.79-.36.03-5.65.38-11.87-.18Z"/>
      </g>
      <g>
        <path class="cls-18" d="m388.51,299.58c.11.13.21.26.33.37,3.22,3.19,8.79-9.01,3.64-21.22-5.15-12.21-.91-28.33,6-28.96,6.91-.63.9,10.1,9.8,8.45,8.9-1.65,10.27-25.36,21.76-24.05,10.06,1.14,3.61,18.71-1.38,26.11-4.71,6.99-3.31,14.09,1.98,12.54,5.29-1.55,10.58,5.79,2.7,17.2-7.88,11.4-18.54,22.76-13.41,24.07,5.13,1.31,15.81-9.9,20.36,3.37,2.03,5.93-2.36,11.02-7.84,14.85h-43.94v-32.72Z"/>
        <path class="cls-1" d="m391.87,332.29c12.11-32.13,32.46-81.36,32.7-81.96.16-.38-.02-.81-.4-.97-.38-.16-.81.02-.97.4-.25.6-20.82,50.37-32.92,82.53h1.58Z"/>
        <path class="cls-1" d="m409.91,285.23c.12-.01.24-.05.35-.13.34-.23.43-.69.2-1.03-.06-.09-6.4-9.44-8.28-16.17-.11-.39-.52-.63-.91-.51-.39.11-.62.52-.51.91,1.95,6.97,8.21,16.22,8.48,16.61.16.23.42.34.68.32Z"/>
        <path class="cls-1" d="m407.19,293.13s.03,0,.04,0c.45-.07,11.19-1.73,18.47-5.71.36-.2.49-.65.29-1.01-.2-.36-.65-.49-1.01-.29-7.05,3.86-17.87,5.53-17.98,5.55-.4.06-.68.44-.62.84.06.39.41.66.8.63Z"/>
        <path class="cls-15" d="m388.51,315.92c3.12,3.75,6.47,6.64,6.52,6.69.31.27.35.73.08,1.05-.13.15-.31.24-.5.26-.19.02-.39-.04-.55-.18-.21-.18-2.8-2.42-5.56-5.53v-2.29Z"/>
        <path class="cls-1" d="m403.86,330.3c4.22-.38,8.87-1.19,12.69-2.82.38-.16.55-.6.39-.97-.16-.38-.6-.55-.97-.39-9.12,3.88-23.73,2.9-23.88,2.89-.41-.03-.76.28-.79.69-.03.41.28.76.69.79.36.03,5.65.38,11.87-.18Z"/>
      </g>
      <path class="cls-18" d="m434.99,140.07c4.11-16.59,11.06-31.54,17.62-24.84,6.57,6.71-5.88,32.21-23.07,45.76l-4.74,6.01c12.35-10.09,31.61-15.44,36.4-9.07,4.76,6.32-8.39,8.72-20.76,8.91-9.42.14-15.55,2.39-18.54,3.84l-22.41,28.37c19.61-15.93,50.01-24.34,57.59-14.26,7.55,10.04-13.31,13.84-32.93,14.13-14.83.22-24.53,3.74-29.32,6.05l-4.47,5.66c-1.1-.62-2.2-1.25-3.3-1.88l26.66-33.75c.35-3.6.3-8.73-1.14-15.2-2.69-12.08-3.4-25.42,3.85-22.25,6.3,2.74,6.61,17.97,2.12,31.32l9.22-11.67c2.24-4.1,5.44-9.94,7.21-17.1Z"/>
      <path class="cls-18" d="m27.2,262.5c-4.11-16.59-11.06-31.54-17.62-24.84-6.57,6.71,5.88,32.21,23.07,45.76l4.74,6.01c-12.35-10.09-31.61-15.44-36.4-9.07-4.76,6.32,8.39,8.72,20.76,8.91,9.42.14,15.55,2.39,18.54,3.84l22.41,28.37c-19.61-15.93-50.01-24.34-57.59-14.26-7.55,10.04,13.31,13.84,32.93,14.13,14.83.22,24.53,3.74,29.32,6.05l4.47,5.66c1.1-.62,2.2-1.25,3.3-1.88l-26.66-33.75c-.35-3.6-.3-8.73,1.14-15.2,2.69-12.08,3.4-25.42-3.85-22.25-6.3,2.74-6.61,17.97-2.12,31.32l-9.22-11.67c-2.24-4.1-5.44-9.94-7.21-17.1Z"/>
    </g>
    <g>
      <g>
        <path class="cls-24" d="m68.25,125.04h318.45c7.7,0,13.95,6.25,13.95,13.95v186.86c0,7.7-6.25,13.95-13.95,13.95H68.25c-7.7,0-13.95-6.25-13.95-13.95v-186.86c0-7.7,6.25-13.95,13.95-13.95Z"/>
        <path class="cls-29" d="m400.65,232.42v93.43c0,7.7-6.24,13.95-13.95,13.95H68.25c-7.7,0-13.95-6.24-13.95-13.95v-93.43h346.35Z"/>
        <path class="cls-3" d="m385.26,148.49v167.86c0,4.94-4,8.94-8.94,8.94H78.63c-2.64,0-5.01-1.14-6.65-2.97-1.43-1.58-2.29-3.68-2.29-5.97v-167.86c0-4.94,4.01-8.94,8.94-8.94h297.69c1.65,0,3.2.45,4.52,1.23,2.64,1.55,4.42,4.43,4.42,7.71Z"/>
        <g>
          <path class="cls-4" d="m385.26,148.49v167.86c0,4.94-4,8.94-8.94,8.94H78.63c-2.64,0-5.01-1.14-6.65-2.97-1.43-1.58-2.29-3.68-2.29-5.97v-167.86c0-4.94,4.01-8.94,8.94-8.94h297.69c1.65,0,3.2.45,4.52,1.23,2.64,1.55,4.42,4.43,4.42,7.71Z"/>
          <path class="cls-28" d="m385.26,148.49v9.33H69.69v-9.33c0-4.94,4.01-8.94,8.94-8.94h297.69c1.65,0,3.2.45,4.52,1.23,2.64,1.55,4.42,4.43,4.42,7.71Z"/>
          <path class="cls-29" d="m383.65,143.37H71.3c1.61-2.31,4.3-3.83,7.33-3.83h297.69c3.04,0,5.72,1.51,7.33,3.83Z"/>
          <g>
            <path class="cls-7" d="m352.51,149.64c0,1.73-1.4,3.13-3.13,3.13s-3.13-1.4-3.13-3.13,1.4-3.13,3.13-3.13,3.13,1.4,3.13,3.13Z"/>
            <path class="cls-12" d="m362.65,149.64c0,1.73-1.4,3.13-3.13,3.13s-3.13-1.4-3.13-3.13,1.4-3.13,3.13-3.13,3.13,1.4,3.13,3.13Z"/>
            <path class="cls-2" d="m372.29,149.64c0,1.73-1.4,3.13-3.13,3.13s-3.13-1.4-3.13-3.13,1.4-3.13,3.13-3.13,3.13,1.4,3.13,3.13Z"/>
          </g>
        </g>
        <g>
          <g>
            <rect class="cls-28" x="89.76" y="125.04" width="155.68" height="200.25"/>
            <rect class="cls-29" x="89.76" y="125.04" width="155.68" height="18.33"/>
          </g>
          <rect class="cls-3" x="82.57" y="86" width="155.68" height="239.3"/>
          <g>
            <g>
              <path class="cls-28" d="m98.04,145.6h0c0,1.58,1.28,2.86,2.86,2.86h125.96c1.58,0,2.86-1.28,2.86-2.86h0c0-1.58-1.28-2.86-2.86-2.86h-125.96c-1.58,0-2.86,1.28-2.86,2.86Z"/>
              <path class="cls-28" d="m98.04,135.6h0c0,1.58,1.28,2.86,2.86,2.86h125.96c1.58,0,2.86-1.28,2.86-2.86h0c0-1.58-1.28-2.86-2.86-2.86h-125.96c-1.58,0-2.86,1.28-2.86,2.86Z"/>
              <path class="cls-28" d="m96.93,158.02h0c0,1.58,1.28,2.86,2.86,2.86h125.96c1.58,0,2.86-1.28,2.86-2.86h0c0-1.58-1.28-2.86-2.86-2.86h-125.96c-1.58,0-2.86,1.28-2.86,2.86Z"/>
              <path class="cls-28" d="m96.93,170.43h0c0,1.58,1.28,2.86,2.86,2.86h125.96c1.58,0,2.86-1.28,2.86-2.86h0c0-1.58-1.28-2.86-2.86-2.86h-125.96c-1.58,0-2.86,1.28-2.86,2.86Z"/>
            </g>
            <g>
              <path class="cls-28" d="m96.93,187.65h0c0,1.58,1.28,2.86,2.86,2.86h125.96c1.58,0,2.86-1.28,2.86-2.86h0c0-1.58-1.28-2.86-2.86-2.86h-125.96c-1.58,0-2.86,1.28-2.86,2.86Z"/>
              <path class="cls-28" d="m96.93,200.06h0c0,1.58,1.28,2.86,2.86,2.86h125.96c1.58,0,2.86-1.28,2.86-2.86h0c0-1.58-1.28-2.86-2.86-2.86h-125.96c-1.58,0-2.86,1.28-2.86,2.86Z"/>
              <path class="cls-28" d="m96.93,212.47h0c0,1.58,1.28,2.86,2.86,2.86h125.96c1.58,0,2.86-1.28,2.86-2.86h0c0-1.58-1.28-2.86-2.86-2.86h-125.96c-1.58,0-2.86,1.28-2.86,2.86Z"/>
            </g>
            <rect class="cls-28" x="96.94" y="229.39" width="60.12" height="88.11" rx="5.15" ry="5.15"/>
            <rect class="cls-28" x="168.5" y="229.39" width="60.12" height="88.11" rx="5.15" ry="5.15"/>
            <g>
              <path d="m121.12,113.18h-6.2v4h6.92v3.12h-10.75v-16.85h10.4v3.12h-6.57v3.5h6.2v3.1Z"/>
              <path d="m136.07,102.55v14.1c0,1.37.05,2.82.1,3.65h-3.37l-.18-1.8h-.05c-.77,1.38-2.25,2.07-3.82,2.07-2.9,0-5.22-2.47-5.22-6.27-.02-4.12,2.55-6.5,5.47-6.5,1.5,0,2.67.52,3.22,1.38h.05v-6.62h3.8Zm-3.8,10.7c0-.2-.02-.47-.05-.67-.22-1.02-1.05-1.87-2.22-1.87-1.72,0-2.62,1.55-2.62,3.47,0,2.07,1.02,3.37,2.6,3.37,1.1,0,1.97-.75,2.2-1.82.08-.27.1-.55.1-.88v-1.6Z"/>
              <path d="m143.04,104.68c0,1.05-.8,1.9-2.05,1.9s-2-.85-1.97-1.9c-.03-1.1.77-1.92,2-1.92s2,.83,2.02,1.92Zm-3.92,15.62v-12.22h3.8v12.22h-3.8Z"/>
              <path d="m150.22,104.58v3.5h2.72v2.8h-2.72v4.42c0,1.48.35,2.15,1.5,2.15.47,0,.85-.05,1.12-.1l.02,2.87c-.5.2-1.4.33-2.47.33-1.23,0-2.25-.42-2.85-1.05-.7-.72-1.05-1.9-1.05-3.62v-5h-1.62v-2.8h1.62v-2.65l3.72-.85Z"/>
              <path d="m160.32,120.3v-16.85h4.45l3.5,6.17c1,1.77,2,3.87,2.75,5.77h.07c-.25-2.22-.32-4.5-.32-7.02v-4.92h3.5v16.85h-4l-3.6-6.5c-1-1.8-2.1-3.97-2.92-5.95l-.07.02c.1,2.22.15,4.6.15,7.35v5.07h-3.5Z"/>
              <path d="m180.29,115.4c.12,1.57,1.67,2.32,3.45,2.32,1.3,0,2.35-.18,3.37-.5l.5,2.57c-1.25.5-2.77.75-4.42.75-4.15,0-6.52-2.4-6.52-6.22,0-3.1,1.92-6.52,6.17-6.52,3.95,0,5.45,3.07,5.45,6.1,0,.65-.07,1.22-.12,1.5h-7.87Zm4.47-2.6c0-.92-.4-2.47-2.15-2.47-1.6,0-2.25,1.45-2.35,2.47h4.5Z"/>
              <path d="m193.04,108.08l.97,5c.25,1.27.5,2.62.7,4.02h.05c.25-1.4.6-2.8.9-4l1.3-5.02h3l1.22,4.87c.33,1.37.65,2.75.9,4.15h.05c.18-1.4.43-2.77.7-4.17l1.05-4.85h3.72l-3.75,12.22h-3.57l-1.15-4.3c-.3-1.2-.52-2.3-.77-3.8h-.05c-.23,1.52-.48,2.65-.8,3.8l-1.23,4.3h-3.57l-3.55-12.22h3.87Z"/>
              <path d="m208.97,116.98c.7.42,2.15.92,3.27.92s1.62-.4,1.62-1.02-.38-.92-1.8-1.4c-2.52-.85-3.5-2.22-3.47-3.67,0-2.27,1.95-4,4.97-4,1.42,0,2.7.33,3.45.7l-.67,2.62c-.55-.3-1.6-.7-2.65-.7-.92,0-1.45.38-1.45,1,0,.58.47.88,1.97,1.4,2.32.8,3.3,1.97,3.32,3.77,0,2.27-1.8,3.95-5.3,3.95-1.6,0-3.02-.35-3.95-.85l.67-2.72Z"/>
            </g>
          </g>
        </g>
        <g>
          <path class="cls-28" d="m308.78,172.13h-49.03c-.84,0-1.52.77-1.52,1.73h0c0,.95.68,1.73,1.52,1.73h49.03c.84,0,1.52-.77,1.52-1.73h0c0-.95-.68-1.73-1.52-1.73Z"/>
          <path class="cls-28" d="m308.78,180.43h-49.03c-.84,0-1.52.77-1.52,1.73h0c0,.95.68,1.73,1.52,1.73h49.03c.84,0,1.52-.77,1.52-1.73h0c0-.95-.68-1.73-1.52-1.73Z"/>
          <path class="cls-28" d="m308.78,188.74h-49.03c-.84,0-1.52.77-1.52,1.73h0c0,.95.68,1.73,1.52,1.73h49.03c.84,0,1.52-.77,1.52-1.73h0c0-.95-.68-1.73-1.52-1.73Z"/>
          <path class="cls-28" d="m308.78,197.05h-49.03c-.84,0-1.52.77-1.52,1.73h0c0,.95.68,1.73,1.52,1.73h49.03c.84,0,1.52-.77,1.52-1.73h0c0-.95-.68-1.73-1.52-1.73Z"/>
          <path class="cls-28" d="m308.78,205.35h-49.03c-.84,0-1.52.77-1.52,1.73h0c0,.95.68,1.73,1.52,1.73h49.03c.84,0,1.52-.77,1.52-1.73h0c0-.95-.68-1.73-1.52-1.73Z"/>
          <path class="cls-28" d="m308.78,213.66h-49.03c-.84,0-1.52.77-1.52,1.73h0c0,.95.68,1.73,1.52,1.73h49.03c.84,0,1.52-.77,1.52-1.73h0c0-.95-.68-1.73-1.52-1.73Z"/>
          <path class="cls-28" d="m308.78,221.97h-49.03c-.84,0-1.52.77-1.52,1.73h0c0,.95.68,1.73,1.52,1.73h49.03c.84,0,1.52-.77,1.52-1.73h0c0-.95-.68-1.73-1.52-1.73Z"/>
          <path class="cls-28" d="m308.78,230.28h-49.03c-.84,0-1.52.77-1.52,1.73h0c0,.95.68,1.73,1.52,1.73h49.03c.84,0,1.52-.77,1.52-1.73h0c0-.95-.68-1.73-1.52-1.73Z"/>
        </g>
        <g>
          <path class="cls-28" d="m372.54,172.13h-49.03c-.84,0-1.52.77-1.52,1.73h0c0,.95.68,1.73,1.52,1.73h49.03c.84,0,1.52-.77,1.52-1.73h0c0-.95-.68-1.73-1.52-1.73Z"/>
          <path class="cls-28" d="m372.54,180.43h-49.03c-.84,0-1.52.77-1.52,1.73h0c0,.95.68,1.73,1.52,1.73h49.03c.84,0,1.52-.77,1.52-1.73h0c0-.95-.68-1.73-1.52-1.73Z"/>
          <path class="cls-28" d="m372.54,188.74h-49.03c-.84,0-1.52.77-1.52,1.73h0c0,.95.68,1.73,1.52,1.73h49.03c.84,0,1.52-.77,1.52-1.73h0c0-.95-.68-1.73-1.52-1.73Z"/>
          <path class="cls-28" d="m372.54,197.05h-49.03c-.84,0-1.52.77-1.52,1.73h0c0,.95.68,1.73,1.52,1.73h49.03c.84,0,1.52-.77,1.52-1.73h0c0-.95-.68-1.73-1.52-1.73Z"/>
          <path class="cls-28" d="m372.54,205.35h-49.03c-.84,0-1.52.77-1.52,1.73h0c0,.95.68,1.73,1.52,1.73h49.03c.84,0,1.52-.77,1.52-1.73h0c0-.95-.68-1.73-1.52-1.73Z"/>
          <path class="cls-28" d="m372.54,213.66h-49.03c-.84,0-1.52.77-1.52,1.73h0c0,.95.68,1.73,1.52,1.73h49.03c.84,0,1.52-.77,1.52-1.73h0c0-.95-.68-1.73-1.52-1.73Z"/>
          <path class="cls-28" d="m372.54,221.97h-49.03c-.84,0-1.52.77-1.52,1.73h0c0,.95.68,1.73,1.52,1.73h49.03c.84,0,1.52-.77,1.52-1.73h0c0-.95-.68-1.73-1.52-1.73Z"/>
          <path class="cls-28" d="m372.54,230.28h-49.03c-.84,0-1.52.77-1.52,1.73h0c0,.95.68,1.73,1.52,1.73h49.03c.84,0,1.52-.77,1.52-1.73h0c0-.95-.68-1.73-1.52-1.73Z"/>
        </g>
        <g>
          <g>
            <circle class="cls-28" cx="315.59" cy="275.25" r="17.16"/>
            <polygon class="cls-3" points="309.56 284.28 309.56 266.23 324.98 275.25 309.56 284.28"/>
          </g>
          <path class="cls-28" d="m368.13,306.02h-103.98c-3.95,0-7.16-3.21-7.16-7.16v-46.09c0-3.95,3.21-7.16,7.16-7.16h103.98c3.95,0,7.16,3.21,7.16,7.16v46.09c0,3.95-3.21,7.16-7.16,7.16Zm-103.98-57.94c-2.59,0-4.69,2.11-4.69,4.69v46.09c0,2.59,2.11,4.69,4.69,4.69h103.98c2.59,0,4.69-2.11,4.69-4.69v-46.09c0-2.59-2.11-4.69-4.69-4.69h-103.98Z"/>
        </g>
      </g>
      <path class="cls-24" d="m433,332.33v1.19c0,5.94-1.91,11.44-5.14,15.91-4.94,6.83-12.97,11.27-22.04,11.27H49.13c-9.07,0-17.1-4.44-22.04-11.27-3.24-4.47-5.14-9.97-5.14-15.91v-1.19h411.05Z"/>
      <path class="cls-10" d="m181.41,332.33v.27c0,2.15,1.44,3.9,3.22,3.9h83.91c1.78,0,3.22-1.74,3.22-3.9v-.27h-90.35Z"/>
      <path class="cls-29" d="m427.86,349.44c-4.94,6.83-12.97,11.27-22.04,11.27H49.13c-9.07,0-17.1-4.44-22.04-11.27h400.77Z"/>
      <path class="cls-5" d="m385.26,148.49v167.86c0,4.94-4,8.94-8.94,8.94H78.63c-2.64,0-5.01-1.14-6.65-2.97l308.87-181.55c2.64,1.55,4.42,4.43,4.42,7.71Z"/>
    </g>
    <g>
      <g>
        <g>
          <polygon class="cls-9" points="345.55 107.21 349.22 115.06 341.46 115.18 338.47 108.04 345.55 107.21"/>
          <g>
            <path class="cls-14" d="m346.78,114.57s1.59-2.14,2.86-2.05c1.27.09,11.02,7.85,14.37,8.49,3.34.64,3.03,4.05,1.63,4.05-4.03,0-26.22-.16-26.22-.16,0,0-.72-7.76.14-10.13s4.61.36,7.23-.2Z"/>
            <g>
              <path class="cls-3" d="m352.17,119.98c-.12.04-.25.02-.37-.04-.22-.13-.3-.41-.18-.64.04-.08,1.06-1.85,2.44-2.54,1.83-.92,3.25.11,3.31.15.21.15.25.45.1.66-.15.21-.45.25-.66.1-.04-.03-1.03-.72-2.33-.07-1.12.56-2.04,2.15-2.05,2.17-.06.11-.16.18-.27.22Z"/>
              <path class="cls-3" d="m350.77,118.66c-.12.04-.25.02-.37-.04-.22-.13-.3-.41-.18-.64.04-.08,1.06-1.85,2.44-2.54,1.83-.92,3.25.11,3.31.15.21.15.25.45.1.66-.15.21-.45.25-.66.1-.04-.03-1.03-.73-2.33-.07-1.12.57-2.04,2.15-2.05,2.17-.06.11-.16.18-.27.22Z"/>
              <path class="cls-3" d="m354.06,121.05c-.12.04-.25.02-.37-.04-.22-.13-.3-.41-.18-.64.04-.08,1.06-1.85,2.44-2.54,1.83-.92,3.25.11,3.31.15.21.15.25.45.1.66-.15.21-.45.25-.66.1-.04-.03-1.03-.73-2.33-.07-1.12.57-2.04,2.15-2.05,2.17-.06.11-.16.18-.27.22Z"/>
            </g>
          </g>
        </g>
        <g>
          <path class="cls-16" d="m347.76,109.77l-3.44,1.12-1.91.11-3.28.19c-4.34-3.43-16.04-13.75-18.32-19.84,0,0-15.05,35.01-35.87,35.01-1.35,0,2.22-17.42,5.61-21.04,0,0,19.18-35.75,31.62-31.96,5.57,1.7,11.2,9.81,25.58,36.41Z"/>
          <path class="cls-23" d="m335.69,108.85c.55,1.02,1.48,2.46,2.38,3.16,0,0,7.35-.34,10.93-2.14l-1.6-3.74s-5.85,2.14-11.7,2.71Z"/>
          <path class="cls-23" d="m344.32,110.89l-1.91.11c-12.77-9.67-18.68-17.85-21.4-23.1-.09-.18-.25-.24-.35-.24-.09,0-.15.05-.19.16-6.11,14.39-13.45,23.03-18.53,27.74-5.53,5.14-9.58,6.83-9.75,6.9l-.23-.57-.23-.57s4.06-1.71,9.44-6.72c4.97-4.63,12.16-13.11,18.17-27.27.23-.54.71-.88,1.28-.9.62-.02,1.19.33,1.49.9,2.74,5.29,8.83,13.64,22.22,23.55Z"/>
        </g>
      </g>
      <g>
        <path class="cls-25" d="m289.64,44.54s14.25,17.01,20.23,19.8c2.63,1.23,5.22,1.66,7.14,1.73.64.02,2.32-.11,2.41-.11,0,0,.01,0,.01,0,7.11-.88,15.46-3.02,25.92-7.28l-1.56-4.84s-6.28,1.33-13.98,1.88c-2.84.2-9.39.5-11.81.89-.6-.27-1.19-.56-1.77-.88-10.62-5.73-17.63-17.41-17.63-17.41-3.36,1.26-7.22,3.62-8.96,6.21Z"/>
        <g>
          <path class="cls-6" d="m343.49,53.45s1.46-3.68,3.44-4.73c1.98-1.05,7.62-4.74,8.82-3.64,1.2,1.11.95,6.41-4.1,10.85-3.22,2.83-6.46,2.71-6.46,2.71l-1.7-5.19Z"/>
          <g>
            <path class="cls-29" d="m356.11,48.46l-8.32,7.77c-.31.29-.88.38-1.26.19l-5.1-2.47c-.16-.08-.26-.19-.31-.31v-.04s-.26-.85-.26-.85l1.35-.51,13.09-4.97.71-.27.27.9.02.06s0,.01,0,.02c.03.16-.03.33-.19.47Z"/>
            <path class="cls-20" d="m355.3,47.27l-13.09,4.97,7.4-6.92c.31-.29.88-.38,1.26-.19l4.43,2.14Z"/>
            <path class="cls-24" d="m346.27,55.56l-5.1-2.47c-.38-.19-.44-.57-.13-.86l8.32-7.77c.31-.29.88-.38,1.26-.19l5.1,2.47c.38.19.44.57.13.86l-8.32,7.77c-.31.29-.88.38-1.26.19Z"/>
            <path class="cls-26" d="m346.89,54.17l-3.95-1.91c-.38-.19-.44-.57-.13-.86l6.47-6.04c.31-.29.88-.38,1.26-.19l3.95,1.91c.38.19.44.57.13.86l-6.47,6.04c-.31.29-.88.38-1.26.19Z"/>
            <path class="cls-20" d="m356.3,47.98h0s0-.01,0-.02v.02Z"/>
          </g>
          <path class="cls-6" d="m346.78,46.86s1.19.18,1.31,1.2c.12,1.02-.98.61-1.69.39-.71-.22-1.35,0-1.44.12-.31.37-.26-2.01,1.83-1.71Z"/>
          <path class="cls-6" d="m352.08,52.39s1.86-3.06,3.28-4.73c.95-1.11,1.43.5.78,1.63-.65,1.12-1.93,3.42-4.07,3.1Z"/>
        </g>
      </g>
      <g>
        <path class="cls-25" d="m279.64,26.92s-8.98.05-13.07,3.75c-4.09,3.7-.19,11.22,4.25,12.18,4.44.96,18.3-.68,19.74-3.06,1.44-2.38.53-12.69-10.93-12.87Z"/>
        <path class="cls-14" d="m265.44,107.49l-4.36-28.14.95-38.82,10.44-3.53.56-.19,2.34-.79,1.86-.63,11.02,1.52,1.79.25.63.09,7.89,1.09c.07,24.95-2.32,30.34,2.29,50.64,2.32,7.65-6.19,34.77-35.42,18.53Z"/>
        <path class="cls-22" d="m280.35,42.95c-7.9-.03-9.73-6.99-9.75-7.06-.04-.16.06-.31.21-.35.16-.04.31.06.35.21.07.27,1.75,6.59,9.18,6.62.04,0,.08,0,.12,0,.16,0,.29.13.29.29,0,.16-.13.29-.29.29-.04,0-.08,0-.13,0Z"/>
        <path class="cls-22" d="m287.77,41.86c-.16,0-.29-.13-.29-.29,0-.16.13-.29.29-.3.1,0,2.4-.1,2.99-3.2.03-.16.18-.26.34-.23.16.03.26.18.23.34-.69,3.59-3.53,3.67-3.56,3.67,0,0,0,0,0,0Z"/>
        <path class="cls-25" d="m275.02,81.25s-1.28,9.79,1.33,14.59c0,0,12.99.91,22.44-2.8,0,0-2.36-6.84-2.4-13.51l-21.37,1.73Z"/>
        <path class="cls-3" d="m281.95,70.89s-.02,0-.03,0c-.16-.01-.28-.16-.26-.32.65-7.26-2.07-25.59-2.09-25.78-.02-.16.09-.31.25-.33.16-.02.31.09.33.25.03.19,2.76,18.58,2.1,25.91-.01.15-.14.27-.29.27Z"/>
        <path class="cls-3" d="m291.56,69.46s-.02,0-.03,0c-.16-.01-.28-.16-.26-.32.65-7.26-2.16-25.74-2.19-25.92-.02-.16.08-.31.24-.33.16-.02.31.08.33.24.03.19,2.85,18.73,2.19,26.06-.01.15-.14.27-.29.27Z"/>
      </g>
      <g>
        <g>
          <polygon class="cls-9" points="338.53 176.25 341.41 182.68 335.49 185.23 332.05 178.59 338.53 176.25"/>
          <g>
            <path class="cls-14" d="m340.12,182.54s.61-2.6,1.8-3.02c1.2-.42,13.24,2.79,16.56,2.05,3.32-.75,3.71,1.77,3.65,3.17-.06,1.4-24.64,10.22-24.64,10.22,0,0-3.75-6.82-3.92-9.34-.17-2.51,4.37-1.51,6.55-3.07Z"/>
            <g>
              <path class="cls-3" d="m347.23,185.35c-.09.08-.22.12-.35.11-.26-.03-.44-.26-.42-.52,0-.09.24-2.12,1.22-3.3,1.31-1.58,3.03-1.2,3.1-1.18.25.06.41.31.35.56-.06.25-.31.41-.56.35-.05-.01-1.24-.25-2.17.87-.8.96-1.01,2.79-1.01,2.81-.01.12-.07.23-.16.31Z"/>
              <path class="cls-3" d="m345.42,184.7c-.09.08-.22.12-.35.11-.26-.03-.44-.26-.42-.52,0-.09.24-2.12,1.22-3.3,1.31-1.58,3.03-1.2,3.1-1.18.25.06.41.31.35.56-.06.25-.31.41-.56.35-.05,0-1.24-.25-2.17.87-.8.97-1.01,2.79-1.01,2.8-.01.12-.07.23-.16.31Z"/>
              <path class="cls-3" d="m349.39,185.58c-.09.08-.22.12-.35.11-.26-.03-.44-.26-.42-.52,0-.09.24-2.12,1.22-3.3,1.31-1.58,3.03-1.2,3.1-1.18.25.06.41.31.35.56-.06.25-.31.41-.56.35-.05,0-1.24-.25-2.17.87-.8.97-1.01,2.79-1.01,2.8-.01.12-.07.23-.16.31Z"/>
            </g>
          </g>
        </g>
        <g>
          <path class="cls-16" d="m340.02,177.5c-.61.7-2.51,1.75-4.57,2.68-.37.17-.76.33-1.14.49-.67.28-1.34.53-1.96.74,0,0-14.04-25.88-19.43-44.65,0,0-47.53-5.87-49.18-22.52-.06-.56-.06-1.13,0-1.71.14-1.59.69-3.26,1.72-5.04,1.08-1.87,17.35-.05,26.14,2.42,0,0,23.83,9.28,32.64,18.85,4.46,4.84,15.8,48.74,15.8,48.74Z"/>
          <path class="cls-23" d="m329.81,178.7l2.24,3.59s5.58-.97,9.36-4.78l-1.4-3.2s-6.79,3.35-10.21,4.4Z"/>
          <path class="cls-23" d="m335.44,180.18c-.37.17-.76.33-1.14.49-7.1-11.75-16.96-39.21-19.16-45.81-.15-.45-.53-.78-1-.87-23.09-4.34-36.4-10.4-43.5-14.72-3.13-1.9-5.36-3.64-6.92-5.04-.06-.56-.06-1.13,0-1.71,1.51,1.48,3.95,3.51,7.71,5.78,7.01,4.24,20.14,10.19,42.94,14.47.91.17,1.65.82,1.94,1.69,2.2,6.6,12.1,34.18,19.13,45.7Z"/>
        </g>
      </g>
      <g>
        <path class="cls-6" d="m254.15,117.32s3.23,4.39,2.97,6.66-3.2,6.55-5.54,6.75c-2.34.21,2.69-5.5,1.5-5.31-1.44.22-11.14,8.18-13.19,8.18s2.41-3.7,4.14-4.63c0,0-4.59,2.05-5.66,3.12-1.07,1.07-1.84-1.22,3.5-4.47,0,0-4.9,2.78-5.23,2.83-1.09.15,2.02-3.5,4.7-4.82,0,0-3.93,1.91-4.33,1.92-.55.01.63-1.27,3.55-2.89,2.62-1.45,6.92-8.13,6.92-8.13l6.67.79Z"/>
        <path class="cls-25" d="m262.06,40.53s-10.89,20.91-13.37,42.79l-1.17,33.21s1.12,2.37,6.67.79l5.37-33.21,4.11-15.2s1.87-18.7-1.61-28.39Z"/>
      </g>
      <g>
        <path class="cls-24" d="m295.46,17.92c-1.16,6.54-7.4,10.91-13.94,9.75-6.54-1.16-10.91-7.4-9.75-13.94,1.16-6.54,7.4-10.91,13.94-9.75,6.54,1.16,10.91,7.4,9.75,13.94Z"/>
        <path class="cls-24" d="m295.64,15.76s3.52-.33,3.65-3.67c.11-2.84-3.46-1.62-2.79-3.73.67-2.12,1.65-3.97-1.05-5.01-2.37-.91-2.71.77-5.49-2.24-3.29-3.55-7.39,2.6-10.82,2.2-5.06-.59-6.19,2.13-7.08,4.31-.89,2.18.75,4.11.75,4.11l22.83,4.04Z"/>
        <g>
          <path class="cls-19" d="m292.89,20.88s2.32-2.17,3.35.15c1.03,2.32-2.02,8.08-5.18,5.98l1.83-6.13Z"/>
          <path class="cls-27" d="m292.14,25.25c.13.02.26-.04.32-.16.86-1.79,2.95-2.21,2.97-2.22.16-.03.26-.18.23-.34-.03-.16-.18-.26-.34-.23-.1.02-2.4.47-3.39,2.54-.07.15,0,.32.14.39.02.01.05.02.08.02Z"/>
          <path class="cls-27" d="m294.28,24.65c.05,0,.11,0,.16-.02.15-.06.22-.23.16-.38-.01-.02-.26-.61-.93-1.07-.13-.09-.32-.06-.41.08-.09.13-.06.32.08.41.52.35.72.8.72.81.04.1.12.16.22.18Z"/>
        </g>
        <path class="cls-9" d="m277.25,29.91l-1.07,6.08s2.03,3.12,4.44,3.76c2.41.65,4.41-2,4.41-2l1.03-5.84-8.81-2Z"/>
        <path class="cls-19" d="m277.25,29.91l-.48,2.7c1.32,2.12,4.16,3.09,8.6,3.21l.69-3.91-8.81-2Z"/>
        <path class="cls-9" d="m273.61,13.17c-.3,2.38-.6,5.37-.57,7.82,0,.61.04,1.19.09,1.71.49,4.7,2.33,12.95,11.85,11.33,4.2-.71,6.82-4.79,8.43-9.13,1.09-2.94,1.72-6,2.07-8.21.35-2.25-.51-4.52-2.26-5.97-4.76-3.93-10.53-3.8-14.45-3.04-2.72.53-4.8,2.74-5.15,5.49Z"/>
        <path class="cls-24" d="m288.24,20.88c-.11.65.13,1.23.54,1.31.41.07.84-.39.95-1.04.11-.65-.13-1.23-.54-1.31-.41-.07-.84.39-.95,1.04Z"/>
        <path class="cls-24" d="m279.5,19.33c-.11.65.13,1.23.54,1.31.41.07.84-.39.95-1.04.11-.65-.13-1.23-.54-1.31-.41-.07-.84.39-.95,1.04Z"/>
        <path class="cls-24" d="m292.06,17.83s-2.89-1.78-5.47-1.17v1.15s2.7-.12,5.07,1.27c.25-.48.51-.69.4-1.25Z"/>
        <path class="cls-24" d="m277.83,15.32s3.33-.68,5.54.78l-.4,1.08s-2.49-1.04-5.2-.54c-.07-.54-.24-.82.06-1.31Z"/>
        <path class="cls-19" d="m283.29,24.77c-.49-.09-.94-.36-1.01-.4-.14-.09-.18-.27-.09-.4.09-.14.27-.18.4-.09.24.15.84.43,1.14.31.06-.02.14-.07.19-.24.28-.99.6-4.42.61-4.45.01-.16.16-.28.32-.26.16.01.28.16.26.32-.01.14-.33,3.52-.63,4.56-.11.39-.36.56-.54.63-.2.08-.43.08-.65.04Z"/>
        <path class="cls-3" d="m286.61,27.17c-.45,1.15-1.62,3.19-4.26,2.72-2.65-.47-3.04-2.6-3.05-4.02l7.31,1.29Z"/>
        <path class="cls-19" d="m282.12,31.41c-.75-.13-1.31-.62-1.34-.64-.12-.11-.13-.29-.03-.41.11-.12.29-.13.41-.03,0,0,.47.4,1.05.51.53.09,1.1-.12,1.11-.12.15-.06.32.01.38.16.06.15-.01.32-.16.38-.03.01-.72.28-1.42.16Z"/>
        <path class="cls-24" d="m292.84,22.86c.43-1.15.92-2.65.9-3.47-.03-1.44-1.04-2.47-.42-3.74.62-1.28-.54-2.98-1.55-3.4-1-.43-3.54-.34-5.74-1.91-2.1-1.5-6.23-1.42-7.15-.06-1.1,1.65-.06,2-2.55,3.55-.99.62-.33,2.8-.41,4.12-.04.61-.08.9-.22,1.54l-.07.32-2.57-.45c.07-2.07.3-4.32.54-6.19.35-2.75,2.43-4.96,5.15-5.49,3.92-.76,9.7-.9,14.45,3.04,1.75,1.45,2.62,3.72,2.26,5.97-.28,1.75-.73,4.04-1.45,6.38l-1.18-.21Z"/>
        <g>
          <path class="cls-9" d="m274,20.67c.13-.67.2-1.35.2-2.04,0-.93-.12-1.8-.98-2.34-.69-.44-1.49-.58-2.2.16-1.76,1.82-1.34,8.54,2.33,7.65l.65-3.43Z"/>
          <path class="cls-19" d="m273.03,22.11c-.12-.05-.2-.17-.19-.3.2-1.98-1.37-3.43-1.39-3.44-.12-.11-.13-.29-.02-.41.11-.12.29-.13.41-.02.07.07,1.8,1.65,1.58,3.93-.02.16-.16.28-.32.26-.03,0-.05,0-.08-.02Z"/>
          <path class="cls-19" d="m271.51,20.48c-.05-.02-.1-.05-.13-.1-.09-.13-.07-.31.07-.41.02-.02.54-.39,1.35-.43.16,0,.3.12.31.28,0,.16-.12.3-.28.31-.62.03-1.03.31-1.03.32-.08.06-.19.07-.28.04Z"/>
        </g>
      </g>
    </g>
    <g>
      <ellipse class="cls-11" cx="132.93" cy="392.23" rx="70.51" ry="18.43"/>
      <g>
        <path class="cls-24" d="m111.49,277.05v-.04c.08-.43.14-.86.18-1.29.65-6.26-2.12-18.06-15.87-17.54,0,0-11.39.21-13.72,11.1,0,0-1.02,5.03-1.73,8.67,0,0,.45,7.17-5.86,9.41-6.3,2.24-9.28,5.63-7.45,10.25s.65,4.12-2.8,9.29c-3.45,5.18-1.51,11.33,4.73,13.15,7.87,2.3,12.3-7.05,22.87-4.12,10.57,2.92,25.7-2.54,25.61-10.49s-8.57-11.05-9.15-14.95c-.58-3.9,2.93-9.51,3.18-13.45Z"/>
        <path class="cls-23" d="m140.9,353.55c-20.56-27.64-32.77-58.7-32.77-58.7l1.89,26.78s17.53,29.36,23.64,35.91c2.43,0,7.25-.83,7.25-3.99Z"/>
        <g>
          <g>
            <polygon class="cls-9" points="184.2 380.42 189.94 384.49 186.13 389.69 179.8 385.71 184.2 380.42"/>
            <g>
              <path class="cls-16" d="m188.76,385.03s-.8-2.55.02-3.52c.82-.97,12.83-4.31,15.31-6.64,2.48-2.33,4.09-.36,4.75.88.66,1.24-16.05,21.3-16.05,21.3,0,0-6.7-3.98-8.12-6.06-1.42-2.08,3-3.52,4.08-5.97Z"/>
              <g>
                <path class="cls-3" d="m196.31,383.85c-.04.12-.13.22-.25.27-.24.11-.51,0-.62-.23-.04-.08-.87-1.95-.62-3.47.33-2.02,2-2.57,2.07-2.59.25-.08.51.06.59.31.08.25-.06.51-.31.59-.05.01-1.19.41-1.43,1.85-.2,1.24.54,2.91.55,2.93.05.11.05.24.01.35Z"/>
                <path class="cls-3" d="m194.42,384.2c-.04.12-.13.22-.25.27-.24.11-.51,0-.62-.23-.04-.08-.87-1.95-.62-3.47.33-2.02,2-2.57,2.07-2.59.25-.08.51.06.59.31.08.25-.06.51-.31.59-.05.02-1.19.41-1.43,1.85-.2,1.24.54,2.91.55,2.93.05.11.05.24.02.35Z"/>
                <path class="cls-3" d="m198.29,382.94c-.04.12-.13.22-.25.27-.24.11-.51,0-.62-.23-.04-.08-.87-1.95-.62-3.47.33-2.02,2-2.57,2.07-2.59.25-.08.51.06.59.31.08.25-.06.51-.31.59-.05.02-1.19.41-1.43,1.85-.2,1.24.54,2.91.55,2.93.05.11.05.24.02.35Z"/>
              </g>
            </g>
          </g>
          <g>
            <path class="cls-14" d="m183.22,386.07c-.28.24-.56.45-.86.65-.65.47-1.36.88-2.12,1.23,0,0-23.72-14.2-38.3-28.2,0,0-25.01,13.57-38.78,9.24-.22-.07-.5-.34-.8-.74h0c-.2-.28-.41-.61-.62-1.01-1.34-2.5-2.49-7.12.05-9.82,0,0,28.8-12.81,41.87-9.65,13.08,3.17,42.42,32.31,42.42,32.31.26,2.26-.93,4.35-2.86,5.98Z"/>
            <path class="cls-25" d="m183.22,386.07c-.28.24-.56.45-.86.65-21.64-12.63-34.79-25.35-38.38-29.04-.51-.52-1.31-.61-1.95-.21-17.11,10.62-33.87,11.01-39.66,10.77h0c-.2-.28-.41-.61-.62-1.01,4.89.27,22.13.34,39.77-10.61,1.03-.65,2.35-.49,3.17.36,3.59,3.68,16.8,16.45,38.54,29.07Z"/>
            <path class="cls-25" d="m177.52,387.18l3.73,1.99s4.36-3.62,5.72-8.82l-2.94-2.54s-3.12,6.8-6.52,9.37Z"/>
          </g>
        </g>
        <g>
          <g>
            <polygon class="cls-9" points="172.49 388.13 178.24 392.21 174.43 397.4 168.09 393.43 172.49 388.13"/>
            <g>
              <path class="cls-16" d="m177.06,392.74s-.8-2.55.02-3.52c.82-.97,12.83-4.31,15.31-6.64,2.48-2.33,4.09-.36,4.75.88.66,1.24-16.05,21.3-16.05,21.3,0,0-6.7-3.98-8.12-6.06-1.42-2.08,3-3.52,4.08-5.97Z"/>
              <g>
                <path class="cls-3" d="m184.61,391.56c-.04.12-.13.22-.25.27-.24.11-.51,0-.62-.23-.04-.08-.87-1.95-.62-3.47.33-2.02,2-2.57,2.07-2.59.25-.08.51.06.59.31.08.25-.06.51-.31.59-.05.02-1.19.41-1.43,1.85-.2,1.24.54,2.91.55,2.93.05.11.05.24.01.35Z"/>
                <path class="cls-3" d="m182.72,391.91c-.04.12-.13.22-.25.27-.24.11-.51,0-.62-.23-.04-.08-.87-1.95-.62-3.47.33-2.02,2-2.57,2.07-2.59.25-.08.51.06.59.31.08.25-.06.51-.31.59-.05.02-1.19.41-1.43,1.85-.2,1.24.54,2.91.55,2.93.05.11.05.24.02.35Z"/>
                <path class="cls-3" d="m186.58,390.66c-.04.12-.13.22-.25.27-.24.11-.51,0-.62-.23-.04-.08-.87-1.95-.62-3.47.33-2.02,2-2.57,2.07-2.59.25-.08.51.06.59.31.08.25-.06.51-.31.59-.05.02-1.19.41-1.43,1.85-.2,1.24.54,2.91.55,2.93.05.11.05.24.02.35Z"/>
              </g>
            </g>
          </g>
          <g>
            <path class="cls-14" d="m170.49,392.79c-.25.25-.52.47-.81.69-.51.41-1.07.8-1.7,1.17,0,0-25.08-11.67-41.02-24.09,0,0-27.57,14.17-41.91,12.53-11.3-1.28-9.94-18.66-6.91-23.36,0,0,35.97-3.06,49.29-1.25,13.34,1.8,45.11,28.46,45.11,28.46.5,2.3-.32,4.21-2.06,5.85Z"/>
            <path class="cls-25" d="m170.49,392.79c-.25.25-.52.47-.81.69-15.55-8.62-37.12-23.17-41.4-26.08-.53-.36-1.19-.41-1.77-.15-8.18,3.74-35.4,15.64-42.15,11.88-7.75-4.31-5.04-17.12-4.92-17.66l.96.22c-.02.12-2.66,12.63,4.45,16.59,6.51,3.62,35.5-9.29,41.25-11.92.9-.41,1.92-.33,2.74.23,4.3,2.93,26.11,17.63,41.65,26.21Z"/>
            <path class="cls-25" d="m164.46,393.86l3.73,1.99s4.36-3.62,5.72-8.82l-3.18-2.18s-2.87,6.44-6.27,9.01Z"/>
          </g>
        </g>
        <g>
          <path class="cls-16" d="m109.12,339.42c-.54,9.41-.9,9.46,1.79,17.54-15.89,5.64-21.33,6.73-34.15,6.3-.46-7.73-.96-16.81-.74-24.91.67-24.09,2.54-39.14,2.54-39.14l6.61-2.56,6.78-2.62,11.5.58,2.42.12,2.26.12s2.38,11.83,6.02,21.9c2.96,8.19-.44,9.83-2.29,11.78-.07.08-.14.15-.21.23-.26.3-.48.61-.63.96-.05.11-.09.22-.14.34-.11.31-.22.65-.33,1.02-.9,3.19-1.44,8.32-1.44,8.32Z"/>
          <path class="cls-31" d="m111.86,328.53c-.07.08-.14.15-.21.23-.26.3-.48.61-.63.96-.05.11-.09.22-.14.34-2.88,1.25-8.98,3.37-17.18,3.37-.37,0-.74,0-1.12-.01-.27,0-.48-.23-.48-.5,0-.27.22-.47.49-.47h.01c10.29.24,17.57-3.08,19.26-3.92Z"/>
          <path class="cls-6" d="m102.63,294.57c.83,3.64,2.61,11.01-2.85,11.15-6.57.17-13.14-6.3-14.61-9.08l6.78-2.62,10.68.54Z"/>
        </g>
        <path class="cls-23" d="m117.46,353.01c-9.33-5.89-21.82-17.59-21.82-17.59,0,0-5.51-6.57-17.08-36.22,0,0-6.21,7.16-1.9,23.19,4.2,15.62,10.95,21.22,10.95,21.22,0,0,17.25,12.36,26.38,15.42,1.44-2.41,2.15-3.55,3.47-6.02Z"/>
        <g>
          <path class="cls-15" d="m103.12,353.78h58.69c.99,0,1.8.81,1.8,1.8v1.11c0,.99-.81,1.8-1.8,1.8h-58.69c-.99,0-1.8-.81-1.8-1.8v-1.11c0-.99.81-1.8,1.8-1.8Z" transform="translate(-34.8 14.96) rotate(-5.71)"/>
          <g>
            <g>
              <polygon class="cls-12" points="163.69 355.38 112.98 360.29 125.63 331.24 176.33 326.33 163.69 355.38"/>
              <polygon class="cls-15" points="160.54 355.69 160.53 355.7 109.83 360.6 122.47 331.55 125.62 331.24 112.98 360.29 160.54 355.69"/>
            </g>
            <path class="cls-15" d="m148.53,342.92c.18,1.78-1.12,3.37-2.91,3.55-1.78.18-3.37-1.12-3.55-2.91-.18-1.78,1.12-3.37,2.91-3.55,1.78-.18,3.37,1.12,3.55,2.91Z"/>
          </g>
        </g>
        <g>
          <g>
            <g>
              <path class="cls-19" d="m106.81,277.33s2.17-2.27,3.42-.1c1.25,2.17-1.36,7.98-4.76,6.17l1.33-6.07Z"/>
              <path class="cls-3" d="m107.1,283.14c-.03.36.23.67.58.71.36.03.67-.23.71-.58.03-.36-.23-.67-.58-.71-.36-.03-.67.23-.71.58Z"/>
              <path class="cls-27" d="m106.43,281.63c.13.01.26-.06.31-.18.72-1.8,2.82-2.36,2.84-2.36.16-.04.25-.2.21-.35-.04-.15-.21-.24-.37-.2-.1.02-2.4.63-3.24,2.71-.06.15.02.31.17.37.03,0,.05.02.08.02Z"/>
              <path class="cls-27" d="m108.56,280.89c.06,0,.11,0,.17-.03.15-.07.2-.24.13-.38-.01-.02-.32-.58-1.04-.96-.14-.08-.33-.03-.41.11-.08.14-.03.31.11.39.55.3.8.73.8.73.05.09.14.14.24.15Z"/>
            </g>
            <path class="cls-6" d="m90.66,288.46l-.7,7.36s3.17,2.97,5.82,3.45c2.64.49,3.87-2.57,3.87-2.57l.65-6.85-9.64-1.39Z"/>
            <path class="cls-19" d="m90.59,289.18l-.28,2.94c1.6,2.16,4.71,3.17,9.49,2.92l.43-4.47-9.64-1.39Z"/>
            <path class="cls-6" d="m107.71,280.25c-.15.7-.32,1.42-.52,2.12-1.3,4.71-4.83,9.59-8.73,10.09-8.44,1.09-11.25-5.73-12.11-10.64-.1-.55.24-1.13.18-1.77-.13-1.52-.57-3.27-.55-4.95.02-1.17.06-2.31.11-3.35.14-2.92,2.08-5.44,4.82-6.23,3.94-1.15,9.82-1.79,14.97,1.93,1.9,1.38,2.96,3.69,2.78,6.09-.14,1.83-.42,4.22-.95,6.7Z"/>
            <path class="cls-19" d="m97.28,282.99c-.15-.01-.28-.14-.29-.3-.01-.18.12-.33.3-.34l1.12-.08-1.13-4.19c-.05-.17.06-.35.23-.4.17-.05.35.06.39.23l1.34,4.94-1.9.14s-.04,0-.05,0Z"/>
            <path class="cls-24" d="m105.3,271.88c3.09,1.78,1.7,5.52,2.6,7.55.06.13.13.16.21.1.55-2.53.83-4.96.98-6.83.19-2.45-.94-4.81-2.95-6.22-5.44-3.81-11.64-3.18-15.79-2.02-2.88.8-4.92,3.36-5.06,6.33-.05,1.06-.09,2.23-.1,3.42.51.37,1.8.64,1.77,1.51-.07,2.29-.11,3.86.38,3.77.82-.15,1.59-2.87.84-4.74,0,0,.85-1.13,3.97-2,4-1.12,7.92-2.96,7.92-2.96,0,0,1.55-.74,2.2-1.65,0,0,.66,2.38,3.01,3.74Z"/>
            <path class="cls-24" d="m102.1,278.17c-.07.71.24,1.31.69,1.36.45.04.87-.5.94-1.2.07-.71-.24-1.31-.69-1.36-.45-.04-.87.5-.94,1.2Z"/>
            <path class="cls-24" d="m92.52,277.28c-.07.71.24,1.31.69,1.36.45.04.87-.5.94-1.2s-.24-1.31-.69-1.36c-.45-.04-.87.5-.94,1.2Z"/>
            <path class="cls-24" d="m104.8,274.64c-.64-.19-1.94-.53-3.36-.61-.37-.02-.7.23-.67.53h0c.02.25.26.43.55.44.97.02,3.48.27,4.61.73.05-.17-.05-.36-.2-.53-.23-.26-.56-.45-.94-.56Z"/>
            <path class="cls-24" d="m91.71,273.55c.67-.07,2.01-.18,3.41-.01.37.04.64.35.57.64h0c-.06.24-.33.38-.62.33-.96-.15-3.47-.34-4.67-.09-.02-.17.11-.34.29-.49.27-.22.63-.34,1.02-.38Z"/>
            <path class="cls-3" d="m100.66,285.24c-.34,1.1-1.33,3.09-3.99,2.84-2.67-.25-3.24-2.22-3.37-3.54l7.36.7Z"/>
            <path class="cls-19" d="m96.51,290.01c.77.07,1.49-.28,1.52-.29.16-.08.22-.27.14-.42-.08-.16-.27-.22-.42-.14h0s-.59.28-1.18.23c-.63-.06-1.17-.45-1.18-.45-.14-.1-.34-.07-.44.07-.1.14-.07.34.06.44.03.02.68.5,1.49.58Z"/>
          </g>
          <g>
            <path class="cls-6" d="m86.93,275.42s-1.99-2.95-3.51-1.11c-1.52,1.85-.19,7.85,3.2,6.74l.31-5.64Z"/>
            <path class="cls-3" d="m84.55,280.99c-.03.36.23.67.58.71.36.03.67-.23.71-.58.03-.36-.23-.67-.58-.71-.36-.03-.67.23-.71.58Z"/>
            <path class="cls-19" d="m86.07,279.18c-.12-.01-.22-.1-.25-.23-.33-1.85-2.13-2.76-2.15-2.76-.14-.07-.19-.23-.13-.37.07-.14.23-.19.37-.13.08.04,2.06,1.03,2.45,3.16.03.15-.07.29-.22.32-.03,0-.05,0-.08,0Z"/>
            <path class="cls-19" d="m84.28,278.1c-.05,0-.1-.02-.14-.06-.12-.09-.14-.27-.05-.39.02-.02.39-.49,1.11-.73.14-.05.3.03.35.17.05.14-.03.3-.17.35-.56.19-.85.55-.86.55-.06.08-.15.11-.24.1Z"/>
          </g>
          <g>
            <path class="cls-24" d="m96.93,276.7c.02-.19,0-.38-.07-.55-.16-.47-.58-.83-1.11-.9l-4.66-.55c-.37-.04-.71.07-.98.28-.15.12-.27.26-.36.43-.07.14-.12.29-.14.46l-.07.6c-.12,1.01.16,2.02.77,2.78.61.75,1.36,1.19,2.22,1.31h.12c1,.13,1.98-.14,2.77-.77.8-.63,1.31-1.54,1.43-2.55l.06-.5s0-.02,0-.04Zm-.61.47c-.1.87-.54,1.64-1.22,2.18-.68.53-1.52.77-2.37.67h-.11c-.72-.11-1.35-.49-1.86-1.13-.52-.64-.76-1.5-.66-2.36l.07-.6c.05-.43.44-.73.87-.68l4.66.55c.43.05.73.44.68.87l-.06.5Z"/>
            <path class="cls-24" d="m106.8,277.54c-.03-.19-.1-.36-.2-.52-.21-.32-.55-.55-.96-.6l-4.66-.55c-.54-.06-1.04.21-1.31.65-.09.15-.15.32-.17.49,0,0,0,.02,0,.03l-.07.6c-.12,1.01.16,2.02.78,2.78.61.75,1.36,1.19,2.22,1.31h.12c1,.13,1.98-.14,2.77-.77.8-.63,1.31-1.54,1.43-2.55l.06-.5c.01-.12.01-.24,0-.36Zm-.6.8c-.1.87-.54,1.64-1.23,2.18-.68.53-1.52.77-2.37.67h-.11c-.72-.11-1.35-.49-1.86-1.13-.52-.64-.76-1.5-.66-2.36l.07-.6c.05-.43.44-.73.87-.68l4.66.55c.43.05.73.44.68.87l-.06.5Z"/>
            <path class="cls-24" d="m90.11,274.99c-.44-.29-1.61-.93-3.34-1l.14.57c1.44.1,2.43.61,2.84.86.14.08.21.14.21.14l.34-.43s-.08-.06-.2-.14Z"/>
            <path class="cls-24" d="m96.74,276.74l-.12-.54s.84-.18,1.69-.08c.9.11,1.45.45,1.47.47l-.3.47s-.47-.29-1.24-.38c-.75-.09-1.49.07-1.5.07Z"/>
            <path class="cls-24" d="m108.37,276.72c-1.05.05-1.94.36-1.99.38l.18.52s.92-.32,1.95-.35l-.14-.55Z"/>
          </g>
        </g>
      </g>
    </g>
    <g>
      <g>
        <path class="cls-16" d="m72.12,81.9c-2.69,0-4.87-2.19-4.87-4.87s2.19-4.87,4.87-4.87,4.87,2.19,4.87,4.87-2.19,4.87-4.87,4.87Zm0-8.21c-1.84,0-3.34,1.5-3.34,3.34s1.5,3.34,3.34,3.34,3.34-1.5,3.34-3.34-1.5-3.34-3.34-3.34Z"/>
        <path class="cls-14" d="m54.66,60.03c-2.69,0-4.87-2.19-4.87-4.87s2.19-4.87,4.87-4.87,4.87,2.19,4.87,4.87-2.19,4.87-4.87,4.87Zm0-8.21c-1.84,0-3.34,1.5-3.34,3.34s1.5,3.34,3.34,3.34,3.34-1.5,3.34-3.34-1.5-3.34-3.34-3.34Z"/>
        <g>
          <g>
            <path class="cls-14" d="m87.32,55.18c-.42,0-.76-.34-.76-.76v-3.37c0-.42.34-.76.76-.76s.76.34.76.76v3.37c0,.42-.34.76-.76.76Z"/>
            <path class="cls-14" d="m87.32,61.08c-.42,0-.76-.34-.76-.76v-3.37c0-.42.34-.76.76-.76s.76.34.76.76v3.37c0,.42-.34.76-.76.76Z"/>
          </g>
          <g>
            <path class="cls-14" d="m92.05,56.45h-3.03c-.42,0-.76-.34-.76-.76s.34-.76.76-.76h3.03c.42,0,.76.34.76.76s-.34.76-.76.76Z"/>
            <path class="cls-14" d="m85.62,56.45h-3.03c-.42,0-.76-.34-.76-.76s.34-.76.76-.76h3.03c.42,0,.76.34.76.76s-.34.76-.76.76Z"/>
          </g>
        </g>
        <g>
          <g>
            <path class="cls-16" d="m72.12,35.35c-.42,0-.76-.34-.76-.76v-3.37c0-.42.34-.76.76-.76s.76.34.76.76v3.37c0,.42-.34.76-.76.76Z"/>
            <path class="cls-16" d="m72.12,41.25c-.42,0-.76-.34-.76-.76v-3.37c0-.42.34-.76.76-.76s.76.34.76.76v3.37c0,.42-.34.76-.76.76Z"/>
          </g>
          <g>
            <path class="cls-16" d="m76.85,36.62h-3.03c-.42,0-.76-.34-.76-.76s.34-.76.76-.76h3.03c.42,0,.76.34.76.76s-.34.76-.76.76Z"/>
            <path class="cls-16" d="m70.42,36.62h-3.03c-.42,0-.76-.34-.76-.76s.34-.76.76-.76h3.03c.42,0,.76.34.76.76s-.34.76-.76.76Z"/>
          </g>
        </g>
      </g>
      <g>
        <path class="cls-14" d="m377.24,67.21c-2.69,0-4.87-2.19-4.87-4.87s2.19-4.87,4.87-4.87,4.87,2.19,4.87,4.87-2.19,4.87-4.87,4.87Zm0-8.21c-1.84,0-3.34,1.5-3.34,3.34s1.5,3.34,3.34,3.34,3.34-1.5,3.34-3.34-1.5-3.34-3.34-3.34Z"/>
        <path class="cls-14" d="m384.71,105.68c-2.69,0-4.87-2.19-4.87-4.87s2.19-4.87,4.87-4.87,4.87,2.19,4.87,4.87-2.19,4.87-4.87,4.87Zm0-8.21c-1.84,0-3.34,1.5-3.34,3.34s1.5,3.34,3.34,3.34,3.34-1.5,3.34-3.34-1.5-3.34-3.34-3.34Z"/>
        <g>
          <g>
            <path class="cls-16" d="m397.22,80.31c-.42,0-.76-.34-.76-.76v-3.37c0-.42.34-.76.76-.76s.76.34.76.76v3.37c0,.42-.34.76-.76.76Z"/>
            <path class="cls-16" d="m397.22,86.21c-.42,0-.76-.34-.76-.76v-3.37c0-.42.34-.76.76-.76s.76.34.76.76v3.37c0,.42-.34.76-.76.76Z"/>
          </g>
          <g>
            <path class="cls-16" d="m401.95,81.57h-3.03c-.42,0-.76-.34-.76-.76s.34-.76.76-.76h3.03c.42,0,.76.34.76.76s-.34.76-.76.76Z"/>
            <path class="cls-16" d="m395.51,81.57h-3.03c-.42,0-.76-.34-.76-.76s.34-.76.76-.76h3.03c.42,0,.76.34.76.76s-.34.76-.76.76Z"/>
          </g>
        </g>
        <g>
          <g>
            <path class="cls-16" d="m362.14,80.31c-.42,0-.76-.34-.76-.76v-3.37c0-.42.34-.76.76-.76s.76.34.76.76v3.37c0,.42-.34.76-.76.76Z"/>
            <path class="cls-16" d="m362.14,86.21c-.42,0-.76-.34-.76-.76v-3.37c0-.42.34-.76.76-.76s.76.34.76.76v3.37c0,.42-.34.76-.76.76Z"/>
          </g>
          <g>
            <path class="cls-16" d="m366.87,81.57h-3.03c-.42,0-.76-.34-.76-.76s.34-.76.76-.76h3.03c.42,0,.76.34.76.76s-.34.76-.76.76Z"/>
            <path class="cls-16" d="m360.44,81.57h-3.03c-.42,0-.76-.34-.76-.76s.34-.76.76-.76h3.03c.42,0,.76.34.76.76s-.34.76-.76.76Z"/>
          </g>
        </g>
      </g>
      <g>
        <path class="cls-16" d="m396.71,15.86v16.29c0,2.15-1.75,3.9-3.9,3.9h-29.57l-8.93,3.2c-.92.33-1.79-.57-1.44-1.48l3.38-8.72v-13.19c0-2.15,1.75-3.9,3.9-3.9h32.66c2.15,0,3.9,1.75,3.9,3.9Z"/>
        <g>
          <path class="cls-13" d="m390.48,20.47h-27.13c-.59,0-1.08-.48-1.08-1.08h0c0-.59.48-1.08,1.08-1.08h27.13c.59,0,1.08.48,1.08,1.08h0c0,.59-.48,1.08-1.08,1.08Z"/>
          <path class="cls-13" d="m390.48,24.8h-27.13c-.59,0-1.08-.48-1.08-1.08h0c0-.59.48-1.08,1.08-1.08h27.13c.59,0,1.08.48,1.08,1.08h0c0,.59-.48,1.08-1.08,1.08Z"/>
          <path class="cls-13" d="m390.48,29.13h-27.13c-.59,0-1.08-.48-1.08-1.08h0c0-.59.48-1.08,1.08-1.08h27.13c.59,0,1.08.48,1.08,1.08h0c0,.59-.48,1.08-1.08,1.08Z"/>
        </g>
      </g>
      <g>
        <path class="cls-14" d="m203.14,293.26v16.29c0,2.15-1.75,3.9-3.9,3.9h-29.57l-8.93,3.2c-.92.33-1.79-.57-1.44-1.48l3.38-8.72v-13.19c0-2.15,1.75-3.9,3.9-3.9h32.66c2.15,0,3.9,1.75,3.9,3.9Z"/>
        <g>
          <path class="cls-8" d="m196.91,297.86h-27.13c-.59,0-1.08-.48-1.08-1.08h0c0-.59.48-1.08,1.08-1.08h27.13c.59,0,1.08.48,1.08,1.08h0c0,.59-.48,1.08-1.08,1.08Z"/>
          <path class="cls-8" d="m196.91,302.2h-27.13c-.59,0-1.08-.48-1.08-1.08h0c0-.59.48-1.08,1.08-1.08h27.13c.59,0,1.08.48,1.08,1.08h0c0,.59-.48,1.08-1.08,1.08Z"/>
          <path class="cls-8" d="m196.91,306.53h-27.13c-.59,0-1.08-.48-1.08-1.08h0c0-.59.48-1.08,1.08-1.08h27.13c.59,0,1.08.48,1.08,1.08h0c0,.59-.48,1.08-1.08,1.08Z"/>
        </g>
      </g>
    </g>
    <g>
      <path class="cls-11" d="m419.55,401.65c0,1.95-11.12,3.53-24.84,3.53s-24.84-1.58-24.84-3.53,11.12-3.53,24.84-3.53,24.84,1.58,24.84,3.53Z"/>
      <g>
        <path class="cls-17" d="m404.44,401.22h-19.77c-2.69,0-5.07-1.73-5.9-4.29l-8.38-25.8c-.34-1.06.39-2.15,1.5-2.24,15.26-1.18,30.38-1.18,45.34,0,1.11.09,1.84,1.18,1.5,2.24l-8.38,25.81c-.83,2.56-3.21,4.29-5.9,4.29Z"/>
        <path class="cls-24" d="m416.97,370.77c0,.69-9.97,1.24-22.28,1.24s-22.28-.56-22.28-1.24,9.97-1.24,22.28-1.24,22.28.56,22.28,1.24Z"/>
        <g>
          <g>
            <path class="cls-21" d="m397.08,370.93l-2.17-.32c3.99-26.76,5.73-55.71,5.33-88.53l2.2-.03c.4,32.93-1.35,62.01-5.35,88.88Z"/>
            <path class="cls-21" d="m397.71,347.76c-.2-8.99-11.97-15.61-12.09-15.68l1.06-1.92c.53.29,12.99,7.29,13.22,17.55l-2.2.05Z"/>
            <path class="cls-21" d="m400.57,340.28l-2.16-.43c3.3-16.67,14.95-23.74,15.44-24.03l1.12,1.89c-.11.07-11.3,6.9-14.41,22.57Z"/>
          </g>
          <path class="cls-21" d="m361.08,330.78c-2.58,3.9.32,12.32.32,12.32l6.86,13.96,12.42-6.51s-1.61-10.78-.35-10.53c1.26.25,3.18,9.46,3.18,9.46l6-3.87s-4.62-12.04-2.08-10.88c2.55,1.16,5.29,8.74,5.29,8.74,0,0,1.66-.16,3.83-5.28,2.16-5.12.81-14.71-5.79-16.03-6.6-1.32-10.47,2.65-10.47,2.65-2.08-9.24-9.53-7.29-13.61-6.48-4.09.82-5.78,7.67-5.78,7.67,0,0,10.66-1.8,10,.69-.66,2.48-9.81,4.09-9.81,4.09Zm26.02-5.87s3.51-.7,4.19,1.49c.68,2.19-4.11,3.02-5.76,2.03-1.65-.98-.81-2.87,1.57-3.52Zm-19.35,9.68c1.88-1.86,4.19-1.18,4.19-1.18,0,0,.38,2-1.37,4.02-1.75,2.02-5.08,1.98-5.08,1.98,0,0,.38-2.96,2.26-4.82Z"/>
          <path class="cls-21" d="m362.68,279.06c-3.73,3.81-2.29,13.88-2.29,13.88l4.69,17.12,15.31-4.63s.52-12.43,1.87-11.88c1.36.55,1.53,11.29,1.53,11.29l7.56-3.04s-2.59-14.49.01-12.64c2.6,1.85,4.04,10.93,4.04,10.93,0,0,1.9.18,5.43-5.1,3.53-5.28,4.08-16.31-3.04-19.21-7.11-2.9-12.3.72-12.3.72-.34-10.8-9.1-10.22-13.86-10.19-4.76.04-8.13,7.36-8.13,7.36,0,0,12.33.28,11.06,2.92-1.28,2.64-11.87,2.47-11.87,2.47Zm30.42-.98s4.08-.03,4.38,2.57c.3,2.61-5.25,2.5-6.89,1.04-1.64-1.46-.29-3.39,2.51-3.61Zm-23.77,6.68c2.51-1.68,4.95-.42,4.95-.42,0,0,0,2.33-2.4,4.21-2.4,1.88-6.12,1.12-6.12,1.12,0,0,1.06-3.24,3.57-4.91Z"/>
          <path class="cls-21" d="m426.59,311.15c-.5-2.58,10.55-.02,10.55-.02,0,0-1.25-7.12-5.47-8.23-4.22-1.11-11.89-3.61-14.79,5.69,0,0-3.75-4.32-10.78-3.42-7.03.9-9.2,10.6-7.32,15.98,1.88,5.38,3.61,5.66,3.61,5.66,0,0,3.46-7.55,6.22-8.56,2.76-1.01-3.02,10.97-3.02,10.97l6,4.36s2.73-9.28,4.07-9.45c1.34-.17-1.19,10.73-1.19,10.73l12.52,7.5,8.28-13.79s3.69-8.41,1.29-12.56c0,0-9.47-2.27-9.97-4.85Zm-15.5.78c-1.81.89-6.77-.27-5.89-2.47.89-2.19,4.52-1.24,4.52-1.24,2.44.82,3.18,2.81,1.37,3.7Zm20.18,12.58s-3.49-.19-5.18-2.37c-1.68-2.18-1.13-4.2-1.13-4.2,0,0,2.48-.53,4.31,1.49,1.83,2.02,2,5.07,2,5.07Z"/>
        </g>
      </g>
    </g>
    <g>
      <ellipse class="cls-11" cx="287.7" cy="396.45" rx="47.68" ry="8.32"/>
      <g>
        <path class="cls-30" d="m252.35,384.08c-17.58,0-31.88-14.3-31.88-31.88s14.3-31.88,31.88-31.88,31.88,14.3,31.88,31.88-14.3,31.88-31.88,31.88Zm0-51.07c-10.58,0-19.19,8.61-19.19,19.19s8.61,19.19,19.19,19.19,19.19-8.61,19.19-19.19-8.61-19.19-19.19-19.19Z"/>
        <path class="cls-16" d="m323.04,301.05v92.09c0,7.23-70.69,7.23-70.69,0v-92.09c0-9.55,70.69-9.55,70.69,0Z"/>
        <path class="cls-30" d="m323.04,309.35v4.61c-7.32,1.9-19.2,4.09-35.07,4.09s-28.41-2.33-35.61-4.27v-4.63c6.72,1.89,18.9,4.46,35.61,4.46s28.19-2.4,35.07-4.27Z"/>
        <path class="cls-30" d="m323.04,320.38v4.61c-7.32,1.9-19.2,4.09-35.07,4.09s-28.41-2.33-35.61-4.26v-4.63c6.72,1.89,18.9,4.46,35.61,4.46s28.19-2.4,35.07-4.27Z"/>
        <path class="cls-24" d="m319.48,300.04c0,2.28-14.23,4.13-31.79,4.13s-31.79-1.85-31.79-4.13,14.23-4.13,31.79-4.13,31.79,1.85,31.79,4.13Z"/>
      </g>
    </g>
    <path class="cls-28" d="m96.93,135.26h0c0,1.58,1.28,2.86,2.86,2.86h125.96c1.58,0,2.86-1.28,2.86-2.86h0c0-1.58-1.28-2.86-2.86-2.86h-125.96c-1.58,0-2.86,1.28-2.86,2.86Z"/>
  </g>
</svg>