<?xml version="1.0" encoding="UTF-8"?>
<svg xmlns="http://www.w3.org/2000/svg" viewBox="0 0 418.62 401.2">
  <defs>
    <style>
      .cls-1 {
        fill: #739dad;
      }

      .cls-2 {
        fill: #fff;
      }

      .cls-3 {
        fill: #004fc5;
      }

      .cls-4 {
        fill: #f4b3b3;
      }

      .cls-5 {
        fill: #f6f6f6;
      }

      .cls-6 {
        fill: #038;
      }

      .cls-7, .cls-8 {
        fill: #223b77;
      }

      .cls-9 {
        fill: #ffaa95;
      }

      .cls-10 {
        fill: #d3e8ee;
      }

      .cls-11 {
        fill: #e71c4a;
      }

      .cls-12 {
        isolation: isolate;
      }

      .cls-12, .cls-13 {
        fill: none;
      }

      .cls-8 {
        mix-blend-mode: screen;
      }

      .cls-13 {
        stroke: #d3e8ee;
        stroke-miterlimit: 10;
      }

      .cls-14 {
        fill: #071f59;
      }

      .cls-15 {
        fill: #1d1a5e;
      }

      .cls-16 {
        fill: #e60b27;
      }

      .cls-17 {
        fill: #90c3dd;
      }

      .cls-18 {
        fill: #ed667d;
      }

      .cls-19 {
        fill: #d85c48;
      }

      .cls-20 {
        fill: #3a5791;
      }

      .cls-21 {
        fill: #c41414;
      }

      .cls-22 {
        fill: #ccc;
      }

      .cls-23 {
        fill: #ff8b6b;
      }

      .cls-24 {
        fill: #0172d0;
      }
    </style>
  </defs>
  <g class="cls-12">
    <g id="Layer_2" data-name="Layer 2">
      <g id="Profile">
        <g>
          <path class="cls-10" d="m183.42,107.58c-15.14-54.93-83.38-72.63-122.48-31.57-.56.59-1.12,1.19-1.68,1.8-56.06,60.94-29.58,211.13,87.42,249.19,117,38.06,238.7-31.45,245.54-93.58,6.84-62.14-47.14-81.66-130.91-64.29-47.33,9.82-68.46-27.35-77.88-61.55Z"/>
          <path class="cls-10" d="m290.08,116.01c-15.65,2.55-19.99,16.42-7.91,26.26,4,3.25,9.7,5.95,17.83,7.3,30.96,5.14,47.39-8.56,34.98-26.32-7.66-10.96-29.39-9.76-44.9-7.24Z"/>
          <path class="cls-10" d="m28.97,274.76c-11.85-10.54-25.35-5.15-25.36,10.43,0,5.15,1.5,11.28,5.58,18.44,15.55,27.26,36.54,31.37,42.49,10.53,3.67-12.86-10.97-28.96-22.72-39.41Z"/>
          <path class="cls-10" d="m374.95,299.65c-3.06,7.05,1.84,13.63,9.37,12.35,2.49-.43,5.19-1.72,7.95-4.44,10.51-10.36,8.9-21.64-2.18-23.01-6.84-.85-12.11,8.12-15.15,15.1Z"/>
          <path class="cls-10" d="m180.81,80.18c5.96,4.86,13.62,1.91,14.42-5.68.26-2.51-.25-5.46-2.12-8.86-7.13-12.92-18.42-14.43-22.74-4.13-2.67,6.36,4.54,13.86,10.44,18.67Z"/>
          <path class="cls-10" d="m93.12,343.31c-7.42,2.02-9.48,9.97-3.77,15.04,1.89,1.68,4.59,2.98,8.44,3.43,14.66,1.72,22.45-6.59,16.59-16.09-3.62-5.87-13.91-4.37-21.26-2.37Z"/>
        </g>
        <g>
          <g>
            <g>
              <path class="cls-10" d="m175.13,22.04c-.12.01-.24,0-.36-.05-1.24-.52-1.96-.77-1.97-.77-.38-.13-.58-.54-.46-.92.13-.38.54-.58.92-.46.03.01.78.26,2.08.81.37.16.54.58.39.95-.11.25-.34.41-.59.44Z"/>
              <g>
                <path class="cls-10" d="m212.07,60.91c.49,1.31.95,2.67,1.37,4.03.1.34.43.54.77.51.05,0,.09-.01.14-.03.38-.12.6-.52.48-.91-.43-1.39-.9-2.77-1.4-4.11-.14-.37-.56-.56-.93-.42-.37.14-.56.56-.42.93Z"/>
                <path class="cls-10" d="m214.57,69.05c.33,1.36.63,2.76.89,4.17.07.37.42.63.79.59.02,0,.04,0,.06,0,.39-.07.65-.45.58-.84-.26-1.43-.57-2.86-.91-4.25-.1-.39-.49-.63-.88-.53-.39.09-.63.49-.53.88Z"/>
                <path class="cls-10" d="m217.63,90.94c.36-.04.64-.34.65-.71.02-1.45.01-2.91-.03-4.34-.01-.4-.35-.71-.75-.7-.41.01-.71.35-.7.75.04,1.4.05,2.84.03,4.27,0,.4.31.73.71.74.03,0,.06,0,.09,0Z"/>
                <path class="cls-10" d="m216.75,76.62c-.4.05-.68.42-.63.81.08.66.16,1.32.23,1.97.08.75.15,1.52.21,2.28.03.4.38.7.78.67,0,0,.01,0,.02,0,.39-.04.68-.39.65-.78-.06-.77-.13-1.55-.21-2.32-.07-.66-.15-1.34-.24-2-.05-.39-.4-.67-.79-.63,0,0-.01,0-.02,0Z"/>
                <path class="cls-10" d="m210.45,56.98c.13.29.43.46.74.42.07,0,.15-.03.22-.06.37-.16.53-.59.37-.96-.59-1.32-1.23-2.64-1.9-3.91-.19-.35-.62-.49-.98-.3-.35.19-.49.62-.3.98.66,1.25,1.28,2.54,1.86,3.83Z"/>
                <path class="cls-10" d="m178.63,23.79c1.24.64,2.5,1.33,3.73,2.06.14.08.3.11.44.1.22-.02.43-.15.55-.35.2-.34.09-.79-.25-.99-1.26-.74-2.54-1.45-3.81-2.1-.36-.18-.79-.04-.98.32-.18.36-.04.79.32.98Z"/>
                <path class="cls-10" d="m189.43,30.61c.15.12.34.16.52.14.19-.02.37-.12.5-.28.24-.32.18-.77-.14-1.02-1.15-.88-2.34-1.73-3.53-2.54-.33-.22-.78-.14-1.01.2-.22.33-.14.78.2,1.01,1.17.79,2.34,1.63,3.46,2.49Z"/>
                <path class="cls-10" d="m201.61,42.48c.16.2.4.29.64.27.13-.01.26-.07.38-.16.31-.25.36-.71.11-1.02-.9-1.12-1.85-2.24-2.82-3.31-.27-.3-.73-.32-1.02-.05-.3.27-.32.73-.05,1.02.95,1.05,1.88,2.14,2.76,3.24Z"/>
                <path class="cls-10" d="m195.88,36.18c.16.16.38.22.58.2.16-.02.32-.09.44-.22.28-.29.27-.75-.01-1.02-1.03-1-2.11-1.99-3.21-2.94-.3-.26-.76-.23-1.02.08-.26.3-.23.76.08,1.02,1.08.93,2.13,1.9,3.14,2.88Z"/>
                <path class="cls-10" d="m206.49,49.44c.15.25.43.37.69.34.1-.01.21-.04.3-.1.34-.21.45-.65.24-1-.75-1.23-1.55-2.46-2.38-3.64-.23-.33-.68-.41-1.01-.18-.33.23-.41.68-.18,1.01.81,1.16,1.6,2.36,2.33,3.56Z"/>
              </g>
            </g>
            <g>
              <polygon class="cls-16" points="175.12 17.08 178.29 5.33 139.43 5.67 175.12 17.08"/>
              <polygon class="cls-21" points="139.43 5.67 173.23 19.92 173.32 19.95 174.78 22.36 175.12 17.08 139.43 5.67"/>
              <polygon class="cls-21" points="174.78 22.36 171.63 21.87 173.32 19.95 174.78 22.36"/>
              <polygon class="cls-16" points="169.07 18.16 173.32 19.95 164.56 29.83 139.43 5.67 169.07 18.16"/>
            </g>
          </g>
          <g>
            <rect class="cls-14" x="359.14" y="254.85" width="34.25" height="23.66"/>
            <polygon class="cls-20" points="359.14 254.85 376.26 266.67 393.39 254.85 359.14 254.85"/>
          </g>
        </g>
        <path class="cls-10" d="m418.62,390.59c0,5.86-90.86,10.61-202.94,10.61s-202.94-4.75-202.94-10.61,90.86-10.61,202.94-10.61,202.94,4.75,202.94,10.61Z"/>
        <g>
          <g>
            <path class="cls-4" d="m268.84,353.38l2.65.88,1.41.46,3.99,1.31s59.42-48.07,44.19-76.7c-4.69-8.81-18.86-8.27-26.81,21.2-7.37,27.32-25.44,52.84-25.44,52.84Z"/>
            <path class="cls-6" d="m271.49,354.25l1.41.46c11.94-12.57,21.15-27.42,26.96-38.09,6.9-12.67,10.62-22.35,10.66-22.45.13-.35-.04-.73-.39-.86-.35-.13-.73.04-.87.38-.04.1-3.74,9.71-10.59,22.31-5.84,10.72-15.13,25.69-27.18,38.25Z"/>
          </g>
          <g>
            <path class="cls-4" d="m129.57,90.75l-2.62.05-1.39.03-3.94.07S81.69,31.36,103.27,9.92c6.64-6.6,19.19-2.18,18.15,26.43-.97,26.52,8.15,54.4,8.15,54.4Z"/>
            <path class="cls-18" d="m126.95,90.8l-1.39.03c-7.21-14.57-11.35-30.43-13.6-41.6-2.67-13.27-3.32-22.97-3.33-23.07-.02-.35.24-.65.59-.67.35-.02.65.24.67.58,0,.1.66,9.74,3.31,22.93,2.26,11.23,6.44,27.22,13.75,41.81Z"/>
          </g>
          <g>
            <path class="cls-17" d="m142.32,100.03l-3.16,2.11-1.68,1.12-4.75,3.16S37.57,65.02,47.13,22.03c2.94-13.23,21.69-17.65,42.76,18.05,19.53,33.09,52.43,59.95,52.43,59.95Z"/>
            <path class="cls-1" d="m139.16,102.14l-1.68,1.12c-20.17-12.13-37.61-28.23-49.07-40.1-13.61-14.09-21.99-25.41-22.07-25.52-.3-.4-.21-.97.19-1.27.4-.3.97-.21,1.27.19.08.11,8.4,11.36,21.94,25.36,11.52,11.92,29.11,28.15,49.42,40.22Z"/>
          </g>
          <g>
            <path class="cls-17" d="m255.05,362.62l2.92,2.8,1.55,1.48,4.4,4.2s107.59-25.82,105.52-72.72c-.64-14.44-19.5-22.55-48.24,11.02-26.64,31.11-66.16,53.22-66.16,53.22Z"/>
            <path class="cls-1" d="m257.98,365.42l1.55,1.48c23.43-8.99,44.72-22.67,58.95-33,16.9-12.27,27.8-22.6,27.91-22.7.39-.37.4-.98.03-1.37-.37-.39-.98-.4-1.37-.04-.11.1-10.93,10.37-27.74,22.56-14.31,10.38-35.78,24.16-59.34,33.06Z"/>
          </g>
          <g>
            <path class="cls-4" d="m340.74,82.11c-4.09,11.63-15.86,10.68-16.08,20.27-.22,9.59-6.6,16.56-14.78,14.4-8.19-2.16-14.09-4.21-18.34,5.13-4.24,9.34-16.51,13.51-20.9,5.75-1.1-1.93-2.28-4.02-3.43-6.07-.32-.56-.63-1.12-.94-1.67-.07-.13-.15-.25-.22-.38-4.65-8.25-2.46-18.78,5.26-24.27,3.13-2.22,6.79-3.37,10.82-1.97,12.6,4.39,8.63-8.7,16.51-13.76,9.08-5.84,16.26,1.63,22.53-3.42,8.73-7.01,23.65-5.63,19.56,5.99Z"/>
            <path class="cls-18" d="m325.24,86.46l-58.02,35.13c-.32-.56-.63-1.12-.94-1.67l57.97-35.1c.45-.27,1.04-.13,1.31.32.27.45.13,1.04-.32,1.32Z"/>
          </g>
          <g>
            <path class="cls-17" d="m332.42,16.91c1.63,15.17-12.02,20.38-7.15,31.21,4.87,10.83,1.46,22.02-8.83,23.97-10.3,1.95-17.99,2.81-17.75,15.51.24,12.7-11.24,23.9-20.28,17.58-2.25-1.57-4.69-3.28-7.07-4.95-.65-.46-1.3-.91-1.94-1.36-.15-.1-.3-.21-.44-.31-9.59-6.74-12.77-19.67-7.07-29.91,2.31-4.15,5.79-7.39,11.03-7.97,16.42-1.82,5-14.32,11.1-24.18,7.03-11.36,19.03-6.85,23.35-15.83,6.01-12.49,23.41-18.91,25.04-3.74Z"/>
            <path class="cls-1" d="m317.42,30.03l-46.07,70.18c-.65-.46-1.3-.91-1.94-1.36l46.03-70.12c.36-.55,1.09-.7,1.64-.34.55.36.7,1.09.34,1.64Z"/>
          </g>
          <g>
            <path class="cls-4" d="m59.6,367.54c10.75,6.03,18.96-2.46,25.46,4.6,6.5,7.05,15.89,8.08,20.61,1.05,4.72-7.03,7.8-12.47,17.15-8.26,9.36,4.21,21.32-.76,19.49-9.49-.45-2.17-.95-4.52-1.44-6.83-.13-.63-.27-1.26-.4-1.87-.03-.14-.06-.29-.09-.43-1.96-9.27-10.56-15.73-19.98-14.75-3.81.4-7.33,1.95-9.42,5.66-6.56,11.62-12.22-.83-21.49.57-10.67,1.62-11.13,11.96-19.17,12.32-11.19.5-21.48,11.39-10.73,17.42Z"/>
            <path class="cls-18" d="m74.11,360.56l66.77-11.95c-.13-.63-.27-1.26-.4-1.87l-66.71,11.94c-.52.09-.87.59-.77,1.11.09.52.59.87,1.11.77Z"/>
          </g>
          <g>
            <path class="cls-17" d="m27.77,311.82c8.79,12.46,22.48,7.37,25.98,18.71,3.5,11.34,13.44,17.5,22.46,12.16,9.02-5.34,15.36-9.77,23.56-.08,8.2,9.69,24.22,10.52,26.83-.2.65-2.67,1.35-5.56,2.04-8.39.19-.77.37-1.55.56-2.3.04-.18.09-.35.13-.53,2.75-11.4-3.41-23.2-14.45-27.13-4.47-1.59-9.23-1.73-13.55,1.3-13.52,9.48-13.21-7.45-24.31-10.82-12.78-3.89-18.81,7.43-27.99,3.54-12.76-5.41-30.06,1.27-21.27,13.73Z"/>
            <path class="cls-1" d="m47.71,311.76l80.95,22.26c.19-.77.37-1.55.56-2.3l-80.88-22.24c-.63-.17-1.28.2-1.46.83s.2,1.28.83,1.46Z"/>
          </g>
          <g>
            <path class="cls-3" d="m111.41,204.08c-21.21-7.75-60.53-24.4-74.17-32.29-17.82-10.3-28.83-20.6-32.73-30.63-.26-.66.07-1.41.74-1.67.66-.26,1.41.07,1.67.73,6.82,17.52,33.27,34.01,104.49,61.18v2.67Z"/>
            <path class="cls-24" d="m22.12,161.29s-4.39,9.86-21.42,1.46c0,0,11-13.19,21.42-1.46Z"/>
            <path class="cls-24" d="m30.68,166.07s-10.09-3.84-2.65-21.31c0,0,13.78,10.25,2.65,21.31Z"/>
            <path class="cls-24" d="m9.7,147.74s-10.79-.25-9.6-19.21c0,0,16.41,5.07,9.6,19.21Z"/>
            <path class="cls-24" d="m47.6,176.23s-.8,10.76-19.67,8.62c0,0,5.89-16.13,19.67-8.62Z"/>
            <path class="cls-24" d="m57.05,179.78s-10.6-2.03-6.3-20.53c0,0,15.34,7.71,6.3,20.53Z"/>
            <path class="cls-24" d="m69.52,185.93s-.59,10.78-19.5,8.99c0,0,5.59-16.24,19.5-8.99Z"/>
          </g>
          <g>
            <path class="cls-3" d="m232.88,89.93c7.68-21.23,15.52-38.88,23.36-52.55,10.24-17.85,20.5-28.9,30.52-32.83.66-.26,1.41.07,1.67.73.26.66-.07,1.41-.73,1.67-17.5,6.88-36.27,37.75-54.34,89.33l-.48-6.35Z"/>
            <path class="cls-24" d="m266.69,22.22s-9.87-4.36-1.53-21.42c0,0,13.22,10.96,1.53,21.42Z"/>
            <path class="cls-24" d="m261.93,30.8s3.8-10.1,21.3-2.72c0,0-10.2,13.81-21.3,2.72Z"/>
            <path class="cls-24" d="m280.2,9.75s.22-10.79,19.17-9.67c0,0-5.02,16.42-19.17,9.67Z"/>
            <path class="cls-24" d="m251.84,47.75s-10.77-.76-8.69-19.64c0,0,16.15,5.84,8.69,19.64Z"/>
            <path class="cls-24" d="m248.32,57.22s2-10.61,20.51-6.37c0,0-7.66,15.37-20.51,6.37Z"/>
            <path class="cls-24" d="m242.21,69.7s-10.78-.56-9.06-19.47c0,0,16.26,5.53,9.06,19.47Z"/>
          </g>
        </g>
        <g>
          <path class="cls-14" d="m363.62,81.35c-3.03,0-5.5-2.47-5.5-5.5s2.47-5.5,5.5-5.5,5.5,2.47,5.5,5.5-2.47,5.5-5.5,5.5Zm0-9.27c-2.08,0-3.77,1.69-3.77,3.77s1.69,3.77,3.77,3.77,3.77-1.69,3.77-3.77-1.69-3.77-3.77-3.77Z"/>
          <path class="cls-14" d="m383.4,100.63c-3.03,0-5.5-2.47-5.5-5.5s2.47-5.5,5.5-5.5,5.5,2.47,5.5,5.5-2.47,5.5-5.5,5.5Zm0-9.27c-2.08,0-3.77,1.69-3.77,3.77s1.69,3.77,3.77,3.77,3.77-1.69,3.77-3.77-1.69-3.77-3.77-3.77Z"/>
          <g>
            <g>
              <path class="cls-16" d="m390.19,118.49c-.48,0-.86-.39-.86-.86v-3.8c0-.48.39-.86.86-.86s.86.39.86.86v3.8c0,.48-.39.86-.86.86Z"/>
              <path class="cls-16" d="m390.19,125.14c-.48,0-.86-.39-.86-.86v-3.8c0-.48.39-.86.86-.86s.86.39.86.86v3.8c0,.48-.39.86-.86.86Z"/>
            </g>
            <g>
              <path class="cls-16" d="m395.53,119.92h-3.42c-.48,0-.86-.39-.86-.86s.39-.86.86-.86h3.42c.48,0,.86.39.86.86s-.39.86-.86.86Z"/>
              <path class="cls-16" d="m388.27,119.92h-3.42c-.48,0-.86-.39-.86-.86s.39-.86.86-.86h3.42c.48,0,.86.39.86.86s-.39.86-.86.86Z"/>
            </g>
          </g>
          <g>
            <g>
              <path class="cls-16" d="m359.85,97.19c-.48,0-.86-.39-.86-.86v-3.8c0-.48.39-.86.86-.86s.86.39.86.86v3.8c0,.48-.39.86-.86.86Z"/>
              <path class="cls-16" d="m359.85,103.84c-.48,0-.86-.39-.86-.86v-3.8c0-.48.39-.86.86-.86s.86.39.86.86v3.8c0,.48-.39.86-.86.86Z"/>
            </g>
            <g>
              <path class="cls-16" d="m365.18,98.61h-3.42c-.48,0-.86-.39-.86-.86s.39-.86.86-.86h3.42c.48,0,.86.39.86.86s-.39.86-.86.86Z"/>
              <path class="cls-16" d="m357.93,98.61h-3.42c-.48,0-.86-.39-.86-.86s.39-.86.86-.86h3.42c.48,0,.86.39.86.86s-.39.86-.86.86Z"/>
            </g>
          </g>
        </g>
        <g>
          <path class="cls-14" d="m37.76,77.08c0-3.03,2.47-5.5,5.5-5.5s5.5,2.47,5.5,5.5-2.47,5.5-5.5,5.5-5.5-2.47-5.5-5.5Zm1.72,0c0,2.08,1.69,3.77,3.77,3.77s3.77-1.69,3.77-3.77-1.69-3.77-3.77-3.77-3.77,1.69-3.77,3.77Z"/>
          <path class="cls-14" d="m15.69,85.19c0-3.03,2.47-5.5,5.5-5.5s5.5,2.47,5.5,5.5-2.47,5.5-5.5,5.5-5.5-2.47-5.5-5.5Zm1.72,0c0,2.08,1.69,3.77,3.77,3.77s3.77-1.69,3.77-3.77-1.69-3.77-3.77-3.77-3.77,1.69-3.77,3.77Z"/>
          <g>
            <g>
              <path class="cls-16" d="m14.98,105.93c.48,0,.86-.39.86-.86v-3.8c0-.48-.39-.86-.86-.86s-.86.39-.86.86v3.8c0,.48.39.86.86.86Z"/>
              <path class="cls-16" d="m14.98,112.58c.48,0,.86-.39.86-.86v-3.8c0-.48-.39-.86-.86-.86s-.86.39-.86.86v3.8c0,.48.39.86.86.86Z"/>
            </g>
            <g>
              <path class="cls-16" d="m9.65,107.35h3.42c.48,0,.86-.39.86-.86s-.39-.86-.86-.86h-3.42c-.48,0-.86.39-.86.86s.39.86.86.86Z"/>
              <path class="cls-16" d="m16.9,107.35h3.42c.48,0,.86-.39.86-.86s-.39-.86-.86-.86h-3.42c-.48,0-.86.39-.86.86s.39.86.86.86Z"/>
            </g>
          </g>
          <g>
            <g>
              <path class="cls-16" d="m36.3,56.47c.48,0,.86-.39.86-.86v-3.8c0-.48-.39-.86-.86-.86s-.86.39-.86.86v3.8c0,.48.39.86.86.86Z"/>
              <path class="cls-16" d="m36.3,63.12c.48,0,.86-.39.86-.86v-3.8c0-.48-.39-.86-.86-.86s-.86.39-.86.86v3.8c0,.48.39.86.86.86Z"/>
            </g>
            <g>
              <path class="cls-16" d="m30.97,57.89h3.42c.48,0,.86-.39.86-.86s-.39-.86-.86-.86h-3.42c-.48,0-.86.39-.86.86s.39.86.86.86Z"/>
              <path class="cls-16" d="m38.23,57.89h3.42c.48,0,.86-.39.86-.86s-.39-.86-.86-.86h-3.42c-.48,0-.86.39-.86.86s.39.86.86.86Z"/>
            </g>
          </g>
        </g>
        <g>
          <g>
            <path class="cls-7" d="m287.23,81.52v289.12c0,9.06-7.34,16.41-16.41,16.41H126.85c-4.55,0-8.67-1.85-11.64-4.85-2.94-2.97-4.76-7.05-4.76-11.56V81.52c0-9.06,7.34-16.41,16.41-16.41h143.97c2.68,0,5.21.64,7.44,1.78,5.32,2.71,8.96,8.24,8.96,14.63Z"/>
            <path class="cls-15" d="m287.23,81.52v289.12c0,9.06-7.34,16.41-16.41,16.41H126.85c-4.55,0-8.67-1.85-11.64-4.85L278.27,66.89c5.32,2.71,8.96,8.24,8.96,14.63Z"/>
          </g>
          <g>
            <path class="cls-15" d="m109.93,117.12h.51v38.2h-.51c-3.03,0-5.49-2.46-5.49-5.49v-27.22c0-3.03,2.46-5.49,5.49-5.49Z"/>
            <path class="cls-15" d="m291.72,114.22h.42v31.1h-.42c-2.48,0-4.49-2.01-4.49-4.49v-22.12c0-2.48,2.01-4.49,4.49-4.49Z" transform="translate(579.38 259.54) rotate(180)"/>
            <path class="cls-15" d="m109.93,160.5h.51v38.2h-.51c-3.03,0-5.49-2.46-5.49-5.49v-27.22c0-3.03,2.46-5.49,5.49-5.49Z"/>
          </g>
          <path class="cls-2" d="m279.05,80.8v290.54c0,4.15-3.36,7.51-7.51,7.51H126.14c-3.09,0-5.75-1.87-6.9-4.54-.4-.91-.61-1.92-.61-2.97V80.8c0-4.15,3.36-7.51,7.51-7.51h145.4c1.1,0,2.14.23,3.07.66,2.61,1.17,4.43,3.8,4.43,6.85Z"/>
          <g>
            <path class="cls-10" d="m246.62,177.9c0,11.54-4.1,22.13-10.92,30.38-1.59,1.93-3.33,3.72-5.2,5.38-8.41,7.44-19.47,11.95-31.58,11.95s-23.17-4.51-31.58-11.95c-1.87-1.65-3.61-3.45-5.2-5.37-6.82-8.25-10.92-18.83-10.92-30.38,0-26.35,21.36-47.7,47.7-47.7s47.71,21.36,47.71,47.7Z"/>
            <rect class="cls-10" x="141.94" y="104.54" width="113.96" height="11.88" rx="5.43" ry="5.43"/>
            <rect class="cls-10" x="131.13" y="337.2" width="135.57" height="26.44" rx="13.22" ry="13.22"/>
            <g>
              <path class="cls-10" d="m246.99,287.43h-106.95c-4.92,0-8.9-2.51-8.9-5.61h0c0-3.1,3.99-5.61,8.9-5.61h106.95c4.92,0,8.9,2.51,8.9,5.61h0c0,3.1-3.99,5.61-8.9,5.61Z"/>
              <path class="cls-10" d="m246.99,307.43h-106.95c-4.92,0-8.9-2.51-8.9-5.61h0c0-3.1,3.99-5.61,8.9-5.61h106.95c4.92,0,8.9,2.51,8.9,5.61h0c0,3.1-3.99,5.61-8.9,5.61Z"/>
              <path class="cls-10" d="m246.99,267.45h-106.95c-4.92,0-8.9-2.51-8.9-5.61h0c0-3.1,3.99-5.61,8.9-5.61h106.95c4.92,0,8.9,2.51,8.9,5.61h0c0,3.1-3.99,5.61-8.9,5.61Z"/>
              <path class="cls-10" d="m246.99,247.46h-106.95c-4.92,0-8.9-2.51-8.9-5.61h0c0-3.1,3.99-5.61,8.9-5.61h106.95c4.92,0,8.9,2.51,8.9,5.61h0c0,3.1-3.99,5.61-8.9,5.61Z"/>
            </g>
            <circle class="cls-2" cx="198.92" cy="166.2" r="18.29" transform="translate(2.84 335.74) rotate(-80.73)"/>
            <path class="cls-2" d="m230.5,213.65c-8.41,7.44-19.47,11.95-31.58,11.95s-23.17-4.51-31.58-11.95c1.89-7.76,6.54-13.05,11.72-16.64,11.91-8.26,27.81-8.26,39.72,0,5.18,3.59,9.83,8.88,11.72,16.64Z"/>
            <circle class="cls-13" cx="198.84" cy="177.9" r="50.4"/>
          </g>
          <g>
            <rect class="cls-7" x="149.22" y="71.11" width="99.24" height="16.64" rx="7.61" ry="7.61"/>
            <rect class="cls-15" x="164.98" y="76.29" width="59.48" height="4.09" rx="1.87" ry="1.87"/>
            <circle class="cls-8" cx="236.49" cy="78.2" r="2.46"/>
          </g>
        </g>
        <g>
          <g>
            <path class="cls-9" d="m348.41,175.48c.35,3.91.72,7.66,1.06,10.81.54,5.07.97,8.56.97,8.56l3.76,13.31c1.29,4.55,6.34,6.87,10.63,4.87.07-.03.15-.07.22-.1,7.41-3.56,3.22-18.12,3.22-18.12l-1.41-.1c-.58-1.59-2.15-5.66-4.15-10.76-.24-.63-.49-1.27-.75-1.93-.43-1.08-.87-2.21-1.31-3.35-.64-1.62-1.3-3.3-1.96-4.99-4.9-12.46-10.12-25.65-10.12-25.65-2.01.97-1.24,15-.15,27.44Z"/>
            <path class="cls-23" d="m348.41,175.48c.35,3.91.72,7.66,1.06,10.81,5.47-1.69,9.12-5.12,11.18-7.62-.64-1.62-1.3-3.3-1.96-4.99l-10.27,1.79Z"/>
            <path class="cls-23" d="m359.24,199.54s.06,0,.09,0c.29,0,.54-.21.58-.5,1.04-6.92,2.1-12.03,2.8-15.1-.24-.63-.5-1.27-.75-1.92-.66,2.7-1.95,8.46-3.22,16.85-.05.32.17.62.49.67Z"/>
            <path class="cls-14" d="m364.63,173.3s-1.22,1.44-3.34,3.02c-2.57,1.93-7.29,4.29-11.96,4.33-.56-16.59-1.11-32.48-2.32-36.6,2.15,2.65,13.02,17.36,17.61,29.24Z"/>
            <path class="cls-9" d="m360.3,199.87s.91-16.62,4.43-20.17c3.52-3.56,6.75-4.93,10.07-4.83,3.32.1,6.45.49,6.26,1.86,0,0,7.63-1.2,11.05.75,3.42,1.96-10.07,3.78-14.08,3.91s-6.11,2.39-6.26,4.78-2.35,18.24-2.35,18.24l-9.12-4.53Z"/>
          </g>
          <g>
            <polygon class="cls-9" points="338.05 372.37 338.05 380.76 330.36 380.64 329.86 371.74 338.05 372.37"/>
            <path class="cls-16" d="m318.54,249.63c.05,1,.32,5.79.72,12.48,1.08,18.36,3.11,50.99,4.3,58.32,1.22,7.52.67,32.19.28,45.1-.06,2.2.77,4.19,2.17,5.65.52.54,1.12,1.01,1.78,1.39,1.15.65,2.46,1.02,3.86,1.02h5.86c4.41,0,7.96-3.65,7.82-8.06-.33-10.92-.73-30.83.03-46.21.73-14.64-.33-40.54-1.15-56.69h-.01c-.33-6.45-.62-11.33-.73-13.32l-24.93.33Z"/>
            <path class="cls-21" d="m343.47,249.3l-24.93.33c.05,1,.32,5.79.72,12.48,8.47,1.04,17.28,1.47,24.94.52-.33-6.45-.62-11.33-.73-13.32Z"/>
            <path class="cls-21" d="m326.1,342.5c-.22,8.26-.44,16.79-.3,23.67.04,1.93.11,3.58.2,5,.52.55,1.12,1.02,1.79,1.39-.14-1.64-.25-3.75-.31-6.43-.15-6.84.08-15.36.3-23.59.27-10.07.52-19.57-.03-23.62-1.2-8.86-3.87-56.87-4.57-69.69l-1.68.08c.7,12.81,3.38,60.92,4.59,69.84.53,3.91.28,13.36.01,23.35Z"/>
            <g>
              <path class="cls-14" d="m336.08,380.45s1.59-2.24,2.89-2.17c1.3.07,11.52,7.83,14.98,8.41,3.46.58,2.84,3.13,2.24,4.44-.6,1.31-27.46.12-27.46.12,0,0-.91-7.97-.09-10.43.82-2.46,4.76.27,7.43-.37Z"/>
              <g>
                <path class="cls-2" d="m341.75,385.9c-.12.04-.26.03-.38-.03-.23-.13-.32-.42-.19-.65.04-.08,1.05-1.93,2.45-2.67,1.86-.99,3.35.04,3.41.08.22.15.27.45.11.67-.15.22-.45.27-.67.11-.04-.03-1.08-.72-2.4-.02-1.14.61-2.05,2.26-2.06,2.28-.06.11-.16.19-.28.23Z"/>
                <path class="cls-2" d="m340.28,384.58c-.12.04-.26.03-.38-.03-.23-.13-.32-.42-.19-.65.04-.08,1.05-1.93,2.45-2.67,1.86-.99,3.35.04,3.41.08.22.15.27.45.11.67-.15.22-.45.27-.67.11-.04-.03-1.08-.72-2.4-.02-1.14.61-2.05,2.26-2.06,2.28-.06.11-.16.19-.28.23Z"/>
                <path class="cls-2" d="m343.72,386.96c-.12.04-.26.03-.38-.03-.23-.13-.32-.42-.19-.65.04-.08,1.05-1.93,2.45-2.67,1.86-.99,3.35.04,3.41.08.22.15.27.45.11.67-.15.22-.45.27-.67.11-.04-.03-1.08-.72-2.4-.02-1.14.61-2.05,2.26-2.06,2.28-.06.11-.16.19-.28.23Z"/>
              </g>
            </g>
          </g>
          <g>
            <polygon class="cls-9" points="300.63 372.37 299.8 380.75 292.94 380.64 292.44 371.74 300.63 372.37"/>
            <path class="cls-16" d="m286.51,319.32c.76,15.38.36,35.29.03,46.21-.13,4.41,3.41,8.06,7.82,8.06h5.86c1.29,0,2.52-.32,3.6-.87.65-.34,1.25-.76,1.77-1.27,1.57-1.47,2.52-3.59,2.45-5.92-.39-12.91-.94-37.57.28-45.1,1.21-7.46,3.29-41.09,4.36-59.26.35-6.07.59-10.41.66-11.48l-24.97.33c-.07,1.29-.19,3.29-.33,5.81-.81,14.53-2.37,46.54-1.52,63.48Z"/>
            <path class="cls-21" d="m288.03,255.84c4.7,1.28,14.02,3.64,24.64,5.34.35-6.07.59-10.41.66-11.48l-24.97.33c-.07,1.29-.19,3.29-.33,5.81Z"/>
            <path class="cls-21" d="m304.13,366.14c-.06,2.76-.18,4.91-.32,6.57.65-.34,1.25-.76,1.78-1.26.1-1.48.18-3.22.22-5.27.15-6.88-.08-15.42-.3-23.67-.27-10-.51-19.44.01-23.35,1.2-8.92,3.89-57.06,4.59-69.85l-1.67-.08c-.7,12.8-3.38,60.84-4.58,69.7-.55,4.05-.29,13.56-.03,23.62.22,8.24.44,16.75.3,23.59Z"/>
            <g>
              <path class="cls-14" d="m297.13,379.46s-3.5-.93-4.46-.91c-.97.02-7.44,7.26-9.62,7.69-3.95.77-3.96,6.95-1.55,7.25,6.96.89,18.87-2.05,18.87-2.05,0,0,1.1-7.92.62-10.41-.48-2.49-1.9-.83-3.85-1.57Z"/>
              <g>
                <path class="cls-2" d="m291.36,386.22c.12.03.26,0,.37-.07.22-.15.28-.45.13-.67-.05-.07-1.23-1.82-2.7-2.42-1.95-.81-3.33.36-3.39.41-.2.17-.22.48-.05.68.17.2.48.22.68.05.04-.03,1-.82,2.39-.25,1.19.49,2.25,2.06,2.26,2.07.07.11.18.18.3.2Z"/>
                <path class="cls-2" d="m292.7,384.77c.12.03.26,0,.37-.07.22-.15.28-.45.13-.67-.05-.07-1.23-1.82-2.7-2.42-1.95-.81-3.33.36-3.39.41-.2.17-.22.48-.05.68.17.2.48.22.68.05.04-.03,1-.82,2.39-.25,1.2.5,2.25,2.06,2.26,2.07.07.11.18.18.3.2Z"/>
                <path class="cls-2" d="m289.5,387.47c.12.03.26,0,.37-.07.22-.15.28-.45.13-.67-.05-.07-1.23-1.82-2.7-2.42-1.95-.81-3.33.36-3.39.41-.2.17-.22.48-.05.68.17.2.48.22.68.05.04-.03,1-.82,2.39-.25,1.2.5,2.25,2.06,2.26,2.07.07.11.18.18.3.2Z"/>
              </g>
            </g>
          </g>
          <g>
            <path class="cls-14" d="m350.28,252.2c-22.51,5.7-45.03,5.68-67.58,0-.07-6.45.02-28.07.48-50.38.03-1.17.05-2.36.08-3.54,0-.56.03-1.13.04-1.7,0-.59.02-1.18.04-1.77,0-.59.03-1.18.04-1.76.02-.59.03-1.18.05-1.77,0-.57.03-1.13.04-1.7,0-.59.03-1.18.05-1.76.02-.59.04-1.18.06-1.77.02-.59.03-1.18.06-1.76,0-.57.03-1.13.05-1.7.03-1.19.07-2.37.12-3.54.64-18.43,1.61-33.54,3.05-35.52,3.35-4.6,18.65-11.42,23.34-14.71v.74s2.94,3.89,6.24,3.6c3-.25,5.3-3.73,5.69-4.36,2.34,1.65,7.72,4.3,12.95,7.14,5.22,2.83,10.28,5.83,11.96,8.13,1.43,1.99,2.28,16.82,2.76,34.99v.06c0,.34.02.68.03,1.02v.05c0,.26,0,.52.02.79,0,.53.03,1.08.04,1.62,0,.56.03,1.12.04,1.7,0,.58.02,1.17.04,1.76,0,.59.02,1.18.04,1.77,0,.58.02,1.17.03,1.76,0,.56.02,1.12.03,1.7,0,.59.02,1.18.03,1.77,0,.58.02,1.17.03,1.76,0,.59.02,1.18.03,1.77,0,.56.02,1.12.02,1.7.02,1.18.04,2.36.05,3.54.26,22.24.16,43.88.08,50.38Z"/>
            <g>
              <path class="cls-20" d="m349.99,187.82h-66.48c.02-.59.04-1.18.06-1.77.02-.59.03-1.18.06-1.76h66.29c0,.58.02,1.17.04,1.76,0,.59.02,1.18.04,1.77Z"/>
              <path class="cls-20" d="m350.1,194.82h-66.77c0-.59.03-1.18.04-1.76.02-.59.03-1.18.05-1.77h66.63c0,.59.02,1.18.03,1.77,0,.58.02,1.17.03,1.76Z"/>
              <path class="cls-20" d="m350.2,201.82h-67.02c.03-1.17.05-2.36.08-3.54h66.9c.02,1.18.04,2.36.05,3.54Z"/>
            </g>
            <path class="cls-20" d="m342.99,169.63c1.94,2.62,4.76,8.55,6.03,11.29.17.38.32.69.43.93.14.31.22.5.23.51.04.09.1.17.18.22-.01-.54-.02-1.08-.04-1.62,0-.27-.01-.53-.02-.8v-.04c-.26-.56-.57-1.21-.91-1.93-1.44-3.01-3.5-7.07-5.06-9.18-.17-.23-.5-.28-.73-.11-.23.17-.28.5-.11.73Z"/>
            <path class="cls-20" d="m299.8,149.32s.01,0,.02,0c8.96-.29,15.88-4.01,20.1-7.09,4.57-3.33,7-6.56,7.1-6.69.17-.23.12-.56-.11-.73-.23-.17-.56-.12-.73.11-.1.13-9.77,12.84-26.4,13.36-.29,0-.51.25-.51.54,0,.28.24.51.52.51Z"/>
            <path class="cls-20" d="m330,234.66c.27,0,.5-.21.52-.49.02-.29-.2-.54-.49-.56-14.7-.96-23.48-8.42-28.24-14.5-5.18-6.61-6.91-13.09-6.92-13.15-.07-.28-.36-.45-.64-.37-.28.07-.45.36-.38.64.07.27,1.78,6.72,7.08,13.5,4.9,6.26,13.92,13.94,29.02,14.93.01,0,.02,0,.03,0Z"/>
            <path class="cls-20" d="m322.1,225.33c.23,0,.44-.15.5-.39.08-.28-.09-.57-.37-.64-12.78-3.45-15.24-14.13-15.27-14.23-.06-.28-.34-.46-.62-.4-.28.06-.46.34-.4.62.03.12.64,2.9,2.93,6.16,2.1,3,6.08,6.97,13.08,8.86.05.01.09.02.14.02Z"/>
          </g>
          <g>
            <path class="cls-9" d="m266.14,251.28c.32,4.57,3.07,7.97,3.08,10.98.01,3.01,3.49,1.04,1.88-4.91-1.61-5.95.78-11.7,2.05-11.65,1.27.06-.41,6.7.93,8.91,1.34,2.21,2.35-2.43,3.52-5.3,1.22-2.98.54-9.15-.57-13.5-1.1-4.35,4.32-31.93,3.61-39.7l1.96-10.08,1.14-5.88.21-6.14-10.45-4.14c-.39,1.97-.8,4.01-1.2,6.07-.18.91-.35,1.81-.52,2.72-1.4,7.35-2.65,14.59-3.16,19.23-1.41,12.84.91,39.03.91,39.03,0,0-3.7,10.06-3.4,14.35Z"/>
            <path class="cls-23" d="m271.8,178.68c2.36,2.69,6.12,6.12,10.81,7.37l1.14-5.88.21-6.14-10.45-4.14c-.39,1.97-.8,4.01-1.2,6.07-.18.91-.35,1.81-.52,2.72Z"/>
            <path class="cls-14" d="m268.9,172.85s1.25,1.48,3.42,3.1c2.63,1.97,6.63,4.17,11.42,4.21.58-17.01,1.43-31.39,2.67-35.61-2.2,2.72-12.79,16.12-17.5,28.3Z"/>
          </g>
          <path class="cls-20" d="m290.91,167.92c-1.94,2.62-4.76,8.55-6.03,11.29-.17.38-.32.69-.43.93-.14.31-.22.5-.23.51-.09.2-.28.31-.48.31h-.01c0-.27.01-.53.02-.8-.15,0-.31,0-.46,0,.07-.15.24-.53.48-1.06.31-.67.73-1.58,1.23-2.62,1.44-3.01,3.5-7.07,5.06-9.18.17-.23.5-.28.73-.11.23.17.28.5.11.73Z"/>
          <g>
            <rect class="cls-22" x="352.66" y="171.95" width="50" height="6.02" rx="2.31" ry="2.31" transform="translate(755.33 349.91) rotate(180)"/>
            <path class="cls-7" d="m402.66,177.97l9.4-35.2c.53-1.98-.96-3.92-3.01-3.92h-20.68c-1.4,0-2.62.93-3,2.27l-10.35,36.85h27.64Z"/>
            <path class="cls-22" d="m385.37,141.12l-10.26,36.54h-2.36l10.26-36.54c.38-1.34,1.6-2.27,3-2.27h2.36c-1.4,0-2.62.93-3,2.27Z"/>
            <path class="cls-8" d="m390.69,159.98c-.54,2.32.91,4.2,3.23,4.2s4.64-1.88,5.18-4.2c.54-2.32-.91-4.2-3.23-4.2s-4.64,1.88-5.18,4.2Z"/>
          </g>
          <g>
            <path class="cls-15" d="m301.64,104.49s-1.39.67-1.72-2.03c-.32-2.71.78-3.16,0-4.46-.78-1.3-1.3-2.99,0-4.16,1.3-1.17-1.31-4.19.19-5.68,1.51-1.49,3.94-1.81,4.92-3.5.97-1.69,2.51-4.92,7.12-4.85s6.08,3.77,8.51,2.8,4.22-1.49,7.05.52c2.82,2.01-.17,4.74,2.46,6.1,2.63,1.36.54,5.32,3.54,7.66,2.26,1.76-.09,8.64-4.67,7.6-4.58-1.04-27.4,0-27.4,0Z"/>
            <g>
              <path class="cls-23" d="m302.78,105.59s-2.53-3.38-4.42-.58c-1.88,2.79.78,11.04,5.39,9.03l-.97-8.44Z"/>
              <path class="cls-19" d="m302.75,111.48c-.17,0-.33-.11-.37-.28-.71-2.55-3.35-3.58-3.38-3.59-.2-.08-.3-.3-.23-.5.08-.2.3-.3.5-.23.12.05,3.03,1.17,3.85,4.11.06.21-.06.42-.27.48-.04,0-.07.01-.11.01Z"/>
              <path class="cls-19" d="m300.09,110.2c-.07,0-.15-.02-.21-.06-.18-.12-.23-.36-.12-.54.02-.03.49-.74,1.46-1.18.2-.09.43,0,.51.2s0,.43-.2.51c-.75.34-1.12.88-1.13.89-.07.12-.2.18-.33.18Z"/>
            </g>
            <g>
              <path class="cls-23" d="m328.88,105.59s2.53-3.38,4.42-.58c1.88,2.79-.78,11.04-5.39,9.03l.97-8.44Z"/>
              <path class="cls-19" d="m328.91,111.48c.17,0,.33-.11.37-.28.71-2.55,3.35-3.58,3.38-3.59.2-.08.3-.3.23-.5-.08-.2-.3-.3-.5-.23-.12.05-3.03,1.17-3.85,4.11-.06.21.06.42.27.48.04,0,.07.01.11.01Z"/>
              <path class="cls-19" d="m331.57,110.2c.07,0,.15-.02.21-.06.18-.12.23-.36.12-.54-.02-.03-.49-.74-1.46-1.18-.2-.09-.43,0-.51.2-.09.2,0,.43.2.51.75.34,1.12.88,1.13.89.07.12.2.18.33.18Z"/>
            </g>
            <path class="cls-9" d="m322.07,121.03v8.2s-2.45,4.18-5.75,4.46c-3.3.29-6.24-3.6-6.24-3.6v-8.49l11.99-.58Z"/>
            <path class="cls-23" d="m322.07,121.03v3.64c-2.22,2.46-6.16,3.08-11.99,2.22v-5.28l11.99-.58Z"/>
            <path class="cls-9" d="m330.71,99.96c-.15,3.19-.46,7.17-1.06,10.36-.15.79-.32,1.54-.51,2.21-1.73,6.04-6.04,16.41-18.13,12.09-5.34-1.9-7.81-7.85-8.91-13.9-.75-4.11-.86-8.26-.81-11.22.06-3.03,1.71-5.79,4.34-7.29,7.13-4.04,14.66-2.54,19.62-.63,3.44,1.32,5.64,4.7,5.47,8.37Z"/>
            <ellipse class="cls-15" cx="309.47" cy="106.66" rx="1.01" ry="1.59"/>
            <path class="cls-15" d="m322.58,106.66c0,.88-.45,1.59-1.01,1.59s-1.01-.71-1.01-1.59.45-1.59,1.01-1.59,1.01.71,1.01,1.59Z"/>
            <path class="cls-15" d="m325.65,101.44s-4.16-1.65-7.37-.26l.32,1.78s4.71-.4,7.08.56c.21-.69.24-1.38-.03-2.09Z"/>
            <path class="cls-15" d="m305.85,101.45s4.19-1.66,7.42-.26l-.32,1.8s-4.74-.4-7.13.57c-.21-.69-.25-1.39.03-2.1Z"/>
            <path class="cls-23" d="m315.97,113.3c.66,0,1.31-.26,1.41-.3.2-.08.29-.31.21-.51-.08-.2-.31-.29-.51-.21-.35.14-1.2.37-1.56.15-.07-.04-.17-.13-.19-.36-.14-1.36.23-5.92.24-5.97.02-.21-.14-.4-.36-.42-.22-.02-.4.14-.42.36-.02.19-.38,4.68-.23,6.11.06.54.34.81.57.95.25.15.55.2.85.2Z"/>
            <path class="cls-5" d="m310.65,115.28c.32,1.6,1.38,4.55,4.94,4.55s4.58-2.69,4.92-4.55h-9.86Z"/>
            <path class="cls-23" d="m315.54,122.24c1.01,0,1.86-.51,1.9-.53.18-.11.24-.35.13-.53-.11-.18-.35-.24-.53-.13,0,0-.71.42-1.5.42-.72,0-1.41-.41-1.42-.42-.18-.11-.42-.06-.54.13-.11.18-.06.42.13.54.04.02.88.53,1.83.53Z"/>
            <path class="cls-15" d="m330.71,99.96c-.15,3.19-.46,7.17-1.06,10.36l-1.74-.12s.42-2.69.62-4.44c.19-1.75.53-5.03-.97-5.44-1.49-.41-.62-4.14-2.69-5.76-2.08-1.62-6.69-3.05-9.75-1.17-3.06,1.88-6.54.84-7.96,1.17-1.41.32-3.33,2.27-2.81,4.09.52,1.82-1.04,2.92-1.41,4.8-.38,1.88.83,6.95.83,6.95l-1.66.34c-.75-4.11-.86-8.26-.81-11.22.06-3.03,1.71-5.79,4.34-7.29,7.13-4.04,14.66-2.54,19.62-.63,3.44,1.32,5.64,4.7,5.47,8.37Z"/>
            <g>
              <path class="cls-24" d="m316.93,105.53v.64c0,1.29.5,2.5,1.42,3.41.9.9,2.09,1.39,3.36,1.39h.16c1.1-.02,2.1-.47,2.97-1.32.88-.86,1.38-2.08,1.38-3.36v-.76c0-.21-.04-.41-.11-.6-.08-.23-.21-.43-.38-.59-.31-.31-.72-.49-1.19-.49h-5.92c-.67,0-1.25.39-1.52.96-.1.21-.16.44-.16.68,0,.01,0,.03,0,.04Zm.7,0c0-.54.44-.99.98-.99h5.92c.54,0,.98.44.98.99v.76c0,1.09-.43,2.14-1.17,2.86-.74.72-1.58,1.1-2.5,1.12h-.14c-1.08,0-2.1-.42-2.87-1.19-.78-.78-1.21-1.81-1.21-2.91v-.64Z"/>
              <path class="cls-24" d="m304.37,105.53v.64c0,1.29.51,2.5,1.42,3.41.9.9,2.09,1.39,3.36,1.39h.16c1.1-.02,2.1-.47,2.97-1.32.88-.86,1.38-2.08,1.38-3.36v-.76s0-.02,0-.03c0-.23-.05-.45-.14-.64-.26-.59-.85-1.01-1.54-1.01h-5.92c-.52,0-.98.24-1.29.61-.15.18-.26.39-.32.62-.04.14-.07.3-.07.45Zm.7,0c0-.54.44-.99.98-.99h5.92c.54,0,.98.44.98.99v.76c0,1.09-.43,2.14-1.17,2.86-.74.72-1.58,1.1-2.5,1.12h-.14c-1.08,0-2.1-.42-2.87-1.19-.78-.78-1.21-1.81-1.21-2.91v-.64Z"/>
              <path class="cls-24" d="m325.46,104.48l.37.59s.1-.06.28-.14c.6-.28,2.11-.85,4.18-.63.44-.27.94-.45,1.45-.4v-.05c-3.05-.77-5.27.11-6.01.48-.16.08-.25.13-.27.14Z"/>
              <path class="cls-24" d="m317.16,105.55l.23-.66s-1.02-.35-2.1-.35c-1.15,0-1.89.35-1.92.37l.31.63s.63-.3,1.61-.3,1.86.31,1.87.31Z"/>
              <path class="cls-24" d="m300.24,103.87v.03c.47.04.92.25,1.3.51,1.59.02,3.17.78,3.19.79l.31-.63c-.11-.05-2.69-1.3-4.8-.71Z"/>
            </g>
          </g>
        </g>
        <g>
          <g>
            <path class="cls-9" d="m64.45,155.25l-9.49,32.09-.18.6c0,.15,0,.3-.01.47-.33,7.96-7.65,32.63-7.02,36.76.65,4.22.73,10.12-.69,12.82-1.37,2.61-2.75,6.9-3.82,4.69-1.07-2.21,1.13-8.35-.07-8.51-1.2-.17-3.98,5.06-3,10.83.98,5.77-2.49,7.32-2.23,4.47.26-2.85-2.03-6.32-1.92-10.67.11-4.09,4.53-13.26,4.53-13.26,0,0,.19-24.99,2.7-37.01,2.51-12.02,11.14-45.98,11.14-45.98,5.39-1.17,10.06,12.7,10.06,12.7Z"/>
            <path class="cls-23" d="m54.8,185.86l-.17.58c0,.14,0,.29-.01.45-1.75-.6-3.43-1.11-4.66-1.34-.28-.05-.46-.32-.41-.6.05-.28.32-.47.6-.41,1.26.24,2.92.73,4.65,1.32Z"/>
          </g>
          <g>
            <path class="cls-9" d="m85.61,272.43c.03,7.47.13,14.22.31,20.37,1.34,46.92,6.55,62.23,8.96,87.8,2.71,1.19,5.27,1.41,7.57,0l1.32-84.18.37-23.99h-18.53Z"/>
            <path class="cls-23" d="m85.61,272.43c.03,7.47.13,14.22.31,20.37,1.95-.72,4.15-1.12,7.14-.05,5,1.8,6.33,3.65,10.71,3.67l.37-23.99h-18.53Z"/>
            <g>
              <path class="cls-16" d="m100.95,380.45s1.59-2.24,2.89-2.17c1.3.07,11.52,7.83,14.98,8.41,3.46.58,2.84,3.13,2.24,4.44-.6,1.31-27.46.12-27.46.12,0,0-.91-7.97-.09-10.43.82-2.46,4.76.27,7.43-.37Z"/>
              <g>
                <path class="cls-2" d="m106.62,385.9c-.12.04-.26.03-.38-.03-.23-.13-.32-.42-.19-.65.04-.08,1.05-1.93,2.45-2.67,1.86-.99,3.35.04,3.41.08.22.15.27.45.11.67-.15.22-.45.27-.67.11-.04-.03-1.08-.72-2.4-.02-1.14.61-2.05,2.26-2.06,2.28-.06.11-.16.19-.28.23Z"/>
                <path class="cls-2" d="m105.16,384.58c-.12.04-.26.03-.38-.03-.23-.13-.32-.42-.19-.65.04-.08,1.05-1.93,2.45-2.67,1.86-.99,3.35.04,3.41.08.22.15.27.45.11.67-.15.22-.45.27-.67.11-.04-.03-1.08-.72-2.4-.02-1.14.61-2.05,2.26-2.06,2.28-.06.11-.16.19-.28.23Z"/>
                <path class="cls-2" d="m108.6,386.96c-.12.04-.26.03-.38-.03-.23-.13-.32-.42-.19-.65.04-.08,1.05-1.93,2.45-2.67,1.86-.99,3.35.04,3.41.08.22.15.27.45.11.67-.15.22-.45.27-.67.11-.04-.03-1.08-.72-2.4-.02-1.14.61-2.05,2.26-2.06,2.28-.06.11-.16.19-.28.23Z"/>
              </g>
            </g>
          </g>
          <g>
            <path class="cls-9" d="m59.22,272.43l.31,19.6,1.38,88.4,6.71.35c2.39-25.43,8.44-39.48,9.82-85.76.2-6.74.32-14.23.34-22.6h-18.56Z"/>
            <path class="cls-23" d="m59.22,272.43l.31,19.6c2.11-.12,4.82.06,7.66,1.09,3.97,1.45,7.42,1.96,10.25,1.91.2-6.74.32-14.23.34-22.6h-18.56Z"/>
            <g>
              <path class="cls-16" d="m65.07,379.78s-3.48-1-4.44-1c-.97,0-7.58,7.12-9.77,7.5-3.97.7-4.09,6.87-1.69,7.22,6.94,1.02,18.9-1.7,18.9-1.7,0,0,1.25-7.9.82-10.39-.43-2.49-1.89-.87-3.82-1.64Z"/>
              <g>
                <path class="cls-2" d="m59.18,386.43c.12.03.26.01.37-.06.22-.14.29-.44.14-.67-.05-.07-1.2-1.84-2.65-2.47-1.93-.85-3.34.3-3.4.35-.2.17-.23.47-.06.68.17.2.47.23.68.06.04-.03,1.02-.8,2.39-.2,1.18.52,2.21,2.1,2.22,2.11.07.11.18.18.29.21Z"/>
                <path class="cls-2" d="m60.54,385c.12.03.26.01.37-.06.22-.14.29-.44.14-.67-.05-.08-1.2-1.84-2.65-2.47-1.93-.85-3.34.3-3.4.35-.2.17-.23.47-.06.68.17.2.47.23.68.06.04-.03,1.02-.8,2.39-.2,1.19.52,2.21,2.1,2.22,2.11.07.11.18.18.29.21Z"/>
                <path class="cls-2" d="m57.29,387.64c.12.03.26.01.37-.06.22-.14.29-.44.14-.67-.05-.07-1.2-1.84-2.65-2.47-1.93-.85-3.34.3-3.4.35-.2.17-.23.47-.06.68.17.2.47.23.68.06.04-.03,1.02-.8,2.39-.2,1.19.52,2.21,2.1,2.22,2.11.07.11.18.18.29.21Z"/>
              </g>
            </g>
          </g>
          <g>
            <path class="cls-14" d="m45.85,284.53s.09.33.36.81c.95,1.7,4.09,5.29,12.99,2.88.29-.08.56-.15.83-.21,1.86-.42,3.38-.47,4.75-.32,5.17.57,8.18,3.96,18.74.9,9.53-2.76,11.99-.32,16.42,1,.87.26,1.82.48,2.91.61.52.06,1.05.08,1.57.07,4.15-.09,8.14-2.33,10.54-3.99,1.42-.98,2.27-1.75,2.27-1.75-.2-.79-.41-1.63-.61-2.53-.8-3.45-1.61-7.63-2.41-12.19-.24-1.37-.48-2.77-.72-4.2-.58-3.47-1.15-7.07-1.69-10.68h0s0-.04-.01-.06c-.23-1.49-.45-2.99-.66-4.47-.01-.07-.02-.14-.03-.21-.69-4.76-1.34-9.4-1.9-13.61-.21-1.61-.42-3.15-.61-4.61-1.05-8.02-1.7-13.55-1.7-13.55l-25.35.96-25.27-.96s-.34,2.79-.91,7.29c-.18,1.41-.38,2.99-.61,4.7-.59,4.51-1.32,9.94-2.14,15.68-.22,1.5-.44,3.02-.66,4.56-1.59,10.74-3.42,21.99-5.17,29.94-.31,1.42-.62,2.73-.93,3.92Z"/>
            <g>
              <path class="cls-20" d="m101.08,226.02c0,1.32,1.07,2.38,2.38,2.38s2.38-1.07,2.38-2.38-1.07-2.38-2.38-2.38-2.38,1.07-2.38,2.38Z"/>
              <path class="cls-20" d="m95.17,235.25c0,1.32,1.07,2.38,2.38,2.38s2.38-1.07,2.38-2.38-1.07-2.38-2.38-2.38-2.38,1.07-2.38,2.38Z"/>
              <circle class="cls-20" cx="85.92" cy="230.48" r="2.38"/>
              <path class="cls-20" d="m101.89,245.05c0,1.32,1.07,2.38,2.38,2.38s2.38-1.07,2.38-2.38-1.07-2.38-2.38-2.38-2.38,1.07-2.38,2.38Z"/>
              <path class="cls-20" d="m87.36,244.03c0,1.32,1.07,2.38,2.38,2.38s2.38-1.07,2.38-2.38-1.07-2.38-2.38-2.38-2.38,1.07-2.38,2.38Z"/>
              <path class="cls-20" d="m107.05,234.21c0,1.24.95,2.26,2.16,2.37-.21-1.61-.42-3.15-.61-4.61-.91.34-1.55,1.21-1.55,2.23Z"/>
              <circle class="cls-20" cx="66.06" cy="258.02" r="2.38"/>
              <path class="cls-20" d="m64.8,245.05c0,1.32,1.07,2.38,2.38,2.38s2.38-1.07,2.38-2.38-1.07-2.38-2.38-2.38-2.38,1.07-2.38,2.38Z"/>
              <path class="cls-20" d="m51.96,250.67c.29.12.6.19.93.19,1.31,0,2.38-1.07,2.38-2.38s-1.07-2.38-2.38-2.38c-.09,0-.18,0-.27.02-.22,1.5-.44,3.02-.66,4.56Z"/>
              <path class="cls-20" d="m62.42,267.53c0,1.32,1.07,2.38,2.38,2.38s2.38-1.07,2.38-2.38-1.07-2.38-2.38-2.38-2.38,1.07-2.38,2.38Z"/>
              <path class="cls-20" d="m52.23,263.73c0,1.32,1.07,2.38,2.38,2.38s2.38-1.07,2.38-2.38-1.07-2.38-2.38-2.38-2.38,1.07-2.38,2.38Z"/>
              <path class="cls-20" d="m73.01,272.43c0,1.32,1.07,2.38,2.38,2.38s2.38-1.07,2.38-2.38-1.07-2.38-2.38-2.38-2.38,1.07-2.38,2.38Z"/>
              <path class="cls-20" d="m75.84,282.98c0,1.32,1.07,2.38,2.38,2.38s2.38-1.07,2.38-2.38-1.07-2.38-2.38-2.38-2.38,1.07-2.38,2.38Z"/>
              <path class="cls-20" d="m99.93,289.21c0,.13.01.26.03.38.87.26,1.82.48,2.91.61.52.06,1.05.08,1.57.07.16-.32.25-.68.25-1.05,0-1.32-1.07-2.38-2.38-2.38s-2.38,1.06-2.38,2.38Z"/>
              <path class="cls-20" d="m60.04,287.89s0,.08,0,.12c1.86-.42,3.38-.47,4.75-.32-.1-1.22-1.12-2.18-2.37-2.18-1.31,0-2.38,1.06-2.38,2.38Z"/>
              <path class="cls-20" d="m51.78,275.98c0,1.32,1.07,2.38,2.38,2.38s2.38-1.07,2.38-2.38-1.07-2.38-2.38-2.38-2.38,1.07-2.38,2.38Z"/>
              <path class="cls-20" d="m45.85,284.53s.09.33.36.81c.11.02.23.03.35.03,1.31,0,2.38-1.07,2.38-2.38,0-1.24-.95-2.26-2.16-2.37-.31,1.42-.62,2.73-.93,3.92Z"/>
              <path class="cls-20" d="m103.46,260.1c0,1.32,1.07,2.38,2.38,2.38s2.38-1.07,2.38-2.38-1.07-2.38-2.38-2.38-2.38,1.07-2.38,2.38Z"/>
              <path class="cls-20" d="m109.74,252.57c0,1.21.9,2.21,2.07,2.36,0-.02,0-.04-.01-.06-.23-1.49-.45-2.99-.66-4.47-.82.38-1.4,1.21-1.4,2.17Z"/>
              <path class="cls-20" d="m112.53,267.53c0,1.08.72,1.99,1.7,2.28-.24-1.37-.48-2.77-.72-4.2-.59.43-.98,1.13-.98,1.92Z"/>
              <path class="cls-20" d="m97.55,268.54c0,1.32,1.07,2.38,2.38,2.38s2.38-1.07,2.38-2.38-1.07-2.38-2.38-2.38-2.38,1.07-2.38,2.38Z"/>
              <path class="cls-20" d="m84.98,266.67c0,1.32,1.07,2.38,2.38,2.38s2.38-1.07,2.38-2.38-1.07-2.38-2.38-2.38-2.38,1.07-2.38,2.38Z"/>
              <path class="cls-20" d="m93.94,254.96c0,1.32,1.07,2.38,2.38,2.38s2.38-1.07,2.38-2.38-1.07-2.38-2.38-2.38-2.38,1.07-2.38,2.38Z"/>
              <path class="cls-20" d="m81.15,252.58c0,1.32,1.07,2.38,2.38,2.38s2.38-1.07,2.38-2.38-1.07-2.38-2.38-2.38-2.38,1.07-2.38,2.38Z"/>
              <path class="cls-20" d="m75.4,240.01c0,1.32,1.07,2.38,2.38,2.38s2.38-1.07,2.38-2.38-1.07-2.38-2.38-2.38-2.38,1.07-2.38,2.38Z"/>
              <path class="cls-20" d="m54.76,230.43c.17.04.34.06.51.06,1.32,0,2.38-1.07,2.38-2.38s-1.01-2.33-2.28-2.38c-.18,1.41-.38,2.99-.61,4.7Z"/>
              <circle class="cls-20" cx="69.57" cy="230.48" r="2.38"/>
              <path class="cls-20" d="m58.46,238.97c0,1.32,1.07,2.38,2.38,2.38s2.38-1.07,2.38-2.38-1.07-2.38-2.38-2.38-2.38,1.07-2.38,2.38Z"/>
              <path class="cls-20" d="m73.01,260.1c0,1.32,1.07,2.38,2.38,2.38s2.38-1.07,2.38-2.38-1.07-2.38-2.38-2.38-2.38,1.07-2.38,2.38Z"/>
              <path class="cls-20" d="m105.84,276.5c0,1.32,1.07,2.38,2.38,2.38s2.38-1.07,2.38-2.38-1.07-2.38-2.38-2.38-2.38,1.07-2.38,2.38Z"/>
              <path class="cls-20" d="m89.74,278.36c0,1.32,1.07,2.38,2.38,2.38s2.38-1.07,2.38-2.38-1.07-2.38-2.38-2.38-2.38,1.07-2.38,2.38Z"/>
              <path class="cls-20" d="m114.03,284.37c0,.78.37,1.47.95,1.91,1.42-.98,2.27-1.75,2.27-1.75-.2-.79-.41-1.63-.61-2.53-.07,0-.14-.01-.22-.01-1.32,0-2.38,1.07-2.38,2.38Z"/>
            </g>
            <path class="cls-16" d="m54.74,219.06c13.33,8.7,37.81,8.02,53.2,0-1.47-9.15-3.4-18.32-2.99-30.5.05-1.34.1-2.66.17-3.98.06-1.14.13-2.28.2-3.4,1.33-20.27,4.79-36.84,3.09-38.98-.74-.94-1.98-1.95-3.5-2.99-.6-.41-1.24-.82-1.92-1.23-1.6-.97-3.37-1.96-5.15-2.91-4.23-2.26-8.52-4.35-10.67-5.78-2.13.93-3.83,1.44-5.66,1.43-.05,0-.1,0-.16,0-.05,0-.1,0-.15,0-1.83.01-3.53-.5-5.67-1.43-2,1.33-5.75,3.18-9.59,5.2-2.82,1.49-5.68,3.06-7.9,4.59-1.46,1-2.65,1.98-3.38,2.9-.84,1.06-.49,5.72.23,12.61.71,6.78,1.78,15.74,2.43,25.59.18,2.74.33,5.54.42,8.38.41,12.18-1.52,21.35-2.99,30.5Z"/>
            <path class="cls-21" d="m64.1,209.52h0c10.74-.05,19.9-4.93,25.7-9.02,6.27-4.42,10.07-8.91,10.11-8.95.18-.22.16-.54-.06-.73-.22-.18-.54-.16-.73.06-.04.04-3.77,4.44-9.93,8.79-5.67,4-14.63,8.77-25.08,8.82-.29,0-.52.23-.51.52,0,.28.23.51.52.51Z"/>
            <path class="cls-21" d="m75.29,213.17c9.32,0,18.61-5.31,19.03-5.55.25-.14.33-.46.19-.71s-.46-.33-.71-.19c-.11.06-11.04,6.31-20.73,5.3-.29-.03-.54.18-.57.46-.03.28.18.54.46.57.77.08,1.55.12,2.33.12Z"/>
            <path class="cls-11" d="m83.54,155.39c.24,0,.46-.17.51-.42.05-.28-.13-.55-.41-.6-13.09-2.48-17.03-10.9-17.07-10.99-.12-.26-.42-.38-.68-.26-.26.12-.38.42-.26.68.17.37,4.21,9,17.82,11.58.03,0,.07,0,.1,0Z"/>
            <path class="cls-9" d="m65.93,134.48c2.6,5.93,8.7,13.96,17.01,12.53,8.04-1.39,12.14-7.55,14.89-11.95-4.23-2.26-8.52-4.35-10.67-5.78-2.13.93-3.83,1.44-5.66,1.43-.05,0-.1,0-.16,0-.05,0-.1,0-.15,0-1.83,0-3.53-.5-5.67-1.43-2,1.33-5.75,3.18-9.59,5.2Z"/>
            <path class="cls-2" d="m81.51,139.17c-8.48,0-9.98-8.09-10-8.17-.05-.26.13-.51.39-.56.26-.04.51.13.56.39.05.3,1.39,7.37,9.04,7.37s9.27-6.61,9.33-6.89c.06-.26.32-.43.58-.37.26.06.42.32.37.58-.02.08-1.82,7.65-10.28,7.65Z"/>
          </g>
          <path class="cls-15" d="m81.18,130.92h0c.05,0,.1,0,.15,0-.05,0-.1,0-.15,0Z"/>
          <g>
            <path class="cls-15" d="m67.9,88.08s-6.09,11.22-7.63,21.32c-1.79,11.77,1.11,20.39,10.18,19.88,9.07-.51,25.35,2.2,30.4-4.26,5.81-7.42-32.95-36.94-32.95-36.94Z"/>
            <g>
              <g>
                <path class="cls-23" d="m94.54,105.91s2.5-3.34,4.37-.58c1.86,2.76-.77,10.92-5.33,8.92l.96-8.35Z"/>
                <path class="cls-19" d="m94.57,111.74c.17,0,.32-.11.37-.28.71-2.52,3.31-3.54,3.34-3.55.2-.08.3-.3.22-.5-.08-.2-.3-.3-.5-.22-.12.05-3,1.16-3.81,4.06-.06.2.06.42.27.48.03,0,.07.01.1.01Z"/>
                <path class="cls-19" d="m97.2,110.47c.07,0,.14-.02.21-.06.18-.12.23-.35.12-.53-.02-.03-.48-.73-1.45-1.17-.19-.09-.42,0-.51.19-.09.19,0,.42.19.51.75.33,1.11.87,1.11.88.07.11.2.18.32.18Z"/>
              </g>
              <g>
                <path class="cls-23" d="m68.73,105.91s-2.5-3.34-4.37-.58c-1.86,2.76.77,10.92,5.33,8.92l-.96-8.35Z"/>
                <path class="cls-19" d="m68.7,111.74c-.17,0-.32-.11-.37-.28-.71-2.52-3.31-3.54-3.34-3.55-.2-.08-.3-.3-.22-.5.08-.2.3-.3.5-.22.12.05,3,1.16,3.81,4.06.06.2-.06.42-.27.48-.03,0-.07.01-.1.01Z"/>
                <path class="cls-19" d="m66.07,110.47c-.07,0-.14-.02-.21-.06-.18-.12-.23-.35-.12-.53.02-.03.48-.73,1.45-1.17.19-.09.42,0,.51.19.09.19,0,.42-.19.51-.75.33-1.11.87-1.11.88-.07.11-.2.18-.32.18Z"/>
              </g>
              <path class="cls-9" d="m75.47,121.17v8.11s2.42,4.13,5.69,4.41c3.27.29,6.17-3.56,6.17-3.56v-8.39l-11.86-.57Z"/>
              <path class="cls-23" d="m75.47,121.17v3.6c2.19,2.44,6.09,3.3,11.86,2.45v-5.47s-11.86-.57-11.86-.57Z"/>
              <path class="cls-9" d="m66.92,100.35c.15,3.15.45,7.09,1.05,10.24.15.79.32,1.53.51,2.19,1.71,5.97,5.98,16.22,17.93,11.95,5.28-1.88,7.72-7.76,8.81-13.74.74-4.06.85-8.16.8-11.09-.06-2.99-1.69-5.73-4.3-7.2-7.05-4-14.5-2.51-19.4-.62-3.4,1.31-5.58,4.65-5.4,8.28Z"/>
              <path class="cls-15" d="m86.9,106.38c0,.87.45,1.57,1,1.57s1-.7,1-1.57-.45-1.57-1-1.57-1,.7-1,1.57Z"/>
              <path class="cls-15" d="m74.59,106.38c0,.87.45,1.57,1,1.57s1-.7,1-1.57-.45-1.57-1-1.57-1,.7-1,1.57Z"/>
              <path class="cls-15" d="m89.87,101.72c-.83-.23-2.5-.63-4.26-.64-.46,0-.82.41-.74.87h0c.07.38.39.63.76.62,1.2-.06,4.35.11,5.84.72.03-.26-.12-.54-.34-.79-.33-.38-.78-.63-1.26-.77Z"/>
              <path class="cls-15" d="m73.77,101.75c.83-.23,2.5-.63,4.26-.64.46,0,.82.41.74.87h0c-.07.38-.39.63-.76.62-1.2-.06-4.35.11-5.84.72-.03-.26.12-.54.34-.79.33-.38.78-.63,1.26-.77Z"/>
              <path class="cls-23" d="m81.5,113.54c.29,0,.59-.05.84-.2.23-.13.5-.41.56-.94.15-1.42-.22-5.85-.23-6.04-.02-.21-.2-.37-.42-.35-.21.02-.37.2-.35.42,0,.05.37,4.56.23,5.9-.02.23-.12.32-.19.36-.36.22-1.2,0-1.55-.15-.2-.08-.42.01-.5.21-.08.2.01.42.21.5.1.04.74.29,1.39.29Z"/>
              <path class="cls-2" d="m86.4,115.97c-.29,1.47-1.26,4.16-4.52,4.16s-4.19-2.46-4.5-4.16h9.02Z"/>
              <path class="cls-23" d="m81.92,122.38c.94,0,1.77-.51,1.81-.53.18-.11.24-.35.13-.53-.11-.18-.35-.24-.53-.13h0s-.68.41-1.4.41c-.78,0-1.47-.41-1.48-.42-.18-.11-.42-.05-.53.13-.11.18-.05.42.13.53.04.02.88.53,1.88.53Z"/>
            </g>
            <path class="cls-15" d="m65.37,99.72c.12.35.47.58.93.71-.03.85.06,1.87.14,2.85.48,5.57,1.88,6.55,2.2,5.17.21-.91.2-6.16.1-7.87,1.1-.07,2.04-.26,2.04-.26l1.29-5.41.45,5.34c1.94.67,6.46-.41,6.46-.41l1.52-5.33.94,5.13c2.91,1.42,6.54.47,6.54.47l.83-5.53,1.93,5.53s6.2,2.22,6.27,0c.04-1.29-.91-4.94-1.71-7.76-.87-3.08-2.9-5.68-5.63-7.15-7.69-4.13-15.82-1.93-18.61-.27-5.91,3.53-5.67,14.77-5.67,14.77Z"/>
            <path class="cls-15" d="m93.4,88.49s5.28,6.07,6.96,16.91,4.37,19.61-2.53,22.43c-5.67,2.32-8.01-2.19-7.91-4.35.1-2.16,7.67-9.94,3.66-26.57-1.3-5.37-.18-8.42-.18-8.42Z"/>
            <path class="cls-2" d="m66.83,114.44c0,.5.4.9.9.9s.9-.4.9-.9-.4-.9-.9-.9-.9.4-.9.9Z"/>
          </g>
          <path class="cls-9" d="m105.32,181.17c1.33-20.27,4.79-36.84,3.09-38.98-.74-.94-1.98-1.95-3.5-2.99-1.55,7.29-5.48,29.23.42,41.97Z"/>
          <g>
            <path class="cls-9" d="m150.6,160.18s-16.99,29.38-24.45,32.97c-7.45,3.61-20.45-24.57-20.45-24.57l2.9-25.59s9.29,22.38,15.81,32.99c.13.22.26.44.4.65,0,0,.29-.25.81-.73,1.39-1.23,4.43-3.95,8.08-7.3,5.45-4.97,12.93-13.32,12.93-13.32l3.97,4.89Z"/>
            <path class="cls-23" d="m125.62,175.92c-.44,2.33-.89,5.03-1.36,8.08-.05.28-.29.49-.58.49-.03,0-.06,0-.09,0-.32-.05-.54-.34-.49-.67.45-2.94.89-5.54,1.31-7.82.13.22.26.44.4.65,0,0,.29-.25.81-.73Z"/>
            <path class="cls-9" d="m146.34,156.09s-1.58-2.92-.81-5.44c.76-2.52,1.71-7.1,3.95-8.66,1.88-1.31-.15,3.12.43,5.38,0,0,2.98-1.31,5-2.71,1.78-1.23,5.43-3.18,7.13-4.08.47-.24.97.28.69.73-.46.72-1.54,1.77-4.01,3.2,0,0,6.11-3.16,7.08-2.37.97.79-6.75,4.6-6.75,4.6,0,0,6.2-2.25,6.66-1.31.28.57-5.84,3.9-5.84,3.9,0,0,6.01-1.62,4.85-.25-.34.4-11.49,5.14-14.1,11.09,0,0-3.54-1.99-4.27-4.09Z"/>
          </g>
          <path class="cls-9" d="m54.88,154.58c.71,6.78,1.78,15.74,2.43,25.59,5.23-12.7,2.27-33.73.72-41.11-1.46,1-2.65,1.98-3.38,2.9-.84,1.06-.49,5.72.23,12.61Z"/>
        </g>
        <g>
          <path class="cls-14" d="m174.27,353.68c.61.31,1.56.63,2.53.63,1.05,0,1.6-.44,1.6-1.1s-.48-.99-1.69-1.42c-1.68-.58-2.77-1.51-2.77-2.98,0-1.73,1.44-3.04,3.82-3.04,1.14,0,1.98.24,2.58.51l-.51,1.84c-.41-.19-1.12-.48-2.12-.48s-1.47.45-1.47.97c0,.65.57.93,1.88,1.42,1.78.66,2.62,1.59,2.62,3.01,0,1.7-1.31,3.14-4.08,3.14-1.15,0-2.29-.3-2.86-.62l.46-1.89Z"/>
          <path class="cls-14" d="m189.13,353.68c0,.96.03,1.74.06,2.35h-1.98l-.1-1.04h-.04c-.29.45-.98,1.2-2.29,1.2-1.48,0-2.58-.93-2.58-3.2v-4.3h2.29v3.95c0,1.06.35,1.71,1.14,1.71.63,0,.99-.44,1.14-.79.06-.14.07-.32.07-.5v-4.37h2.29v4.98Z"/>
          <path class="cls-14" d="m190.9,356.03c.03-.48.06-1.37.06-2.19v-8.46h2.28v4.18h.03c.43-.63,1.2-1.04,2.22-1.04,1.75,0,3.04,1.46,3.03,3.71,0,2.64-1.68,3.96-3.36,3.96-.85,0-1.68-.32-2.21-1.18h-.03l-.09,1.02h-1.94Zm2.34-3.12c0,.15.02.29.04.41.15.62.68,1.08,1.33,1.08.98,0,1.58-.75,1.58-2.07,0-1.14-.51-2.04-1.58-2.04-.61,0-1.19.47-1.33,1.12-.03.14-.04.27-.04.42v1.08Z"/>
          <path class="cls-14" d="m199.93,351.04c0-.92-.03-1.69-.06-2.34h1.92l.1.99h.04c.31-.46.96-1.16,2.22-1.16.94,0,1.69.48,2.01,1.25h.03c.27-.38.6-.67.95-.88.4-.24.85-.36,1.39-.36,1.41,0,2.48.99,2.48,3.18v4.32h-2.22v-3.99c0-1.06-.35-1.68-1.08-1.68-.52,0-.9.36-1.05.79-.06.17-.09.41-.09.58v4.29h-2.22v-4.11c0-.93-.33-1.56-1.05-1.56-.58,0-.93.45-1.06.83-.08.18-.09.39-.09.57v4.27h-2.22v-5Z"/>
          <path class="cls-14" d="m215.19,346.66c0,.63-.48,1.14-1.23,1.14s-1.2-.51-1.19-1.14c-.01-.66.46-1.15,1.2-1.15s1.2.5,1.21,1.15Zm-2.35,9.38v-7.33h2.28v7.33h-2.28Z"/>
          <path class="cls-14" d="m219.49,346.6v2.1h1.63v1.68h-1.63v2.65c0,.88.21,1.29.9,1.29.29,0,.51-.03.67-.06v1.72c-.29.12-.83.2-1.47.2-.74,0-1.35-.26-1.71-.63-.42-.43-.63-1.14-.63-2.17v-3h-.98v-1.68h.98v-1.59l2.23-.51Z"/>
        </g>
        <circle class="cls-20" cx="231.42" cy="213.06" r="8.69"/>
        <path class="cls-2" d="m233.17,213.8c0,.97-.79,1.76-1.76,1.76s-1.75-.79-1.75-1.76.79-1.76,1.75-1.76,1.76.79,1.76,1.76Zm3.69-2.49v4.98c0,.66-.54,1.2-1.2,1.2h-8.48c-.66,0-1.2-.54-1.2-1.2v-4.98c0-.66.54-1.2,1.2-1.2h1.48v-.42c0-.58.47-1.05,1.05-1.05h3.41c.58,0,1.05.47,1.05,1.05v.42h1.48c.66,0,1.2.54,1.2,1.2Zm-2.78,2.49c0-1.47-1.19-2.66-2.66-2.66s-2.66,1.19-2.66,2.66,1.19,2.66,2.66,2.66,2.66-1.19,2.66-2.66Z"/>
      </g>
    </g>
  </g>
</svg>